<?xml version="1.0" encoding="UTF-8"?>
<svg width="22px" height="19px" viewBox="0 0 22 19" version="1.1" xmlns="http://www.w3.org/2000/svg" xmlns:xlink="http://www.w3.org/1999/xlink">
    <title>CB75C611-0381-4DB0-9010-F1F65D536EA6</title>
    <g id="Mobile-app" stroke="none" stroke-width="1" fill="none" fill-rule="evenodd">
        <g id="Patient-Information-" transform="translate(-278, -242)" fill-rule="nonzero">
            <g id="8960656_siren_ambulance_hospital_alert_emergency_icon" transform="translate(278, 242)">
                <path d="M16.9541429,17.4166667 L16.9541429,10.290875 C16.9541429,6.9825 14.2835,4.291625 11,4.291625 C7.7165,4.291625 5.04585714,6.9825 5.04585714,10.290875 L5.04585714,17.4166667 L16.9541429,17.4166667 Z M11,8.645 C10.0995714,8.645 9.36728571,9.38283333 9.36728571,10.2900833 C9.36728571,10.7270833 9.01528571,11.08175 8.58157143,11.08175 C8.14785714,11.08175 7.79585714,10.727875 7.79585714,10.2900833 C7.79585714,8.509625 9.23371429,7.06166667 11,7.06166667 C11.4337143,7.06166667 11.7857143,7.41633333 11.7857143,7.85333333 C11.7857143,8.29033333 11.4337143,8.645 11,8.645 Z" id="Shape" fill="#EA0E0E"></path>
                <path d="M11,7.06166667 C9.23292857,7.06166667 7.79585714,8.51041667 7.79585714,10.2900833 C7.79585714,10.7270833 8.14785714,11.08175 8.58157143,11.08175 C9.01528571,11.08175 9.36728571,10.727875 9.36728571,10.2900833 C9.36728571,9.38283333 10.0995714,8.645 11,8.645 C11.4337143,8.645 11.7857143,8.29033333 11.7857143,7.85333333 C11.7857143,7.41633333 11.4337143,7.06166667 11,7.06166667 Z" id="Path" fill="#FFFFFF"></path>
                <path d="M18.0714286,17.4166667 L16.9541429,17.4166667 L5.04585714,17.4166667 L3.92857143,17.4166667 C3.49485714,17.4166667 3.14285714,17.7705417 3.14285714,18.2083333 C3.14285714,18.646125 3.49485714,19 3.92857143,19 L18.0714286,19 C18.5059286,19 18.8571429,18.646125 18.8571429,18.2083333 C18.8571429,17.7705417 18.5059286,17.4166667 18.0714286,17.4166667 Z" id="Path" fill="#EA0E0E"></path>
                <path d="M11,3.602875 C11.4337143,3.602875 11.7857143,3.24820833 11.7857143,2.81120833 L11.7857143,0.791666667 C11.7857143,0.354666667 11.4337143,0 11,0 C10.5662857,0 10.2142857,0.354666667 10.2142857,0.791666667 L10.2142857,2.81120833 C10.2142857,3.24820833 10.5662857,3.602875 11,3.602875 Z" id="Path" fill="#EA0E0E"></path>
                <path d="M21.2142857,10.4745417 L19.2452857,10.4745417 C18.8107857,10.4745417 18.4595714,10.8284167 18.4595714,11.2662083 C18.4595714,11.704 18.8107857,12.057875 19.2452857,12.057875 L21.2142857,12.057875 C21.6487857,12.057875 22,11.704 22,11.2662083 C22,10.8284167 21.6487857,10.4745417 21.2142857,10.4745417 Z" id="Path" fill="#EA0E0E"></path>
                <path d="M3.54042857,11.2662083 C3.54042857,10.8284167 3.18842857,10.4745417 2.75471429,10.4745417 L0.785714286,10.4745417 C0.352,10.4745417 0,10.8284167 0,11.2662083 C0,11.704 0.352,12.057875 0.785714286,12.057875 L2.75471429,12.057875 C3.18842857,12.057875 3.54042857,11.704 3.54042857,11.2662083 Z" id="Path" fill="#EA0E0E"></path>
                <path d="M4.609,5.8425 C4.763,6.00004167 4.9665,6.07920833 5.16921429,6.07920833 C5.368,6.07920833 5.56678571,6.004 5.72,5.852 C6.02957143,5.545625 6.03428571,5.0445 5.73021429,4.73258333 L4.33792857,3.30520833 C4.03307143,2.9925 3.53571429,2.98854167 3.22692857,3.29491667 C2.91735714,3.60129167 2.91264286,4.10241667 3.21671429,4.41433333 L4.609,5.8425 Z" id="Path" fill="#EA0E0E"></path>
                <path d="M16.83,6.07920833 C17.0335,6.07920833 17.237,6.00004167 17.3902143,5.8425 L18.7825,4.41433333 C19.0873571,4.10241667 19.0826429,3.60129167 18.7730714,3.29491667 C18.4619286,2.98854167 17.9653571,2.9925 17.6620714,3.30520833 L16.2697857,4.733375 C15.9649286,5.04529167 15.9696429,5.54641667 16.2792143,5.85279167 C16.4324286,6.004 16.6312143,6.07920833 16.83,6.07920833 Z" id="Path" fill="#EA0E0E"></path>
            </g>
        </g>
    </g>
</svg>