<?xml version="1.0" encoding="UTF-8"?>
<svg width="21px" height="26px" viewBox="0 0 21 26" version="1.1" xmlns="http://www.w3.org/2000/svg" xmlns:xlink="http://www.w3.org/1999/xlink">
    <title>805F2ACA-A4CA-494B-91BA-8CE814F5B1D7</title>
    <g id="Mobile-app" stroke="none" stroke-width="1" fill="none" fill-rule="evenodd">
        <g id="Patient-Information-" transform="translate(-62, -415)" fill="#FFFFFF" fill-rule="nonzero">
            <g id="5049687_bathroom_bathtub_bidets_clean_shower_icon" transform="translate(62, 415)">
                <path d="M6.00000232,9.13881096 C5.72385993,9.13881096 5.50000232,8.91150068 5.50000232,8.63109924 L5.50000232,5.0771172 C5.50000232,4.79671576 5.72385993,4.56940548 6.00000232,4.56940548 C6.27614464,4.56940548 6.50000232,4.79671576 6.50000232,5.0771172 L6.50000232,8.63109924 C6.50000232,8.91150068 6.27614464,9.13881096 6.00000232,9.13881096 Z M6.50000232,3.04627032 L6.50000232,2.5385586 C6.50000232,2.25815716 6.27614464,2.03084688 6.00000232,2.03084688 C5.72385993,2.03084688 5.50000232,2.25815716 5.50000232,2.5385586 L5.50000232,3.04627032 C5.50000232,3.32667176 5.72385993,3.55398204 6.00000232,3.55398204 C6.27614464,3.55398204 6.50000232,3.32667176 6.50000232,3.04627032 Z M14.4300018,20.5420162 L15.2250017,25.4109716 C15.2495073,25.557801 15.2092916,25.7081517 15.1150017,25.8222181 C15.0200004,25.935 14.8811576,25.9999595 14.7350017,25.9999595 L5.7350023,25.9999595 C5.58729345,26.0018517 5.4463021,25.9373639 5.34984911,25.8237528 C5.25339613,25.7101417 5.21135467,25.5590366 5.23500234,25.4109716 L6.07000228,20.3338544 C2.36589987,18.5835664 -0.0020508924,14.810485 1.33287608e-06,10.6619461 C1.33287608e-06,10.3815447 0.223860278,10.1542344 0.500001333,10.1542344 L3.00000133,10.1542344 L3.00000133,0.50771172 C3.00000133,0.22731028 3.22386009,0 3.50000133,0 L16.5000013,0 C16.776144,0 17.0000013,0.22731028 17.0000013,0.50771172 L17.0000013,2.03084688 L18.5000013,2.03084688 C18.7761439,2.03084688 19.0000013,2.25815716 19.0000013,2.5385586 L19.0000013,4.56940548 C19.0000013,4.84980692 18.7761439,5.0771172 18.5000013,5.0771172 L17.0000013,5.0771172 L17.0000013,10.1542344 L20.5000013,10.1542344 C20.7761437,10.1542344 21.0000013,10.3815447 21.0000013,10.6619461 C20.9972334,15.0070226 18.3980495,18.9157167 14.4300018,20.5420162 Z M17.0000016,3.04627032 L17.0000016,4.06169376 L18.0000016,4.06169376 L18.0000016,3.04627032 L17.0000016,3.04627032 Z M4.00000241,10.1542344 L16.0000024,10.1542344 L16.0000024,1.01542344 L4.00000241,1.01542344 L4.00000241,10.1542344 Z M1.0000026,11.1696578 C1.02360371,11.5957995 1.07538709,12.0198484 1.15500259,12.4389371 L19.8300014,12.4389371 C19.9146542,12.0201971 19.9714492,11.5961452 20.0000026,11.1696578 L1.0000026,11.1696578 L1.0000026,11.1696578 Z M13.4700018,20.8821831 C13.0335218,21.0111623 12.5892536,21.1112228 12.1400019,21.181733 L11.7550019,21.2426584 L11.3050019,21.2832753 L10.725002,21.3238922 L10.500002,21.3238922 L10.370002,21.3238922 C10.080002,21.3238922 9.79000205,21.3086609 9.50000206,21.2781982 L9.41500207,21.2781982 C9.09500209,21.2426584 8.78000211,21.1918872 8.46500213,21.1309618 L8.22000215,21.0751135 C7.98500216,21.0192652 7.75500218,20.9583398 7.52500219,20.8923373 L7.25500221,20.8161805 L7.02500222,20.7451009 L6.32500227,25.0048022 L14.1450018,25.0048022 L13.4700018,20.8821831 Z M19.5850014,13.4543606 L1.41500258,13.4543606 C2.24479203,16.2244896 4.25138048,18.4724853 6.88500223,19.582441 L7.16000221,19.6839834 C7.3450022,19.755063 7.52500219,19.8210656 7.71000218,19.881991 L8.06500216,19.9784562 C8.23000215,20.0241502 8.40000213,20.0698443 8.56500212,20.1053841 L8.9600021,20.1713866 C9.12000209,20.1967722 9.28000208,20.2272349 9.46000207,20.2424663 C9.64000206,20.2576976 9.75000205,20.2678519 9.90000204,20.2780061 C10.050002,20.2881603 10.195002,20.2780061 10.345002,20.2780061 C10.495002,20.2780061 10.695002,20.2780061 10.845002,20.2780061 C10.995002,20.2780061 11.075002,20.2780061 11.190002,20.2780061 C11.4000019,20.2780061 11.6150019,20.2373892 11.8300019,20.2069265 L12.0250019,20.1764638 C12.2750019,20.1358468 12.5250019,20.0799985 12.7750019,20.0190731 L12.8550019,20.0190731 C13.1250018,19.9479935 13.3950018,19.8616825 13.6650018,19.7652173 C16.5128278,18.7347952 18.7098081,16.3927634 19.5850014,13.4543606 Z" id="Shape"></path>
            </g>
        </g>
    </g>
</svg>