<?xml version="1.0" encoding="UTF-8"?>
<svg width="13px" height="13px" viewBox="0 0 13 13" version="1.1" xmlns="http://www.w3.org/2000/svg" xmlns:xlink="http://www.w3.org/1999/xlink">
    <title>E33BD913-271F-406C-9864-81970DDB64FE</title>
    <g id="Mobile-app" stroke="none" stroke-width="1" fill="none" fill-rule="evenodd">
        <g id="Home-Screen-" transform="translate(-128, -191)" fill="#AFAFAF" fill-rule="nonzero">
            <path d="M134.5,191 C138.089851,191 141,193.910149 141,197.5 C141,201.089851 138.089851,204 134.5,204 C130.910149,204 128,201.089851 128,197.5 C128,193.910149 130.910149,191 134.5,191 Z M134.5,192 C131.462434,192 129,194.462434 129,197.5 C129,200.537566 131.462434,203 134.5,203 C137.537566,203 140,200.537566 140,197.5 C140,194.462434 137.537566,192 134.5,192 Z M134.5,194.200479 C134.776142,194.200479 135,194.424336 135,194.700479 L135,197.95956 L136.623834,199.583394 C136.819096,199.778656 136.819096,200.095239 136.623834,200.290501 C136.428572,200.485763 136.111989,200.485763 135.916727,200.290501 L134.146447,198.52022 C134.052678,198.426452 134,198.299275 134,198.166667 L134,194.700479 C134,194.424336 134.223858,194.200479 134.5,194.200479 Z" id="Shape"></path>
        </g>
    </g>
</svg>