<?xml version="1.0" encoding="UTF-8"?>
<svg width="24px" height="32px" viewBox="0 0 24 32" version="1.1" xmlns="http://www.w3.org/2000/svg" xmlns:xlink="http://www.w3.org/1999/xlink">
    <title>4B937A9A-5D98-45A0-B3D9-BD7D6847F585</title>
    <defs>
        <polygon id="path-1" points="0 0 24 0 24 32 0 32"></polygon>
    </defs>
    <g id="Mobile-app" stroke="none" stroke-width="1" fill="none" fill-rule="evenodd">
        <g id="Patient-Information-" transform="translate(-64, -238)">
            <g id="Group-3" transform="translate(64, 238)">
                <mask id="mask-2" fill="white">
                    <use xlink:href="#path-1"></use>
                </mask>
                <g id="Clip-2"></g>
                <path d="M12.0758357,0.583324543 C11.3513478,0.593757491 10.6803644,0.878208755 10.1863812,1.38451359 C9.68866512,1.89450065 9.41274379,2.58154097 9.42923063,3.2698087 C9.46313754,4.6889965 10.6548564,5.84367838 12.0857901,5.84367838 L12.0904562,5.84367838 C13.5636957,5.84122357 14.7656799,4.66168672 14.7697332,3.21426859 C14.7715903,2.52170494 14.4928693,1.86350865 13.9842657,1.36057918 C13.4775286,0.859183967 12.8127666,0.583017692 12.1131644,0.583017692 C12.1007215,0.583017692 12.0882786,0.583324543 12.0758357,0.583324543 L12.0758357,0.583324543 Z M13.4778397,10.3323009 C13.6028908,10.3323009 13.7049226,10.3510188 13.7858015,10.5869876 C13.9516031,11.0718128 14.1170937,11.5566381 14.2822732,12.0414633 C14.5768589,12.9067843 14.88171,13.8012562 15.1853168,14.6800786 C15.2497088,14.8663374 15.2472202,15.0249796 15.17754,15.2103179 C14.7193301,16.4288249 14.2604981,17.6694251 13.8172198,18.8692142 C13.6812811,19.2365153 13.5456535,19.6038165 13.4097148,19.9711176 C13.2308481,20.4537949 13.3910504,20.8867622 13.8175309,21.0736348 C13.9279616,21.1224241 14.041192,21.1469722 14.1550446,21.1469722 C14.3360888,21.1469722 14.6745357,21.0816129 14.9093954,20.6458839 C15.730938,19.1223666 16.6993068,17.3239104 17.656477,15.5380352 C17.9299097,15.0280481 17.9964793,14.4741813 17.8533859,13.892391 C17.5560006,12.6797142 17.2402619,11.3863355 16.9369662,10.0723978 C16.7543666,9.27980055 16.4778232,8.36845184 15.8130612,7.61666587 C15.516609,7.28189097 15.1996261,6.96368605 14.8935308,6.65652778 C14.7351948,6.49757875 14.5715707,6.33341324 14.4151012,6.17078199 C14.2542767,6.00416167 14.0782096,5.96918061 13.9584467,5.96918061 C13.8004219,5.96918061 13.6812811,6.02901664 13.6103566,6.06491825 L13.5910701,6.0747375 C13.1036194,6.31254735 12.6049701,6.4334468 12.1084984,6.4334468 C11.7532535,6.4334468 11.3880544,6.37176967 11.0228552,6.25025651 C10.9295335,6.21926452 10.8427442,6.20392194 10.7571993,6.20392194 C10.5347824,6.20392194 10.344095,6.3033418 10.190114,6.49880616 C9.33621994,7.58291221 8.89978518,8.79405475 8.89294158,10.0981733 C8.88889764,10.8548689 8.90227376,11.6213837 8.9153388,12.3630436 C8.92062704,12.6609963 8.92591527,12.9592559 8.92995921,13.2575155 C8.93089243,13.3305461 8.94115783,13.3919164 8.95111215,13.4514456 C8.95484502,13.4738457 8.95920003,13.4993144 8.96355505,13.5284653 L9.0546993,14.1780697 L9.64355961,13.87398 C10.7923505,13.2808362 11.9862469,12.9258091 13.2936847,12.7880328 L13.8389949,12.7306516 L13.6955904,12.2086973 C13.6868804,12.1770916 13.6794147,12.1485544 13.6725711,12.1224721 C13.6576396,12.064784 13.6433302,12.0104713 13.6243548,11.9530901 C13.5804936,11.8217577 13.5356991,11.691039 13.4915268,11.5600134 C13.401938,11.2967349 13.3092383,11.0245577 13.2249377,10.7572901 C13.187609,10.6382318 13.1897865,10.5968068 13.1904086,10.5897492 C13.2044069,10.5001486 13.2532453,10.3467229 13.4255795,10.334142 C13.4436217,10.3329146 13.4613528,10.3323009 13.4778397,10.3323009 L13.4778397,10.3323009 Z M4.52206142,18.4749101 C4.49935312,18.4788992 4.4803777,18.4816608 4.46326871,18.4841156 C4.41256389,18.4914801 4.35501547,18.5000719 4.28751273,18.5230858 C4.0952699,18.5890588 3.90240493,18.6538045 3.70953996,18.7185501 C3.23764293,18.8768855 2.74988119,19.0407441 2.27269593,19.2220933 C1.25082266,19.6105672 0.589793523,20.5734669 0.588549233,21.674143 C0.587304943,22.7637724 0.587648856,23.8537086 0.587927088,24.943338 L0.588238161,26.4202138 L0.587927088,27.2606799 C0.587648856,27.9093638 0.587304943,28.5580477 0.588549233,29.2070384 C0.589793523,29.7483243 0.961836273,30.1410941 1.47355059,30.1410941 L1.47977204,30.1410941 C2.02974828,30.1374119 2.29820388,29.7139569 2.36632876,29.3184255 C2.40521283,29.092276 2.44347475,28.8658196 2.4814256,28.6396701 L2.74054902,27.1020377 C2.96887626,25.7491298 3.1972035,24.3962219 3.42428645,23.0430071 C3.46099301,22.8239152 3.54622688,22.785252 3.59195454,22.7640792 C3.68932025,22.7195858 3.81530462,22.6950376 3.90147171,22.6806156 C4.13726469,22.6407249 4.43029502,22.5004938 4.48566593,22.0574004 C4.57992091,21.3074555 4.66515478,20.6796375 4.77558553,20.0536606 C4.81166995,19.848377 4.87823947,19.6341948 4.94854186,19.4074316 C4.98400413,19.2942034 5.02039962,19.1766793 5.05555081,19.053325 L5.25681474,18.3441914 L4.52206142,18.4749101 Z M13.6287098,13.3440476 C13.5938697,13.3440476 13.5574742,13.3465024 13.5201455,13.351412 C13.4380224,13.3618449 13.3552771,13.3704368 13.2678657,13.3793355 C13.1257055,13.3940643 12.9782572,13.4091001 12.8283202,13.4336482 C10.417197,13.8297934 8.44966322,14.9810999 6.98015658,16.8562689 C5.51251636,18.7289831 4.88726057,20.8987294 5.12149819,23.3053651 C5.26023654,24.732531 5.72528998,26.0470825 6.5042156,27.2125042 C8.26488614,29.8477442 10.8047934,31.3003788 13.8495713,31.4145275 L13.8598367,31.4148343 L13.8704132,31.4148343 C15.0652428,31.4077768 15.9393566,31.2994582 16.7920064,31.0518291 C18.9813349,30.4172604 20.8434151,29.0235413 22.035134,27.1275064 C23.2383625,25.2133672 23.6667094,22.9236419 23.2411622,20.6799444 C22.8003724,18.355238 21.559193,16.4438606 19.5524641,14.9988973 C19.4124814,14.8979431 19.2410805,14.7948411 19.0323508,14.7948411 C18.6046261,14.7948411 18.4357137,15.1983507 18.3803428,15.3312173 C18.2963532,15.5315913 18.1831228,15.7939493 18.050917,16.0421921 C17.5727985,16.9409599 17.0809928,17.8529223 16.605674,18.7345064 L16.3841903,19.1456873 C16.2868246,19.3258091 16.1910143,19.5062377 16.0952039,19.6869732 C15.8563002,20.1362037 15.6096197,20.6010836 15.3508074,21.0435633 C15.104749,21.4642566 14.6409399,21.7253872 14.1401131,21.7253872 C13.9220512,21.7253872 13.7055447,21.6738361 13.5154794,21.5759505 C12.8432517,21.2298221 12.5751072,20.5028911 12.8491621,19.7667546 C13.4983704,18.0210769 14.0312377,16.5825574 14.525843,15.2394688 C14.5656603,15.1308434 14.6228976,14.9157405 14.5560171,14.6945006 C14.5034458,14.5205159 14.4437199,14.3508271 14.3861714,14.1869684 C14.3410659,14.0580908 14.298449,13.9362708 14.2589428,13.8129165 C14.1646878,13.5195666 13.9292059,13.3440476 13.6287098,13.3440476 L13.6287098,13.3440476 Z M14.2132151,32 C11.8649286,32 9.75399035,31.2350194 7.93888212,29.7259242 C6.38974091,28.4383756 5.3376936,26.8034713 4.81198102,24.8666251 C4.7917613,24.7929808 4.76811979,24.7159611 4.74136755,24.6374071 C4.70746065,24.5376804 4.6502233,24.4747759 4.61942712,24.4410222 C4.61133923,24.4321235 4.60076277,24.4201563 4.58614236,24.4029726 L3.93693398,23.6287865 L3.76491087,24.6193029 C3.74158043,24.7540106 3.71856106,24.8844225 3.69647491,25.0123795 C3.64856974,25.286091 3.60315315,25.5469147 3.55898085,25.8080453 C3.49116704,26.2087932 3.42428645,26.6101549 3.35740585,27.0112097 C3.21897857,27.8430839 3.07588521,28.7034952 2.92563718,29.5467229 C2.82422753,30.1177734 2.31749037,30.7320899 1.44555406,30.7320899 C1.40542571,30.7320899 1.36436413,30.7308625 1.32361363,30.7281009 C0.684981718,30.6860622 0.0920774699,30.1064199 0.00217750773,29.4365633 C0.0009332176,29.4264372 0.00124429013,29.3966726 0.00124429013,29.3748861 L0.00155536267,29.3438941 C0.00155536267,28.6243276 0.00124429013,27.9053747 0.0009332176,27.186115 C0,25.3735437 -0.0009332176,23.4989883 0.0018664352,21.6557319 C0.00404394293,20.3135638 0.862604135,19.1048761 2.13862367,18.6482812 C3.09610492,18.3055281 4.07784984,17.9725943 5.02693214,17.6507072 L5.5302475,17.479791 C5.78781555,17.3923383 5.98316911,17.2447428 6.12750676,17.0287194 C6.65041969,16.246862 7.2834523,15.5555257 8.00918452,14.9734286 C8.23968926,14.7880903 8.34980894,14.5570312 8.34607607,14.2670566 L8.33923247,13.7865273 C8.32212348,12.585204 8.30408128,11.3430695 8.30501449,10.1233351 C8.30563664,8.72439948 8.7557586,7.42427003 9.64200424,6.25946205 C9.89708372,5.92407345 9.88899583,5.5985041 9.61836273,5.29195953 C8.92031597,4.50058973 8.67332437,3.41096035 8.95795574,2.37748478 C9.24476462,1.33449681 10.0252456,0.509987055 11.0455635,0.171223091 C11.3883654,0.0576880664 11.7426771,0 12.0979219,0 C13.6968347,0 15.0506224,1.12921321 15.3175226,2.68525675 C15.4553277,3.49074172 15.2951254,4.25111953 14.8403373,4.94491058 C14.6297412,5.26618401 14.6614706,5.58162727 14.9317927,5.85717984 C15.031647,5.95905451 15.1321234,6.06062233 15.2325998,6.16219015 C15.623618,6.55649422 16.0277012,6.96429976 16.3841903,7.38683416 C17.0573513,8.18587525 17.3438491,9.18191494 17.5180497,9.96039699 C17.6648759,10.6158316 17.8244562,11.2783238 17.9790592,11.9187227 C18.0857571,12.3615093 18.1964989,12.8196385 18.3013304,13.2700964 C18.3874974,13.6401592 18.6674627,13.7929712 18.8021571,13.8666155 C19.981122,14.5100829 20.9790427,15.3149542 21.7679227,16.2588292 C22.5617798,17.2085343 23.1693044,18.3288488 23.5736987,19.5887807 C23.9410754,20.7333365 24.0717258,21.903361 23.9628505,23.0669416 C23.8004706,24.7997315 23.2856456,26.3346023 22.4323736,27.6292084 C21.5812791,28.920746 20.3677852,30.011296 18.8264208,30.8704799 C17.7669077,31.4611689 16.5935421,31.822333 15.3392977,31.9444599 C14.9594781,31.9812821 14.5805918,32 14.2132151,32 L14.2132151,32 Z" id="Fill-1" fill="#000000" mask="url(#mask-2)"></path>
            </g>
        </g>
    </g>
</svg>