<?xml version="1.0" encoding="UTF-8"?>
<svg width="21px" height="27px" viewBox="0 0 21 27" version="1.1" xmlns="http://www.w3.org/2000/svg" xmlns:xlink="http://www.w3.org/1999/xlink">
    <title>280590AE-3A4C-4F21-879E-904F4724B1B2</title>
    <defs>
        <polygon id="path-1" points="0 0 21 0 21 27 0 27"></polygon>
    </defs>
    <g id="Mobile-app" stroke="none" stroke-width="1" fill="none" fill-rule="evenodd">
        <g id="Patient-Information-" transform="translate(-62, -602)">
            <g id="Group-3" transform="translate(62, 602)">
                <mask id="mask-2" fill="white">
                    <use xlink:href="#path-1"></use>
                </mask>
                <g id="Clip-2"></g>
                <path d="M5.892427,0.910708938 C5.80015384,0.951905589 5.70965091,0.990253535 5.62202459,1.02728669 C5.43128247,1.10792695 5.25116171,1.18418458 5.07812187,1.2808214 C4.37556242,1.67481916 3.99120154,2.27830626 3.93610318,3.07484789 C3.88963468,3.7473613 4.01532091,4.43433736 4.30984268,5.11671167 C5.43371653,7.72174243 6.58436509,10.3670933 7.69717501,12.92523 C8.04192702,13.7180464 8.38667903,14.5108628 8.73143104,15.3036792 C8.74780565,15.3413698 8.7659505,15.3748968 8.78741452,15.413683 C8.79715078,15.4318709 8.80777215,15.4513736 8.81949991,15.4732867 L8.94894787,15.7202475 L9.07042981,15.4693423 C9.0808299,15.4478675 9.08990232,15.4296796 9.09808963,15.4134639 C9.11357913,15.381909 9.12597073,15.3569281 9.13769849,15.3301941 L9.95377385,13.4496108 C11.1807635,10.6223811 12.4495748,7.6989528 13.6931604,4.82154205 C13.7741483,4.63440407 13.8316808,4.44244521 13.8927537,4.2388724 C13.9210773,4.14420776 13.9505074,4.04625614 13.9830353,3.94677062 L14.042338,3.76511092 L8.80046995,3.76511092 L8.80046995,3.03277471 C8.81927863,3.03211732 8.83764475,3.03145992 8.85534704,3.03145992 C9.08791081,3.03102166 9.32069587,3.03102166 9.55303837,3.03102166 L10.2047038,3.03102166 L11.9138594,3.0305834 C12.4537791,3.0305834 13.1656323,3.03102166 13.8847876,3.0334321 C14.1146961,3.0334321 14.2304247,2.92715351 14.232195,2.71766416 C14.2330801,2.60240119 14.2406036,2.48253647 14.2479058,2.3666161 C14.2620676,2.14200671 14.276672,1.90972772 14.2467994,1.6800783 C14.1545262,0.971408258 13.9086857,0.743950155 13.2348925,0.743950155 L13.2129859,0.743950155 C12.5082136,0.748113646 11.7330748,0.750085826 10.7733897,0.750085826 C10.2949854,0.750085826 9.81635986,0.749647564 9.3379556,0.749209302 C8.85933005,0.74877104 8.38070451,0.748332777 7.90230024,0.748332777 L7.74563502,0.748332777 C7.70491976,0.748332777 7.66508962,0.750085826 7.62658715,0.751619744 C7.59582943,0.752934531 7.5650717,0.754468449 7.53409271,0.75468758 C7.19664289,0.75863194 6.9446066,0.951686457 6.86029946,1.27139876 C6.79059671,1.53610916 6.72067269,1.84859013 6.72996639,2.16085198 C6.75718365,3.06498699 6.963194,3.98161246 7.34224419,4.88574747 C7.84897211,6.09381734 8.38225346,7.31415855 8.8980538,8.49417963 C9.11955365,9.00081079 9.3410535,9.50766107 9.56122567,10.0149496 C9.63402632,10.1828041 9.70594186,10.3510968 9.77896378,10.522019 L9.82875146,10.6381585 L9.13504315,10.9311368 C9.13216653,10.9243438 9.12906863,10.9175507 9.12641329,10.9109768 C8.95093938,10.506899 8.77502292,10.1030403 8.59910646,9.69918167 C8.18376658,8.74596129 7.75426488,7.76030951 7.3400314,6.7878056 C7.30108637,6.69664705 7.26214134,6.60526937 7.22319632,6.51411083 C6.93132988,5.83195565 6.6297272,5.12657257 6.38764844,4.41746426 C6.05528803,3.44452209 5.92429112,2.57040805 5.98669167,1.74581764 C5.99731305,1.6082033 6.0205473,1.47058895 6.04754328,1.31149976 C6.06126255,1.23173603 6.07542438,1.14802794 6.08914365,1.05796505 L6.12742484,0.805306869 L5.892427,0.910708938 Z M14.8349578,18.9686472 C16.4330316,18.9686472 18.1530299,18.9693046 19.9017945,18.9730298 C19.9869867,18.9730298 20.1066984,18.9622924 20.1823757,18.8702573 C20.2443337,18.7942188 20.2496444,18.6978011 20.2494294,18.6134357 C20.2474316,16.1569758 20.2467678,13.6593193 20.2463252,11.2438369 C20.2458826,9.43030778 20.2454401,7.61699776 20.2443337,5.80368773 C20.2443337,5.62334282 20.227074,5.4570223 20.1934396,5.30888966 C19.9807909,4.37385717 19.1886136,3.74560825 18.2220688,3.74560825 C18.1625449,3.74560825 18.1019146,3.74801869 18.0421694,3.75283957 C17.9302024,3.76204308 17.8244313,3.8720469 17.795665,3.96912199 C17.743222,4.14639907 17.6980812,4.3282779 17.6544893,4.50402106 C17.5728375,4.83271774 17.4883091,5.17259011 17.3562058,5.48003107 C16.0564155,8.50228749 14.7216632,11.569904 13.4309453,14.536282 C13.0220225,15.4759163 12.613321,16.4157696 12.2046195,17.3554039 C12.0698608,17.6656936 11.935766,17.9759832 11.7965818,18.2976677 L11.506043,18.9688663 L14.8349578,18.9686472 Z M9.68801829,18.9664559 C9.94979084,18.9664559 10.1626608,18.9688663 10.357386,18.9736872 C10.3646882,18.9739064 10.3717691,18.9739064 10.37885,18.9739064 C10.5921625,18.9739064 10.7213892,18.8858156 10.811007,18.6789559 C12.1959896,15.4827093 13.6073043,12.2338713 14.9719292,9.09196933 C15.5311002,7.80523139 16.0900498,6.51827432 16.6487782,5.23131725 C16.8972741,4.65894676 17.04022,4.06816926 17.0738544,3.47520044 C17.1457699,2.2053356 16.478615,1.33297461 15.1447478,0.952562982 C15.130586,0.948399491 15.115539,0.946427311 15.1007134,0.946427311 C15.0624322,0.946427311 15.0334447,0.959575178 15.0177339,0.966587374 C15.0175126,0.966587374 15.0179552,0.966587374 15.0181765,0.966368243 L14.9059882,1.0005527 L14.9241331,1.11932176 C14.9349757,1.18922459 14.9473673,1.25868916 14.9595376,1.32596241 C14.9852059,1.46971243 15.0095466,1.60579285 15.0179552,1.74187328 C15.0863303,2.83424192 14.8714688,3.97306635 14.3789027,5.12701083 C13.0107373,8.33136521 11.5969885,11.5802032 10.2297082,14.7218861 C9.70948231,15.916589 9.18969896,17.111511 8.67080071,18.3068712 C8.62787267,18.4056994 8.58582974,18.5051849 8.54046764,18.6127783 C8.51856106,18.6649315 8.49554809,18.719276 8.47120744,18.7762501 L8.38933437,18.9690855 L8.81927863,18.9690855 C8.96421609,18.9690855 9.10915356,18.9684281 9.2543123,18.9677707 C9.3988072,18.9671133 9.54352339,18.9664559 9.68801829,18.9664559 L9.68801829,18.9664559 Z M1.08736289,19.7128165 C1.00703877,19.7128165 0.905471903,19.7222391 0.833113811,19.7956481 C0.760976998,19.869057 0.753896083,19.970953 0.756108869,20.0515932 C0.762747226,20.3138932 0.761419555,20.5818905 0.760313162,20.8409035 C0.759649326,20.9642743 0.75898549,21.0876451 0.759206769,21.211016 C0.759428048,21.2570335 0.762304669,21.3026128 0.765402569,21.3466581 C0.766508962,21.3670373 0.768057912,21.3876356 0.769164305,21.4088914 L0.77602394,21.5408083 L20.2465465,21.5408083 L20.2465465,20.1160178 C20.2465465,19.7794324 20.1823757,19.7158843 19.8422705,19.7158843 L4.94623984,19.7158843 C4.63224556,19.7158843 4.31802999,19.7161035 4.0040357,19.7163226 C3.68627968,19.7163226 3.36852365,19.7165417 3.05076763,19.7165417 C2.25881163,19.7165417 1.65449986,19.7154461 1.09156718,19.7128165 L1.08736289,19.7128165 Z M10.3892501,22.2963724 C10.2095719,22.2963724 10.0980475,22.3700005 10.0274596,22.5347871 C9.79555968,23.0775749 9.55569371,23.6282514 9.32401505,24.16074 C9.23196316,24.3719824 9.13991128,24.5834439 9.04808067,24.7949054 C8.92748385,25.0727637 8.80732959,25.3508411 8.68164336,25.641409 L8.41743675,26.2521274 L15.1544841,26.2525657 C16.1570972,26.2525657 17.1592679,26.2523465 18.1614385,26.2521274 C19.3682918,26.2519083 20.2449975,25.3834916 20.2463252,24.187474 C20.2465465,24.0250978 20.2461039,23.8629408 20.2456614,23.7007838 C20.244555,23.3543375 20.2436699,22.9962772 20.2489805,22.6445718 C20.2505295,22.5549471 20.2421209,22.4534894 20.1684351,22.3796422 C20.0940855,22.3046994 19.9903059,22.2950576 19.9084328,22.2950576 C18.3085888,22.2976872 16.676438,22.299002 14.9170521,22.299002 C13.4851585,22.299002 12.0045836,22.2981255 10.3901352,22.2963724 L10.3892501,22.2963724 Z M6.49297704,26.2510317 C6.75275808,26.2510317 7.06055657,26.25147 7.37366574,26.2545378 L7.37787004,26.2545378 C7.59074002,26.2545378 7.65668103,26.10268 7.69584734,26.0121788 C7.99191806,25.3293662 8.28798879,24.648745 8.58383823,23.9681237 C8.77192502,23.5355589 8.9600118,23.1029941 9.14787731,22.6704292 C9.16469448,22.631643 9.17708608,22.5939525 9.19169046,22.5503454 C9.19832882,22.5299662 9.20563101,22.5078339 9.21426088,22.4832913 L9.27887422,22.2987828 L8.8805728,22.2987828 C8.73408638,22.2987828 8.59047659,22.2992211 8.44664552,22.2996594 C8.30325701,22.3000976 8.1598685,22.3003168 8.01647998,22.3003168 C7.7303668,22.3003168 7.49913069,22.2987828 7.28913733,22.2954959 L7.27696701,22.2952768 C7.08976534,22.2952768 6.97270898,22.3732874 6.89791682,22.5479349 C6.55095202,23.3582818 6.19425097,24.1809 5.8490564,24.9765651 C5.71938716,25.27546 5.58971792,25.574574 5.46026996,25.873688 C5.44367407,25.9120359 5.43017607,25.9499456 5.41579297,25.9900466 C5.40915461,26.0086727 5.40229497,26.0279563 5.39455022,26.0485546 L5.3359114,26.2061099 L5.503198,26.2337204 C5.51625344,26.2359117 5.52775992,26.2383221 5.53793874,26.2402943 C5.56449217,26.2455535 5.59170943,26.2510317 5.62357354,26.2512509 L5.85060535,26.2512509 L6.49297704,26.2510317 Z M3.85931952,26.2521274 C3.98788236,26.2521274 4.09365352,26.2530039 4.1919012,26.2554144 C4.19765445,26.2556335 4.20340769,26.2556335 4.20893965,26.2556335 C4.39215831,26.2556335 4.50744444,26.1771846 4.58290044,26.0012223 C4.93163546,25.1862736 5.29099185,24.3592728 5.63839921,23.5598824 C5.7665195,23.2651511 5.89441851,22.9704197 6.02231752,22.6756884 C6.03891342,22.6373404 6.05241141,22.5996499 6.06679452,22.5593298 C6.07321159,22.5409227 6.08007123,22.5218583 6.0875947,22.5016983 L6.14667608,22.3421708 L5.97695542,22.3163133 C5.96235103,22.314122 5.94973815,22.3119307 5.93845295,22.3097394 C5.9110144,22.3046994 5.88512481,22.2998785 5.85458837,22.2998785 C5.39521406,22.2996594 4.93583975,22.2996594 4.47646544,22.2996594 C3.34971497,22.2994402 2.18446203,22.2992211 1.03846032,22.2970298 C0.947293552,22.2970298 0.87958231,22.320696 0.830458468,22.3695622 C0.756993983,22.4425329 0.75743654,22.5437714 0.757657819,22.598116 C0.758764212,22.8060714 0.758100376,23.0179712 0.757215262,23.2228588 C0.75588759,23.5756599 0.754559919,23.9405132 0.762304669,24.2998882 C0.773147319,24.7933715 0.961012824,25.2601208 1.29116045,25.6140176 C1.62374214,25.9705439 2.07935471,26.1887985 2.57413359,26.2291186 C2.84586367,26.2510317 3.1160448,26.2538804 3.34418301,26.2538804 C3.43048165,26.2538804 3.51633773,26.2534422 3.6024151,26.2530039 C3.6880499,26.2525657 3.77368471,26.2521274 3.85931952,26.2521274 L3.85931952,26.2521274 Z M3.6705689,27.0000219 C3.23708418,27.0000219 2.90361738,26.9947628 2.58895925,26.9829297 C1.93308958,26.958387 1.30620739,26.6857879 0.823820111,26.2155325 C0.340326439,25.7441815 0.0573111493,25.1275465 0.0265534282,24.4789184 C-0.00531068565,23.8018032 -0.00132767141,23.1097871 0.00265534282,22.4403416 C0.00398301424,22.2025843 0.00531068565,21.9646079 0.00531068565,21.7268506 C0.00398301424,19.5002593 0.0042042928,17.2738871 0.00442557137,15.0472958 L0.00464684994,11.1873011 C0.00464684994,9.40160161 0.00442557137,7.6159021 0.00398301424,5.82998347 C0.0035404571,4.84126385 0.383033202,4.08109799 1.16370399,3.50675533 L1.570414,4.13938687 C1.03182197,4.55157251 0.758764212,5.11167165 0.758764212,5.80456426 C0.75898549,8.20711787 0.75898549,10.6096715 0.75898549,13.0122251 L0.75898549,15.8357296 C0.75898549,16.0717338 0.759428048,16.307738 0.759649326,16.5437422 C0.760313162,17.2272122 0.760976998,17.9341292 0.75588759,18.6287748 C0.755223755,18.710949 0.764074898,18.8148172 0.838424497,18.8888835 C0.912552817,18.9629498 1.01766014,18.9725916 1.10086088,18.9725916 C2.10458047,18.9701811 3.12710873,18.9688663 4.22929728,18.9688663 C5.19119522,18.9688663 6.19203819,18.9697429 7.28913733,18.971715 C7.48032201,18.971715 7.59649326,18.8967722 7.66708112,18.7284795 C7.90783221,18.1558899 8.16982603,17.5515262 8.44598169,16.9322617 C8.50594818,16.7977152 8.50462051,16.6732487 8.44155612,16.5281839 C8.14349388,15.84318 7.84521037,15.1581761 7.54692686,14.4731723 C6.25333235,11.5017543 4.9157034,8.42909769 3.61148752,5.40223952 C3.19327102,4.43148866 3.06824863,3.53173627 3.22933943,2.65126743 C3.41853261,1.61850246 4.03479342,0.889234088 5.11352644,0.42226567 C5.74948105,0.146817851 6.43500205,0.00657393362 7.15083822,0.00547827802 C7.49005827,0.00504001578 7.82927832,0.00482088466 8.16849836,0.00482088466 C8.59268938,0.00482088466 9.01665912,0.00504001578 9.44085013,0.00547827802 C9.86504115,0.00569740914 10.2892322,0.00591654026 10.7134232,0.00591654026 C11.6830659,0.00591654026 12.4272257,0.00438262242 13.1262447,0.000876524483 C13.208339,0.000438262242 13.2902121,0 13.3720852,0 C13.8974005,0 14.5068017,0.0120522116 15.0916409,0.156021358 C16.0716837,0.397503853 16.7567622,0.805526 17.247558,1.44012973 C17.5316797,1.80717435 17.7106941,2.22681045 17.7795117,2.68742406 C17.8211121,2.96462493 17.9892838,3.00297288 18.1647577,3.00319201 C19.3632024,3.00494506 20.2388017,3.55474504 20.7672149,4.63769104 C20.9229951,4.95674595 20.9988936,5.32839233 20.9988936,5.77366677 C20.9993362,8.79351274 20.9995574,11.8131396 20.9995574,14.8327664 C20.9995574,15.624268 20.9997787,16.4153314 20.9997787,17.206833 C21.0001133,19.4888645 21.0006638,21.8484684 20.9980085,24.1695052 C20.9966808,25.3361593 20.4660548,26.1984403 19.4211774,26.7322437 C19.0682381,26.9125886 18.6690516,26.9965158 18.1647577,26.9965158 C16.0482282,26.9958584 13.9332476,26.9958584 11.8182671,26.9958584 L8.64468984,26.9958584 C7.39535104,26.9958584 4.88826486,26.9956393 4.88826486,26.9956393 C4.68513113,26.9956393 4.48199741,26.9965158 4.27886368,26.9978306 C4.07595123,26.9989263 3.87326007,27.0000219 3.6705689,27.0000219 L3.6705689,27.0000219 Z" id="Fill-1" fill="#FFFFFF" mask="url(#mask-2)"></path>
            </g>
        </g>
    </g>
</svg>