<?xml version="1.0" encoding="UTF-8"?>
<svg width="14px" height="28px" viewBox="0 0 14 28" version="1.1" xmlns="http://www.w3.org/2000/svg" xmlns:xlink="http://www.w3.org/1999/xlink">
    <title>F03B49D9-2ACF-456B-92C7-F7F62EC9E16A</title>
    <defs>
        <polygon id="path-1" points="0 0 14 0 14 28 0 28"></polygon>
    </defs>
    <g id="Mobile-app" stroke="none" stroke-width="1" fill="none" fill-rule="evenodd">
        <g id="Patient-Information-" transform="translate(-172, -240)">
            <g id="Group-6" transform="translate(179, 254) scale(-1, 1) translate(-179, -254)translate(172, 240)">
                <g id="Group-3">
                    <mask id="mask-2" fill="white">
                        <use xlink:href="#path-1"></use>
                    </mask>
                    <g id="Clip-2"></g>
                    <path d="M9.19069281,28.0000341 C8.49476574,28.0000341 7.88450649,27.8953809 7.32452335,27.6799386 C6.41095368,27.3281404 5.79110229,26.6289756 5.42957744,25.5425601 C5.11336723,24.5925004 4.97113878,23.6134651 5.00686128,22.6323845 C5.05812967,21.2006477 4.63177511,19.86436 3.70265954,18.5468212 L3.68248295,18.5181865 C3.0924003,17.6816431 2.48280258,16.8168059 1.92050409,15.9441282 C0.876944246,14.3255838 0.260400489,12.5710244 0.0870802487,10.7291972 C-0.119647137,8.52977672 0.0407733142,6.61022669 0.578264518,4.86078064 C1.11972489,3.09872166 2.09283204,1.85311062 3.55348506,1.05236066 C4.40222502,0.587046191 5.3329944,0.288767684 6.31933211,0.166047384 C7.16939512,0.0603715698 7.94404398,0.00617010397 8.6889241,3.40889722e-05 C8.70314694,3.40889722e-05 8.71736979,-0.00030680075 8.73159263,-0.00030680075 C10.2411987,-0.00030680075 11.4779246,0.671245952 12.4077017,1.99560252 C13.0619525,2.92759502 13.4975685,4.02662349 13.7787177,5.45426964 C13.923923,6.18990966 13.9980141,6.91770922 14,7.61755582 C14.0003295,7.76243395 13.9364921,7.91787967 13.7562258,7.919925 C13.5415601,7.919925 13.5167528,7.68232487 13.5137759,7.60971536 C13.4486154,5.82106698 13.1357129,4.39648884 12.5294228,3.12667462 C12.193036,2.42239645 11.7775966,1.86504176 11.2599513,1.4225669 C10.576924,0.839304585 9.78838303,0.530117607 8.91516655,0.504209988 C8.74548471,0.499096642 8.57745669,0.496369524 8.41439013,0.496369524 C7.08538111,0.496369524 5.92473087,0.667155275 4.86595589,1.01895347 C2.84068903,1.691188 1.51399536,3.1604227 0.922589653,5.38540992 C0.639125061,6.45137208 0.507481061,7.59778422 0.495573564,9.10144878 C0.46580482,10.4073973 0.645409573,11.6847111 1.02942637,12.8982785 C1.39988184,14.0678711 1.97144172,15.2132606 2.72789857,16.3027442 L2.99614803,16.6886313 C3.50916271,17.425294 4.03937711,18.1868417 4.53353825,18.9517982 C5.03332238,19.7256179 5.33398669,20.5328447 5.42726209,21.3513209 C5.46066923,21.6431225 5.46596146,21.9506051 5.47158444,22.2478609 L5.47224597,22.2983126 C5.48646881,23.0775865 5.52053749,23.9819669 5.74975681,24.8525993 C5.85394741,25.2480314 5.99650662,25.6298279 6.17379603,25.9870803 C6.48603707,26.6167036 7.00004404,27.0578149 7.6595871,27.2626896 C8.18384775,27.4256349 8.70413923,27.5084711 9.20656947,27.5084711 L9.20690024,27.5084711 C9.68485395,27.5084711 10.1585077,27.4334754 10.6143003,27.2858701 C10.9014033,27.1928072 11.1610529,27.0445202 11.4121026,26.9010056 L11.433933,26.8883927 C11.5007473,26.8502131 11.5682231,26.8301006 11.6290837,26.8301006 C11.7137592,26.8301006 11.7775966,26.8672575 11.8245651,26.9436168 C11.8993177,27.0659963 11.8533415,27.2122379 11.7101208,27.308028 C11.1197074,27.7031191 10.4555336,27.929129 9.73612235,27.9799216 C9.54857926,27.9932163 9.36467458,28.0000341 9.19069281,28.0000341" id="Fill-1" fill="#000000" mask="url(#mask-2)"></path>
                </g>
                <path d="M9.84361546,11.4714785 C9.81607493,11.4714785 9.78853439,11.4721683 9.76195458,11.473893 C9.23932493,11.5049368 8.83902649,11.8246885 8.53800206,12.4510844 C8.15499651,13.2482214 7.927627,14.0022421 7.84212325,14.7566076 C7.76270404,15.4619928 7.82386964,16.0207821 8.03554746,16.5154141 C8.31735756,17.1731988 8.80540142,17.4929505 9.52721957,17.4929505 L9.55155772,17.4929505 L9.55764225,17.4926055 C10.1878721,17.4570776 10.8107365,17.162161 11.3589852,16.6402794 C11.4822772,16.5233476 11.5213463,16.3215625 11.4966879,16.1825551 C11.451214,15.9273057 11.3996556,15.6951666 11.3400912,15.4723408 C11.3032637,15.3336783 11.2011075,15.1977752 11.0800573,15.1260294 C10.9945535,15.0749795 10.9084093,15.0335877 10.8254675,14.9928858 C10.7431661,14.9528737 10.6650279,14.9152762 10.5952158,14.8721597 C10.3156474,14.7007287 10.1369542,14.4547924 10.0914803,14.1798819 C10.0466468,13.9056612 10.1359934,13.6093649 10.3435082,13.3458371 C10.4200452,13.2482214 10.517718,13.1592291 10.6214754,13.0647178 C10.6925684,12.9995257 10.7662233,12.932264 10.8376366,12.8584487 C10.917376,12.7756651 11.0060821,12.6169965 10.9945535,12.443151 C10.9846261,12.2979347 10.9606082,12.1454749 10.917376,11.9495537 C10.8914367,11.8340016 10.796646,11.6284224 10.6045027,11.5915147 C10.545899,11.5804769 10.4876156,11.5677144 10.4254893,11.5542621 C10.2387901,11.5135601 10.0460064,11.4714785 9.84361546,11.4714785 M9.46349206,18 C8.50597818,18 7.80881842,17.4412107 7.50106898,16.4264218 C7.30123999,15.7676023 7.28330662,15.0494546 7.44630815,14.2312767 C7.64645737,13.2258009 7.93307105,12.4624671 8.34938143,11.8291726 C8.739112,11.2355452 9.24348803,10.9471823 9.89101079,10.9471823 C10.0370397,10.9471823 10.1920352,10.9623593 10.3515141,10.9920235 C10.3889821,10.999267 10.42645,11.0054758 10.4728846,11.0130643 L10.5513431,11.0261717 L10.9016843,11.0861898 L10.8747842,10.7050403 C10.8392377,10.1976458 10.9493999,9.72233001 11.0656465,9.21941965 C11.1184859,8.99141982 11.1732468,8.75548657 11.2129564,8.51644893 C11.3871663,7.47544518 11.2991006,6.44237485 10.9439558,5.35859958 C10.7806341,4.8598284 10.5683158,4.27827362 10.2349472,3.74914845 C9.91374775,3.23933946 9.44395749,2.64157289 8.65520944,2.54188764 C8.5027758,2.52257147 8.34265642,2.51325831 8.16588463,2.51325831 C7.89208049,2.51325831 7.62019779,2.53567887 7.34223055,2.56085888 C6.53843128,2.63363946 5.87265491,2.86784806 5.30743351,3.27693701 C4.62596544,3.76984435 4.15137161,4.488337 3.855471,5.47415168 C3.66140632,6.12055362 3.44460468,7.0987798 3.48879763,8.9410598 C3.51569769,10.0596732 3.65308011,10.9482171 3.92079971,11.7377657 C4.10653819,12.2858621 4.35696489,12.745656 4.68617033,13.1433622 C4.75213951,13.2226965 4.78544434,13.3092744 4.780961,13.3872289 C4.77775861,13.4479369 4.75085856,13.502781 4.70154179,13.5490019 C4.6586298,13.5897038 4.6115547,13.6103997 4.56191769,13.6103997 C4.4834592,13.6103997 4.39987688,13.5614194 4.32654221,13.472772 C3.74947198,12.7756651 3.37895574,11.897814 3.19417798,10.7895486 C2.91909289,9.13870564 2.93638578,7.5182167 3.24541618,5.9732678 C3.43499752,5.02539559 3.76324224,4.25964731 4.24872419,3.63256155 C4.89144337,2.80196611 5.75160466,2.30767904 6.87756412,2.12176088 C7.32077456,2.04829043 7.79953149,2.00862329 8.3416957,2.00034493 C8.35450525,2 8.36763504,2 8.38044459,2 C9.16214739,2 9.8183166,2.3649377 10.3857797,3.11550899 C10.9698952,3.88712111 11.2840494,4.81360755 11.514301,5.61764325 C11.8553553,6.80869228 11.8595184,8.02492131 11.5267903,9.33531669 C11.2683577,10.3525202 11.2638743,11.4042168 11.5120594,12.5500798 C11.551769,12.7339283 11.5194249,12.8698314 11.4038187,13.0046997 C11.3445745,13.0733411 11.2725208,13.1381882 11.1956635,13.2068296 L11.152111,13.2458069 C11.1130419,13.28099 11.0714108,13.3154831 11.0275381,13.3520459 C10.9577261,13.4099944 10.8853521,13.4696676 10.8148996,13.5396887 C10.7239518,13.6300608 10.5343705,13.8183935 10.5695967,14.0712284 C10.6045027,14.3233734 10.8341139,14.4427198 10.9445963,14.5003234 C11.0006381,14.5296426 11.0573203,14.5582719 11.1136824,14.5869012 C11.2683577,14.6655456 11.4147068,14.7397059 11.5546511,14.8245591 C11.6654537,14.8925107 11.7317432,14.9980598 11.7624861,15.1567283 C11.791948,15.3084983 11.8252529,15.4602682 11.8572767,15.6072091 C11.9049923,15.8258957 11.9504662,16.0325098 11.985052,16.2429181 C12.0334081,16.5350752 11.9655174,16.7513474 11.7656885,16.9445091 C11.0630846,17.6233346 10.341907,17.9682663 9.56116488,17.9982753 C9.52850053,17.9993101 9.49583617,18 9.46349206,18" id="Fill-4" fill="#000000"></path>
            </g>
        </g>
    </g>
</svg>