<?xml version="1.0" encoding="UTF-8"?>
<svg width="18px" height="18px" viewBox="0 0 18 18" version="1.1" xmlns="http://www.w3.org/2000/svg" xmlns:xlink="http://www.w3.org/1999/xlink">
    <title>1753235D-C744-4C29-90B7-7EB10C47DB92</title>
    <g id="Mobile-app" stroke="none" stroke-width="1" fill="none" fill-rule="evenodd">
        <g id="Patient-Information-" transform="translate(-223, -315)" fill="#6E747C" fill-rule="nonzero">
            <g id="8686228_ic_fluent_signature_filled_icon" transform="translate(223, 315)">
                <path d="M11.2741059,0.808281374 C12.3480232,-0.269429006 14.0892859,-0.269429006 15.1633157,0.808292663 C16.2372331,1.88600304 16.2372331,3.63332418 15.1633157,4.71103456 L13.7328884,6.14640503 L13.8294127,6.24326519 C14.7080314,7.12499744 14.7080314,8.55456533 13.8294127,9.43634274 L12.2102117,11.0611775 C11.9905008,11.2816529 11.6343283,11.2816529 11.4146174,11.0611775 C11.195019,10.8407022 11.195019,10.4834033 11.4146174,10.2629279 L13.0339309,8.63803666 C13.4732402,8.19717618 13.4732402,7.48238659 13.0339309,7.04152611 L12.9374066,6.94466595 L5.46021479,14.4478964 C5.3881253,14.5201464 5.2977997,14.5715116 5.19890165,14.5963476 L0.698933689,15.7252538 C0.499765107,15.7751515 0.289279105,15.7122714 0.149791349,15.5611109 C0.0103035918,15.4099503 -0.0360460782,15.194555 0.0288772095,14.9991413 L1.4351172,10.7657428 C1.46273575,10.6826553 1.50925417,10.6070186 1.57100498,10.5451545 L11.2741059,0.808281374 Z" id="Path"></path>
                <path d="M1.42693851,16.7631703 C1.40755489,16.7489461 1.38836253,16.7348347 1.36937267,16.7207234 L2.88671686,16.3400562 C3.49194005,16.6453125 4.22320735,16.8710937 5.06245137,16.8710937 C5.63283356,16.8710937 6.203092,16.6707129 6.78799784,16.3364437 C7.3754124,16.0008199 7.94011338,15.5526441 8.50460061,15.0925019 L8.65100707,14.9728378 C9.15147101,14.5637222 9.66581735,14.1433175 10.1557514,13.8536401 C10.6865226,13.5398042 11.3294555,13.2923479 11.9902758,13.5135007 C12.9143442,13.8225952 13.2062796,14.6760483 13.4762777,15.5803023 C13.5379273,15.787005 13.643789,15.9911113 13.7691131,16.1324503 C13.8937622,16.2729992 13.9938865,16.3067535 14.0623985,16.3067535 C14.2726595,16.3067535 14.5752824,16.1918308 14.9594672,15.9644691 C15.2021279,15.8208722 15.4129514,15.6746788 15.6209624,15.5302917 C15.7480865,15.4421242 15.8745356,15.354521 16.0062722,15.2687241 C16.3639072,15.0360566 16.67238,14.8807191 16.8961409,14.7822784 C17.0080776,14.7330581 17.0990894,14.6979491 17.164564,14.674355 C17.1973012,14.6626144 17.2237385,14.653696 17.2433134,14.6473741 L17.2673882,14.6396976 L17.2754882,14.6373269 L17.2784131,14.6364237 L17.2797631,14.6360851 L17.4373745,15.1778472 C17.2807756,14.6357464 17.2798756,14.6359722 17.2797631,14.6360851 C17.578111,14.5492722 17.8911963,14.7213175 17.9775957,15.0207034 C18.0638826,15.3192991 17.8933338,15.6314417 17.5965609,15.7192706 L17.5887984,15.7216413 C17.580361,15.7244636 17.5651736,15.7294308 17.5440238,15.7371074 C17.5014991,15.7523476 17.434787,15.7779738 17.3479377,15.8161308 C17.1740139,15.8926706 16.9199907,16.0196726 16.6184928,16.2158765 C16.5387309,16.2678062 16.4369191,16.3380242 16.321945,16.4173863 C16.0880591,16.5788199 15.7993862,16.777959 15.5309631,16.936909 C15.123491,17.1780433 14.5958697,17.4356598 14.0623985,17.4356598 C13.5684146,17.4356598 13.1859173,17.1729633 12.9288566,16.8830601 C12.6722459,16.5938343 12.4968597,16.2336003 12.3985354,15.9042984 C12.103225,14.9149249 11.9327887,14.6841765 11.6345533,14.5843812 C11.4515171,14.5231944 11.1805066,14.5579648 10.7269098,14.8261929 C10.3146002,15.0700366 9.86741591,15.4351249 9.34564463,15.8611742 L9.21402056,15.968646 C8.6534933,16.4256273 8.02290154,16.9299097 7.34468887,17.3174633 C6.66397872,17.7064844 5.89832042,18 5.06245137,18 C3.50123249,18 2.26249256,17.3728926 1.42693851,16.7631703 Z" id="Path"></path>
            </g>
        </g>
    </g>
</svg>