<?xml version="1.0" encoding="UTF-8"?>
<svg width="34px" height="25px" viewBox="0 0 34 25" version="1.1" xmlns="http://www.w3.org/2000/svg" xmlns:xlink="http://www.w3.org/1999/xlink">
    <title>F376287B-CEAC-40D8-B595-AFE58CFA882E</title>
    <defs>
        <polygon id="path-1" points="0 0 34 0 34 25 0 25"></polygon>
    </defs>
    <g id="Mobile-app" stroke="none" stroke-width="1" fill="none" fill-rule="evenodd">
        <g id="Patient-Information-" transform="translate(-211, -242)">
            <g id="Group-3" transform="translate(211, 242)">
                <mask id="mask-2" fill="white">
                    <use xlink:href="#path-1"></use>
                </mask>
                <g id="Clip-2"></g>
                <path d="M21.1412433,3.39389704 C20.5863989,3.39447939 20.1164552,3.85627766 20.1134567,4.40193338 C20.1110742,4.94875379 20.5798221,5.41288143 21.1358623,5.41579315 L21.1406454,5.41579315 C21.7062519,5.41579315 22.168423,4.96855346 22.1714222,4.41882134 C22.1726083,4.1416259 22.0637918,3.88190077 21.8652914,3.68739809 C21.6721721,3.4981365 21.4150782,3.39389704 21.143037,3.39389704 L21.1412433,3.39389704 Z M15.8899517,19.5143256 L16.2433063,19.4252271 C16.4848549,19.3640811 16.7383614,19.3332169 16.9966511,19.3332169 C17.2519513,19.3332169 17.5162198,19.3629164 17.7798905,19.4223154 L18.1260704,19.4997671 L18.8596848,16.6695784 L18.2079817,16.9106685 C17.8151662,17.0562544 17.4127844,17.130212 17.0110005,17.130212 C16.6110103,17.130212 16.2038453,17.0568367 15.8008657,16.9124156 L15.1551415,16.6812253 L15.8899517,19.5143256 Z M7.23007368,15.8478919 C7.09853728,15.8525507 6.93949782,15.8566271 6.76132579,15.8624505 C6.26806431,15.8770091 5.65462639,15.8944794 5.02923062,15.9282553 C3.65228371,16.0022129 2.53123488,16.1373166 1.50046785,16.3527836 C0.869093147,16.4849755 0.556395261,16.9060098 0.621565566,17.5384347 L0.658037021,17.8965758 C0.726794683,18.5639413 0.798541808,19.2546005 0.846971117,19.9318658 C0.931871882,21.1285814 1.34501574,22.0865362 2.10852473,22.8610529 C2.56531476,23.3240158 3.30729961,23.8952947 5.00471701,24.204519 C5.95177906,24.3768926 6.89824322,24.4001863 7.69882156,24.4001863 C7.77953708,24.4001863 7.86085048,24.399604 7.94216389,24.399604 C8.19806197,24.397857 8.45396005,24.3972746 8.70985813,24.3961099 C9.55647421,24.3943629 10.4311912,24.3914512 11.2939504,24.362334 C12.182419,24.3326345 12.901086,23.9110179 13.3178172,23.1761006 C13.5551806,22.7579781 13.7734115,22.3264617 13.9844676,21.9089215 C14.1417134,21.5991148 14.3037423,21.2782437 14.4705544,20.970184 C14.5769793,20.7721873 14.7049283,20.5829257 14.8412479,20.3820172 C14.9100055,20.2795248 14.9817526,20.1735383 15.0505103,20.0658048 L15.0624682,20.0477522 C15.1108975,19.9743769 15.1922109,19.8520848 15.1814488,19.689611 C15.1144848,18.6221756 14.8555973,17.7329373 14.3910346,16.9700676 C14.2122647,16.6771488 13.9025563,16.2852318 13.2717795,16.2665968 C13.2161755,16.2654321 13.1468199,16.2502912 13.0726812,16.2345679 C13.018273,16.2235034 12.9614732,16.2112742 12.9004881,16.2019567 C10.9950041,15.9119497 9.0566359,15.8601211 7.24621678,15.8473096 L7.23784628,15.8473096 L7.23007368,15.8478919 Z M26.3303542,15.8490566 C24.4655268,15.8694386 22.4619883,15.9399022 20.4435025,16.3172607 C20.1696677,16.3685069 19.9681778,16.4913813 19.8103342,16.7039366 C19.2255951,17.4924295 18.9146909,18.4352434 18.8315838,19.6703937 C18.8208217,19.8340321 18.9021351,19.9569066 18.9511623,20.0302819 L18.9631202,20.0489168 C19.0282905,20.1496622 19.0952545,20.2486606 19.1604248,20.3447473 C19.2859823,20.5281854 19.4049629,20.7023061 19.5024194,20.8828325 C19.6781999,21.2089448 19.850393,21.5449569 20.0166071,21.8710692 C20.251579,22.3282087 20.4937255,22.8010715 20.7526131,23.2593757 C21.0521573,23.7893082 21.5747155,24.1532728 22.2246249,24.2854647 C22.5905353,24.3594223 22.9355194,24.3984393 23.2512067,24.4019334 C23.6207044,24.4054274 24.012922,24.4071745 24.4499816,24.4071745 C25.0341228,24.4071745 25.6272323,24.4042628 26.2006114,24.4007687 L26.5402145,24.3990217 C27.4717313,24.3943629 28.6932261,24.3448637 29.8872179,24.0018635 C31.636054,23.4993012 32.7272082,22.3596553 33.0428956,20.7063825 C33.2001414,19.882949 33.2647138,19.0385511 33.3274925,18.2221058 C33.3484188,17.9437456 33.3705408,17.656068 33.3962502,17.3747962 C33.4387006,16.899604 33.0996954,16.4762404 32.589095,16.3673422 C32.3015086,16.3061961 32.0037581,16.2520382 31.6791023,16.2019567 C29.8238412,15.9142791 27.9380876,15.8624505 26.336931,15.8490566 L26.3339415,15.8490566 L26.3303542,15.8490566 Z M24.7387638,25 C24.1994645,25 23.6476096,24.9970883 23.099342,24.9918472 C22.2993615,24.9836944 21.6895109,24.8293734 21.1819,24.5061728 C20.7107606,24.206266 20.3998564,23.8982064 20.2037476,23.5371535 C19.8157152,22.8237829 19.3631104,21.9770557 18.9493687,21.1035406 C18.5846541,20.3325181 17.9263742,19.9382716 16.9930637,19.9318658 L16.9733333,19.9318658 C16.0992141,19.9318658 15.4415321,20.3336827 15.0708387,21.0936408 L14.9650116,21.3091078 C14.6086676,22.0399488 14.2403657,22.7952481 13.8248303,23.5004659 C13.2903142,24.4071745 12.4419044,24.9085721 11.3716765,24.9499185 C10.4509217,24.9854414 9.54272267,24.9901002 8.77443054,24.9901002 C8.45993898,24.9901002 8.14484952,24.9895178 7.82976006,24.9889355 C7.58581984,24.9877708 7.34187961,24.9871884 7.09793939,24.9866061 C6.18435933,24.9860238 5.27855187,24.886443 4.40383484,24.6907757 C3.39220038,24.4654088 2.55156323,24.067086 1.90404543,23.5080363 C1.23739506,22.9315164 0.752504069,22.1628232 0.464319783,21.2240857 C0.341153885,20.8240158 0.296311932,20.3959935 0.248480516,19.9429304 C0.234728983,19.8188912 0.221575344,19.6901933 0.206030133,19.5632425 C0.130695652,18.936641 0.0774832008,18.3042162 0.0200855008,17.6019101 C0.00992132473,17.4842767 0.0164981445,17.3579082 0.0224770716,17.2245516 C0.0254665352,17.169229 0.027858106,17.1144887 0.0290538914,17.0591661 C0.0398159602,17.0119963 0.0529695998,16.9275565 0.0194876081,16.8320522 C-0.033724843,16.6818076 0.0272602133,16.5432099 0.13906615,16.3096902 C0.160590287,16.2654321 0.181516532,16.2205917 0.202442777,16.1763336 L1.80898049,12.6240391 C3.24751034,9.44153273 4.68663809,6.25960867 6.12696163,3.07826695 C6.84383499,1.49487538 8.07429818,0.547985092 9.78427133,0.263801537 C10.2201351,0.191590962 10.6613799,0.163056138 11.1271384,0.132774284 C11.3202577,0.120545073 11.5205518,0.10773352 11.7178563,0.0914279059 C12.1381749,0.0564873049 12.5483293,0.0262054507 12.9363617,0.0011646867 C12.9477217,0.00058234335 12.9590816,0 12.9704416,0 C13.1557883,0 13.2843352,0.101910086 13.2992826,0.259142791 C13.3064573,0.344747263 13.2843352,0.421034242 13.2341123,0.479268577 C13.1791061,0.543326345 13.0948033,0.581761006 12.990172,0.5910785 C12.1931811,0.659212672 11.335205,0.725599814 10.3660209,0.795481016 C9.52897114,0.855462381 8.80013993,1.08199394 8.20045354,1.46925227 C7.57804723,1.87106918 7.09255835,2.4475891 6.75594476,3.18134172 C5.44715762,6.03773585 4.13358734,8.94828791 2.86246744,11.7627533 C2.36143335,12.8726997 1.86039926,13.9832285 1.35816938,15.0925926 C1.34920099,15.1123923 1.34142839,15.1321919 1.32827475,15.1648032 C1.32349161,15.1787794 1.31691479,15.1962497 1.3073485,15.2189611 L1.08254084,15.7896576 L1.70255558,15.695318 C1.80180577,15.680177 1.89746861,15.6650361 1.99193565,15.6504775 C2.18864236,15.6201957 2.3733912,15.5910785 2.55873794,15.5654554 C4.07200439,15.3552294 5.70006623,15.2573958 7.68208056,15.2573958 L7.68865738,15.2573958 C9.3765085,15.2573958 10.9262464,15.3459119 12.4257613,15.5270207 C13.4511473,15.6504775 14.5482804,15.9020498 15.8779938,16.3184253 C15.9987681,16.3562777 16.1195425,16.3865595 16.2349358,16.4150943 C16.2899419,16.4290706 16.3443501,16.4424645 16.3981605,16.4570231 C16.584703,16.5059399 16.7808118,16.5309807 16.9811059,16.5309807 C17.2525492,16.5309807 17.5323629,16.4878873 17.8623997,16.3952947 C18.0830221,16.3335663 18.3060361,16.2677615 18.5206796,16.2048684 C18.964316,16.0738411 19.4228997,15.9387375 19.8755045,15.8339157 C21.270986,15.5095504 22.7597389,15.3365945 24.4272617,15.3051479 C24.9886829,15.2946657 25.5465168,15.2894246 26.0864139,15.2894246 C27.1381072,15.2894246 28.1706679,15.3092243 29.1559951,15.349406 C29.8316139,15.3767761 30.5233757,15.4670394 31.1930156,15.5549732 C31.4991366,15.5945726 31.8154219,15.6359189 32.1281197,15.6714419 C32.1616017,15.6749359 32.9071739,15.756464 32.9071739,15.756464 L32.6955199,15.2148847 C32.6865515,15.191591 32.678181,15.1700443 32.6704084,15.1496622 C32.6530695,15.1030748 32.6369264,15.0588167 32.6154023,15.0122292 C32.4025525,14.5411134 32.1897027,14.0694153 31.976255,13.5982996 C31.3084088,12.1214768 30.6178428,10.5939902 29.942224,9.08979734 C29.7879677,8.74563242 29.512937,8.69788027 29.3192198,8.69205684 C29.2163823,8.68914512 29.1129468,8.68681575 29.0095114,8.68506872 C28.4947258,8.67516888 28.0080411,8.66526904 27.5500553,8.51502446 C26.5240714,8.17843 25.8305158,7.54484044 25.4281341,6.57698579 C25.4149804,6.54670394 25.4018268,6.51583974 25.3886731,6.48555788 C25.361768,6.42441183 25.3366565,6.36675984 25.3199155,6.31493128 C25.2768672,6.17749825 25.3545933,6.02201258 25.4962938,5.95970184 C25.5309716,5.94456091 25.5680409,5.93699045 25.6075019,5.93699045 C25.7091436,5.93699045 25.8036107,5.98648963 25.8544316,6.06568833 C25.896284,6.13149313 25.9327555,6.21535057 25.9704227,6.3044491 C25.9835764,6.33298393 25.9955342,6.36268344 26.0086879,6.39121826 C26.4708589,7.42895411 27.2905698,7.99266247 28.4445028,8.06545539 C28.4983131,8.06894945 28.5539171,8.07069648 28.6220769,8.07069648 C28.6675167,8.07069648 28.7141524,8.0695318 28.7619838,8.06894945 C28.8086194,8.06836711 28.8576466,8.06720242 28.9084675,8.06720242 L29.4411899,8.06720242 L29.2462769,7.58443979 C29.2373085,7.56289308 29.2295359,7.54251106 29.2217633,7.52271139 C29.2044244,7.47787095 29.1864876,7.43186583 29.1649635,7.38469602 C28.9861936,6.98928488 28.8074236,6.59387375 28.6286537,6.19788027 C28.1969752,5.23934312 27.7497514,4.24819474 27.3025277,3.27568134 C26.6006017,1.74935942 25.3647574,0.914861402 23.6302707,0.794898672 C22.7752841,0.736081994 22.0829243,0.681341719 21.4515496,0.623107384 C21.4007288,0.617866294 21.3487121,0.615536921 21.2978912,0.615536921 C20.4560583,0.615536921 19.7403807,1.24446774 19.6698294,2.04693687 C19.6542842,2.22222222 19.6698294,2.38993711 19.6835809,2.53843466 C19.6889619,2.596669 19.6937451,2.65199161 19.6967345,2.70265549 L19.7200524,3.13242488 L20.1487414,3.02643839 C20.26832,2.99673888 20.379528,2.96470999 20.4865508,2.9338458 C20.6934217,2.87386443 20.8715937,2.82261822 21.0401995,2.80922432 C21.0844435,2.80573026 21.1292855,2.80398323 21.1741274,2.80398323 C21.8491483,2.80398323 22.4231253,3.20055905 22.6724466,3.8393897 C22.7681094,4.08397391 22.9498688,4.22257163 23.2129416,4.25227114 C23.3731768,4.26974144 23.5358036,4.29944095 23.7014199,4.33030515 C23.8652425,4.360587 23.9632969,4.496273 23.9453601,4.6668996 C23.9310107,4.80666201 23.8060511,4.9167249 23.661959,4.9167249 L23.6553822,4.9167249 C23.5322163,4.91381318 23.3964946,4.88644305 23.2535983,4.85732588 L23.2458257,4.85557885 C23.1920153,4.84451433 23.1429881,4.83927324 23.0951567,4.83927324 C22.9438898,4.83927324 22.7316379,4.8951782 22.5851542,5.16189145 C22.2993615,5.68017703 21.7439192,6.01502446 21.1699422,6.01502446 C21.1119466,6.01502446 21.053951,6.0115304 20.9965533,6.00454228 C20.2557642,5.9148614 19.721846,5.4687864 19.5687855,4.81015607 C19.5341077,4.66107617 19.5400867,4.48462614 19.5460656,4.29769392 C19.5496529,4.1899604 19.5532403,4.07873282 19.549055,3.96459352 L19.5484572,3.94421151 C19.5454677,3.83822502 19.5406846,3.67691591 19.4438259,3.53365945 C19.0276926,2.91812253 18.9278445,2.17971116 19.1687953,1.50826928 C19.4121376,0.831586303 19.9675799,0.311553692 20.6940196,0.0809457256 C20.830937,0.0372699744 20.9786165,0.0168879571 21.1573864,0.0168879571 C21.2931081,0.0168879571 21.4318192,0.0279524808 21.5789008,0.0395993478 L21.6638016,0.0460051246 C21.895186,0.0640577685 22.1301579,0.0797810389 22.3573571,0.0955043093 C22.9032331,0.13219194 23.4682418,0.170626601 24.0141178,0.23817843 C25.8125791,0.459468903 27.0980484,1.38423014 27.8340543,2.9862567 C28.8899328,5.28360121 29.947605,7.62695085 30.9700016,9.89284882 C31.4016801,10.8484743 31.8327608,11.8040997 32.2650372,12.7591428 L32.717642,13.7590263 C33.1164364,14.6401118 33.5146329,15.520615 33.9152211,16.4011181 C33.9941429,16.5746564 34.0150691,16.6986956 33.9899576,16.8425344 C33.960063,17.018402 33.9726188,17.1884463 33.9833808,17.3386909 C33.9905555,17.4336129 33.9971324,17.5227114 33.9923492,17.6024924 C33.9750103,17.9140461 33.9403325,18.2337526 33.9080463,18.5429769 L33.8889138,18.7200093 C33.8667917,18.934894 33.8494529,19.1521081 33.8327119,19.3617517 C33.792653,19.8526671 33.7555837,20.3162124 33.659323,20.7698579 C33.4512563,21.7493594 33.040504,22.5658048 32.439024,23.197065 C31.8399355,23.8254135 31.0327803,24.2895411 30.0408763,24.5772187 C29.1613761,24.8322851 28.2190972,24.9644771 27.1584356,24.981365 C26.3656298,24.9935942 25.5513,25 24.7387638,25 L24.7387638,25 Z" id="Fill-1" fill="#000000" mask="url(#mask-2)"></path>
            </g>
        </g>
    </g>
</svg>