<?xml version="1.0" encoding="UTF-8"?>
<svg width="29px" height="25px" viewBox="0 0 29 25" version="1.1" xmlns="http://www.w3.org/2000/svg" xmlns:xlink="http://www.w3.org/1999/xlink">
    <title>A49F7D28-2672-4AC5-9F6F-DE435B972C7C</title>
    <defs>
        <polygon id="path-1" points="0 0 21.7736269 0 21.7736269 25 0 25"></polygon>
        <polygon id="path-3" points="0 0 15.7138908 0 15.7138908 8.05926392 0 8.05926392"></polygon>
    </defs>
    <g id="Mobile-app" stroke="none" stroke-width="1" fill="none" fill-rule="evenodd">
        <g id="Patient-Information-" transform="translate(-79, -802)">
            <g id="Group-7-Copy-3" transform="translate(79, 802)">
                <g id="Group-3" transform="translate(7.2264, 0)">
                    <mask id="mask-2" fill="white">
                        <use xlink:href="#path-1"></use>
                    </mask>
                    <g id="Clip-2"></g>
                    <path d="M1.63635407,25 C1.51899145,24.9705108 1.39927486,24.9474324 1.2846025,24.9105709 C0.550497649,24.6749781 0.0601976613,24.0579495 0.0484277714,23.3152713 C0.0302685126,22.1504494 0.0285870997,20.9856274 0.0238791437,19.8204849 C0.0225340135,19.5095666 0.268692855,19.2643578 0.581435645,19.2467284 C0.913346542,19.2281374 1.17598323,19.4323178 1.22373535,19.7490058 C1.23281498,19.8063814 1.23281498,19.8653598 1.23315127,19.923697 C1.23785922,21.0167192 1.24323974,22.1097415 1.24626629,23.2027637 C1.24693885,23.4117521 1.30612458,23.5925335 1.4833455,23.7268374 C1.6165134,23.8278058 1.77120338,23.8473584 1.93631812,23.8470378 C4.11139378,23.8457557 6.28680573,23.8460762 8.46255396,23.8460762 C12.24237,23.8460762 16.0221861,23.8463968 19.8020022,23.8454352 C19.905241,23.8454352 20.0121788,23.8486405 20.1110459,23.8262031 C20.3871339,23.7640194 20.5566203,23.5396454 20.5576292,23.2437921 C20.5593106,22.3129603 20.558638,21.3818079 20.558638,20.4506555 C20.558638,16.6407839 20.5572929,12.8312328 20.5613283,9.02136112 C20.5613283,8.76621575 20.4718771,8.577421 20.2657359,8.414269 C17.2886263,6.05962344 14.3148795,3.70081093 11.3397876,1.34360109 C11.0166201,1.08717359 10.7489392,1.08621199 10.4277893,1.34071628 C7.44294521,3.70786269 4.4584374,6.07532962 1.47325702,8.44215549 C1.29536354,8.58287008 1.22777074,8.75980506 1.22743446,8.97584524 C1.22407164,10.2756121 1.21734599,11.5756996 1.20961149,12.8754665 C1.20793007,13.2370293 0.942266843,13.4915336 0.583117058,13.4812765 C0.24582564,13.4716605 -0.00100576645,13.2197204 0,12.8738638 C0.00235705925,12.0465646 0.0100915584,11.2189448 0.0147995143,10.3913251 C0.0178260575,9.91469044 0.0218614483,9.43773528 0.0198437529,8.96078012 C0.0178260575,8.38413877 0.250533596,7.9145559 0.713930978,7.54690297 C3.31070498,5.48746957 5.90714271,3.42803617 8.50391671,1.36828224 C8.88122576,1.06922366 9.25819852,0.769844552 9.63517128,0.470785975 C10.427453,-0.158423014 11.3391151,-0.155858739 12.1310605,0.472068113 C15.0799224,2.81036642 18.0277754,5.1493058 20.9803363,7.48279609 C21.3936276,7.80910009 21.6845121,8.19213867 21.7514323,8.70851956 C21.7648836,8.81077003 21.7679101,8.9149437 21.7679101,9.01815577 C21.768919,13.7364219 21.7625296,18.4546879 21.773634,23.172954 C21.7763172,24.2053953 21.0065664,24.8919799 20.2179838,24.9794858 C20.2055413,24.9807679 20.1947803,24.9929482 20.1830104,25 L1.63635407,25 Z" id="Fill-1" fill="#FFFFFF" mask="url(#mask-2)"></path>
                </g>
                <g id="Group-6" transform="translate(0, 12.3337)">
                    <mask id="mask-4" fill="white">
                        <use xlink:href="#path-3"></use>
                    </mask>
                    <g id="Clip-5"></g>
                    <path d="M-0.000168141285,3.89469305 C0.00857520554,3.88507702 0.0206813781,3.87642259 0.025389334,3.86552442 C0.154858124,3.56935066 0.329052495,3.45652255 0.66600763,3.45652255 C2.71396848,3.45588148 4.76192933,3.45620202 6.81022647,3.45620202 L13.4212055,3.45620202 L13.6404618,3.45620202 C13.5809397,3.39690316 13.5483203,3.36260598 13.5140195,3.32991147 C12.6998794,2.5535772 11.8843942,1.7788456 11.0719355,1.0012292 C10.7259007,0.670117181 10.8577235,0.141555987 11.3157403,0.0226377318 C11.554501,-0.0392254037 11.7596333,0.0280868162 11.934164,0.195405763 C12.5902513,0.823332615 13.2483563,1.44933626 13.9064613,2.07533991 C14.4401417,2.58402797 14.974831,3.0923955 15.5098566,3.60044249 C15.7775375,3.85462625 15.7832543,4.19823911 15.5185999,4.45017913 C14.3271508,5.58551191 13.1343565,6.71924202 11.9439162,7.85521586 C11.7569431,8.03375351 11.5427311,8.10619428 11.2878289,8.02798389 C10.8873163,7.90489869 10.7433874,7.44012384 11.0060241,7.12696175 C11.0413338,7.08497174 11.0826965,7.04746922 11.1223779,7.00932563 C11.9166773,6.25222342 12.7109767,5.49544175 13.5049399,4.73833954 C13.5412584,4.70372183 13.5758955,4.66782198 13.6404618,4.60339457 L13.4494533,4.60339457 C9.22608045,4.60339457 5.00237137,4.60050976 0.778662291,4.60820258 C0.404716073,4.60916419 0.14006169,4.50402891 -0.000168141285,4.164583 L-0.000168141285,3.89469305 Z" id="Fill-4" fill="#FFFFFF" mask="url(#mask-4)"></path>
                </g>
            </g>
        </g>
    </g>
</svg>