<?xml version="1.0" encoding="UTF-8"?>
<svg width="17px" height="26px" viewBox="0 0 17 26" version="1.1" xmlns="http://www.w3.org/2000/svg" xmlns:xlink="http://www.w3.org/1999/xlink">
    <title>2403316F-DF7C-459B-8746-7FE296A6FF08</title>
    <defs>
        <polygon id="path-1" points="0 0 17 0 17 26 0 26"></polygon>
    </defs>
    <g id="Mobile-app" stroke="none" stroke-width="1" fill="none" fill-rule="evenodd">
        <g id="Patient-Information-" transform="translate(-64, -699)">
            <g id="Group-18" transform="translate(64, 699)">
                <g id="Group-3">
                    <mask id="mask-2" fill="white">
                        <use xlink:href="#path-1"></use>
                    </mask>
                    <g id="Clip-2"></g>
                    <path d="M8.30533395,0.519564958 C6.89459235,0.519564958 5.51705205,0.586685789 4.21092584,0.719062986 C3.39968678,0.801099558 2.45846154,0.908617187 1.5523169,1.14416159 C1.36062644,1.19388072 1.17238139,1.25789411 0.990400737,1.31973228 C0.907397513,1.34801004 0.824707508,1.3762878 0.741391064,1.40301183 L0.621114694,1.44185491 L0.65838784,1.70225887 L0.731994473,1.73644078 C0.748908337,1.74420939 0.765195762,1.7525995 0.781483187,1.7609896 C0.823767849,1.78212023 0.871377246,1.80666906 0.924937817,1.82313852 C0.996038692,1.84582288 1.06713957,1.86881798 1.13792722,1.89212382 C1.33964072,1.95769093 1.54793183,2.02574399 1.76060801,2.0745309 C3.11998158,2.38682921 4.50660525,2.49869726 5.80270843,2.57265448 C6.64996776,2.62144138 7.53199447,2.6459902 8.42435744,2.6459902 C9.04829111,2.6459902 9.6947766,2.63418191 10.3465868,2.61025457 C11.934924,2.55245608 13.2231967,2.43592686 14.3999632,2.24295446 C14.9189682,2.15812119 15.5203501,2.04842835 16.0885306,1.81940959 C16.1352004,1.80076491 16.1784247,1.77776981 16.2282266,1.75166726 C16.2535974,1.73830525 16.281474,1.72370025 16.314362,1.70723079 L16.6141133,1.55620892 L16.3008936,1.43470778 C16.2416951,1.41202343 16.1868816,1.38964981 16.1348871,1.36882993 C16.0296453,1.32625792 15.9303547,1.28617187 15.8288715,1.25354368 C15.0758913,1.0111629 14.2320774,0.854547628 13.173708,0.760081272 C11.8469093,0.642309071 10.765988,0.572702283 9.77276831,0.542249313 C9.27819438,0.527022828 8.78456011,0.519564958 8.30533395,0.519564958 L8.30533395,0.519564958 Z M0.615163519,2.80167324 C0.630511285,3.01546552 0.645859051,3.23081152 0.662459696,3.44584678 C0.690023031,3.81066093 0.717899585,4.17547508 0.74577614,4.54028923 C0.779603869,4.97968208 0.813118379,5.41907494 0.846319668,5.85846779 C0.870124367,6.17480578 0.893615845,6.49145452 0.916794104,6.80810326 C0.94310456,7.1623521 0.969101796,7.51691168 0.996038692,7.87147126 C1.02892676,8.30464922 1.06212805,8.73813792 1.09564256,9.17162663 C1.13385537,9.66167085 1.17175495,10.1520258 1.20871488,10.64207 C1.23784431,11.0286363 1.26603409,11.4152026 1.29453708,11.8017689 C1.32429295,12.210398 1.35404883,12.6190271 1.38505758,13.0273455 C1.41888531,13.4710888 1.45333947,13.9145213 1.48779364,14.3579539 C1.52506679,14.8333931 1.56202672,15.3088323 1.59804698,15.7842715 C1.63250115,16.2432413 1.66601566,16.7019003 1.69953017,17.1608701 C1.73367112,17.625744 1.76749885,18.0906179 1.80257946,18.5554918 C1.84862275,19.1654834 1.89591893,19.7754751 1.94321511,20.3854667 C1.97672962,20.8186447 2.01055735,21.2515119 2.04375864,21.6846899 L2.07132197,22.0445321 C2.13521879,22.8798136 2.20130815,23.7433728 2.26113312,24.5929485 C2.27303547,24.7641688 2.36105021,24.8707542 2.52235836,24.909908 C2.62728696,24.9350783 2.73409489,24.9630453 2.83745739,24.9900801 C3.06736066,25.0500538 3.30478121,25.111892 3.54502073,25.153221 C4.76062644,25.3632843 5.98061723,25.4251225 6.90774758,25.4552647 C7.53042837,25.4757739 8.10142791,25.4857177 8.65269461,25.4857177 C10.2970981,25.4857177 11.7551359,25.3943588 13.1091847,25.2066691 C13.4314878,25.1622326 13.7503455,25.0842357 14.0588669,25.0090355 C14.1963703,24.9754751 14.3385721,24.9409824 14.4779549,24.909908 C14.6427084,24.8735509 14.7322893,24.7616828 14.7441916,24.5780327 C14.7764532,24.0774232 14.8152925,23.5681128 14.8531921,23.0755826 C14.864468,22.9289112 14.8757439,22.7822398 14.8870198,22.6352576 C14.9180286,22.2232102 15.0433164,20.5781284 15.0743252,20.1679455 C15.0990696,19.8438389 15.1235007,19.5197323 15.1479318,19.1956257 C15.1733026,18.8578463 15.1986734,18.5203777 15.2240442,18.1825983 C15.2506679,17.8345644 15.2769784,17.4862197 15.303602,17.137875 C15.3386826,16.6820127 15.3731368,16.2261504 15.407591,15.770288 C15.4326485,15.4390343 15.4570797,15.1077806 15.481824,14.7765268 C15.5065684,14.4412334 15.531626,14.1062507 15.5566836,13.7709573 C15.5895716,13.3349827 15.6230861,12.899008 15.6562874,12.4630333 C15.6854169,12.0811282 15.7145463,11.6992231 15.7433625,11.317318 C15.769673,10.9695948 15.7956702,10.6221824 15.8216674,10.2747699 C15.8451589,9.9602964 15.8686504,9.64613362 15.8924551,9.33197084 C15.9228374,8.92707063 15.9535329,8.52217043 15.9845417,8.11758097 C16.0158637,7.70429067 16.0471856,7.2913111 16.0781944,6.8780208 C16.0994933,6.59835066 16.120479,6.31868053 16.1411515,6.0390104 C16.1693413,5.66145572 16.1975311,5.28421178 16.2263473,4.90665711 C16.2573561,4.49958169 16.288678,4.09281702 16.32,3.6857416 C16.3491294,3.31160512 16.3779456,2.93746863 16.4067619,2.56333214 C16.4092676,2.52759651 16.40269,2.49776503 16.3983049,2.47787738 C16.3973653,2.47352695 16.3964256,2.46886578 16.395486,2.46451536 L16.371368,2.31380423 L16.2200829,2.34083901 C16.2138185,2.34208199 16.2084938,2.34301422 16.2034823,2.34363571 C16.1884477,2.34581092 16.1696545,2.34860763 16.1483556,2.3560655 C15.3170705,2.64101829 14.4030953,2.81689973 13.1843574,2.92628182 C11.9158176,3.04001434 10.7637955,3.1114856 9.66157531,3.14473527 C9.17107324,3.15965101 8.6858959,3.16710888 8.21982497,3.16710888 C6.80344542,3.16710888 5.50107784,3.10092028 4.2388024,2.9651249 C3.54470751,2.89023545 2.82210963,2.79017569 2.02841087,2.65810924 C1.74807923,2.61149755 1.47369876,2.53878332 1.18334408,2.4620294 C1.05241824,2.42722601 0.917420544,2.39149038 0.780543528,2.35824071 L0.579456472,2.30883232 L0.615163519,2.80167324 Z M8.74070935,26 C8.32538001,26 7.88937817,25.9947173 7.36786734,25.9838413 C6.36994933,25.9627106 5.19067711,25.9173419 4.0117181,25.740839 C3.63178259,25.683662 3.24652234,25.6022469 2.87379088,25.5233178 C2.73785352,25.4944185 2.60160295,25.4655193 2.46535237,25.4375523 C2.42150161,25.4288514 2.37389222,25.4092745 2.32315062,25.3887654 C2.29997236,25.3791323 2.27616766,25.36981 2.25267619,25.3607984 C1.9050023,25.2312179 1.74964532,25.0112107 1.73367112,24.6252659 C1.70986642,24.0569141 1.6619438,23.4814151 1.61558729,22.9248715 C1.59554123,22.6849767 1.57486872,22.4373133 1.55638876,22.1936895 C1.53133118,21.8602605 1.50627361,21.5271423 1.48152925,21.1937134 C1.45647167,20.855934 1.43141409,20.5181547 1.40573008,20.180686 C1.37566099,19.7832437 1.34527867,19.3861121 1.31489636,18.9892913 C1.28357439,18.5775547 1.2519392,18.1658181 1.22093045,17.7540815 C1.19555965,17.4197203 1.17081529,17.0850484 1.14607094,16.7506872 C1.12132658,16.418812 1.09658222,16.086626 1.07152464,15.7547508 C1.03801013,15.3106968 1.0041824,14.8666428 0.970354675,14.4228995 C0.942478121,14.0580853 0.914601566,13.6932712 0.886725012,13.3281463 C0.861980654,13 0.837236297,12.671543 0.812805159,12.3433967 C0.787747582,12.0099677 0.762690005,11.676228 0.737319208,11.3427991 C0.708502994,10.9612047 0.679373561,10.5796104 0.650244127,10.198016 C0.616729618,9.76173061 0.583528328,9.32513446 0.550640258,8.88884905 C0.525269461,8.55448787 0.500525104,8.22043743 0.475467526,7.886387 C0.451349608,7.56321262 0.42723169,7.24003825 0.403113772,6.91686387 C0.375237218,6.54801004 0.346734224,6.17915621 0.31854445,5.81030238 C0.284090281,5.35661527 0.249322893,4.90292817 0.215181944,4.44924107 C0.185739291,4.05304171 0.156296637,3.65684236 0.127480424,3.26095375 C0.107121142,2.98594478 0.0870750806,2.71093582 0.0664025795,2.43592686 C0.061391064,2.36787379 0.0573192077,2.29950998 0.0529341317,2.23114617 C0.0425978812,2.06054739 0.0316351912,1.8843552 0.00720405343,1.71002749 C-0.028502994,1.4536632 0.0654629203,1.2613123 0.311653616,1.08667384 C0.642413634,0.852061671 1.02892676,0.741436596 1.42859512,0.640133859 C2.38548135,0.397131588 3.36304007,0.281845345 4.2770152,0.193593881 C5.60600645,0.0649456197 6.95159834,0.0105653161 9.07554123,0 C9.22181483,0.00590414725 9.40504836,0.0124297837 9.61584523,0.0198876539 C10.2191064,0.0407075415 11.04538,0.0699175332 11.8697743,0.122122625 C12.9810778,0.192661647 14.2884569,0.309501613 15.5585629,0.640444604 C15.885251,0.725588622 16.2297927,0.853926138 16.5831046,1.02172822 C16.9104192,1.17710051 17.0397789,1.43222182 16.9896637,1.82376001 C16.9404883,2.20784033 16.9157439,2.59937851 16.8919392,2.97786542 C16.8812897,3.14411378 16.870327,3.31626628 16.857485,3.48468985 C16.8292953,3.85416517 16.8014187,4.22364049 16.7729157,4.59311581 C16.739088,5.03716983 16.704947,5.48122386 16.6714325,5.92527788 C16.6451221,6.27113661 16.6191248,6.61761683 16.5934408,6.96347556 C16.5699493,7.2745309 16.5467711,7.58589698 16.5232796,7.89695231 C16.4960295,8.25461934 16.4687794,8.61197562 16.4418425,8.96995339 C16.4067619,9.43016613 16.371368,9.89068961 16.3369139,10.3512131 C16.3124827,10.6753197 16.288678,10.9994263 16.2648733,11.3238437 C16.2391893,11.6706346 16.2138185,12.0174256 16.1875081,12.3642166 C16.1530539,12.8225648 16.1176601,13.2806024 16.0825795,13.7389506 C16.056269,14.0848094 16.0296453,14.4309788 16.0033349,14.7768376 C15.9767112,15.1298434 15.9500875,15.48316 15.9234638,15.8361659 C15.9002856,16.145046 15.8771073,16.4536154 15.8539291,16.7624955 C15.8294979,17.0803872 15.80538,17.3985897 15.7812621,17.7167922 C15.7430493,18.2167802 15.7048365,18.7164575 15.6672501,19.2164456 C15.6434454,19.5337158 15.6202672,19.8512968 15.5970889,20.168567 C15.5707784,20.5315167 15.5441548,20.8944664 15.5169047,21.2571053 C15.477439,21.7760488 15.4373468,22.2949922 15.3972547,22.8139357 C15.3756426,23.0898769 15.3543436,23.3658181 15.3330447,23.64207 C15.3245877,23.7520736 15.3151912,23.862388 15.306421,23.9723915 C15.2838692,24.2399426 15.2610041,24.5168161 15.2481621,24.7908928 C15.2375127,25.0199116 15.1338369,25.178702 14.9402672,25.2626031 C14.6665131,25.380686 14.3479687,25.5115095 14.0297374,25.5646468 C13.209415,25.7019959 12.4551819,25.8029879 11.7241271,25.873527 C10.8298848,25.9599139 9.88176877,26 8.74070935,26 L8.74070935,26 Z" id="Fill-1" stroke="#FFFFFF" stroke-width="0.45" fill="#FFFFFF" mask="url(#mask-2)"></path>
                </g>
                <path d="M8.00696085,10.234715 C6.59026808,10.234715 5.34897835,10.1449098 4.21261723,9.96063822 C3.78663842,9.89165292 3.35752741,9.77419147 2.94251129,9.66076969 L2.85105113,9.63591012 C2.74205067,9.60607864 2.62052142,9.54051153 2.48896914,9.44045177 C2.35866974,9.34132425 2.28631598,9.21174376 2.28536039,9.07594837 C2.28412345,8.93673479 2.35679042,8.80218238 2.49022202,8.69715071 C2.67188945,8.55389745 2.89960018,8.45539142 3.18619622,8.3960392 C3.65508614,8.2984654 4.13650484,8.21456436 4.60194933,8.13314928 L4.61792354,8.13066332 C4.6348374,8.12755587 4.65237771,8.12600215 4.66929157,8.12600215 C4.7952059,8.12600215 4.90076094,8.21052468 4.92018056,8.32674316 C4.94649102,8.48615513 4.85784984,8.6085885 4.69403593,8.63841998 C4.22639889,8.72418549 3.75656932,8.81212621 3.35282911,8.88794789 C3.32150714,8.89385204 3.29519668,8.90348512 3.26512759,8.91436118 C3.25134592,8.91964384 3.23537172,8.92554799 3.21563888,8.93207362 L2.78026347,9.07843433 L3.21845785,9.21578343 C4.22232704,9.53056771 6.17995025,9.71856818 8.45611792,9.71856818 C10.8146624,9.71856818 12.848398,9.51751643 13.7633128,9.19372057 L14.2253118,9.03026891 L13.7504708,8.90845703 C13.7028614,8.89602725 13.6549387,8.88421896 13.6070161,8.87241066 C13.5033404,8.84661886 13.3965325,8.81989482 13.2934832,8.79037409 C13.1700746,8.75494921 13.0886375,8.64836381 13.0955283,8.53152384 C13.1024192,8.40940122 13.192,8.31182742 13.3182275,8.28790008 C13.331696,8.28541413 13.350176,8.28168519 13.3608254,8.28137445 C13.4460212,8.30778774 13.5318434,8.33357954 13.6173524,8.35937134 C13.8688678,8.43488228 14.1285269,8.51318991 14.373778,8.6085885 C14.4808991,8.65022828 14.6666384,8.75557069 14.7061041,8.98956137 C14.7411847,9.19527429 14.6588079,9.35499701 14.4473846,9.49203538 C14.1692455,9.67257798 13.8375458,9.75647902 13.5215071,9.82701805 C12.7184118,10.0069392 11.8786697,10.1144568 10.9540451,10.1557858 C10.0839208,10.1949396 9.05405435,10.234715 8.01009304,10.234715 L8.00696085,10.234715 Z" id="Fill-4" stroke="#FFFFFF" stroke-width="0.45" fill="#FFFFFF"></path>
                <path d="M13.6629572,20.8885001 C13.6551267,20.8885001 13.6472962,20.8881893 13.6394657,20.8872571 C13.4928789,20.8717199 13.3948411,20.7679312 13.4014187,20.6346217 C13.4208383,20.2362472 13.4490281,19.8310362 13.4762782,19.4388765 L13.4935053,19.1884164 C13.5204422,18.795946 13.5483187,18.4034756 13.5765085,18.0113159 C13.5918563,17.7922409 13.6075173,17.573166 13.6231783,17.3540911 L13.654187,16.9134552 C13.7058683,16.1773013 13.7575495,15.4414581 13.8086043,14.7056149 C13.840866,14.2429162 13.8725012,13.7802175 13.9041363,13.3175188 L13.9580101,12.5257416 C13.962082,12.4676324 13.9655274,12.4095231 13.9689728,12.3514139 C13.9768033,12.2156185 13.9852602,12.0751619 14.0012345,11.939988 C14.0203409,11.7752934 14.11462,11.6811378 14.2602672,11.6811378 C14.2693505,11.6811378 14.2787471,11.6814485 14.2884569,11.6823808 C14.4601013,11.6954321 14.5183602,11.8470754 14.5155412,11.9847353 C14.5155412,11.9965436 14.5155412,12.0083519 14.5155412,12.0201602 L14.5155412,12.0245106 L14.4629203,12.7706083 C14.4275265,13.2696642 14.3924459,13.7684092 14.3573653,14.2671543 C14.3304284,14.6521668 14.3041179,15.0371794 14.2774942,15.4221919 C14.254316,15.7593498 14.2311377,16.096197 14.2076462,16.4330441 C14.1841548,16.7729987 14.1600368,17.1129533 14.1362322,17.4529079 C14.1074159,17.8624692 14.0785997,18.2720306 14.0504099,18.681592 C14.0281713,19.0029019 14.006246,19.3242118 13.9843206,19.6455217 C13.9655274,19.9220844 13.9467342,20.1986471 13.927941,20.4752098 L13.9257485,20.5050412 C13.9216766,20.5659472 13.917918,20.6234349 13.9075818,20.676883 C13.8844035,20.7977626 13.7791617,20.8885001 13.6629572,20.8885001" id="Fill-6" stroke="#FFFFFF" stroke-width="0.45" fill="#FFFFFF"></path>
                <path d="M9.05076555,24.2159531 C8.94082543,24.2159531 8.83088531,24.2156424 8.72094519,24.2153317 C8.61069185,24.2150209 8.50075173,24.2147102 8.39049839,24.2147102 L8.34508153,24.2147102 C6.59668908,24.2147102 5.03372271,24.0627561 3.56597513,23.7498363 C3.39589682,23.7134791 3.33920405,23.6525732 3.32385629,23.4885001 C3.29691939,23.2032365 3.27906587,22.9487367 3.26935606,22.7103956 C3.26340488,22.5624812 3.3573708,22.4527883 3.49769323,22.4440875 C3.50552372,22.443466 3.51335421,22.443466 3.52087149,22.443466 C3.66808475,22.443466 3.76518287,22.5348249 3.78021741,22.688022 C3.78240995,22.7097741 3.78460249,22.7315262 3.78679503,22.7529676 C3.79619162,22.8399761 3.80464855,22.9217019 3.80308245,23.0009418 C3.79901059,23.1908067 3.89704836,23.3051608 4.08654629,23.3318848 C4.27541778,23.3586088 4.4680479,23.388751 4.65410041,23.417961 C4.94633441,23.4639512 5.24890465,23.5111844 5.54896914,23.5466093 C6.51086688,23.6600311 7.5040866,23.7175188 8.50137817,23.7175188 C8.66801105,23.7175188 8.83777614,23.7159651 9.00566191,23.7128577 C9.08459327,23.7113039 9.16383786,23.707575 9.24026347,23.7038461 C9.31888162,23.7001171 9.40000553,23.6963882 9.4789369,23.6951452 L9.48551451,23.6951452 C9.65340028,23.6951452 9.76897835,23.795205 9.77305021,23.9437409 C9.77492953,24.0192518 9.75143805,24.0845082 9.70508153,24.1320521 C9.65433994,24.1842572 9.57979364,24.212535 9.48989959,24.2137779 C9.36022662,24.2153317 9.22053063,24.2159531 9.05076555,24.2159531" id="Fill-8" stroke="#FFFFFF" stroke-width="0.45" fill="#FFFFFF"></path>
                <path d="M11.0181925,8.4978702 C10.8208641,8.49165531 10.6194638,8.48109 10.4246412,8.47083542 C10.1352262,8.45560894 9.83610134,8.43976097 9.53979549,8.43820724 C9.42233809,8.43758575 9.30456748,8.43727501 9.18711009,8.43727501 C8.52966191,8.43727501 7.86156426,8.44752958 7.2157052,8.45747341 L7.06535974,8.45964862 C6.92033901,8.45964862 6.76999355,8.38755587 6.75997052,8.22690092 C6.75495901,8.14828254 6.77531829,8.08116171 6.81885583,8.03330704 C6.8677181,7.97923748 6.94414371,7.94847377 7.04061538,7.9438126 C7.08665868,7.94163738 7.1330152,7.93852994 7.17937172,7.934801 C7.24953293,7.92982909 7.31593551,7.92485718 7.38171165,7.92454643 C7.59877292,7.92330345 7.81552096,7.92299271 8.03258222,7.92299271 L8.9362211,7.9236142 L8.93653432,7.89471495 C9.09063842,7.90092984 9.24474251,7.90745548 9.39915983,7.91367037 C9.91252695,7.93449026 10.4434344,7.95593164 10.9652584,7.97985897 C11.1466126,7.98793833 11.2527941,8.05350544 11.2803574,8.17469583 C11.3007167,8.26263655 11.2847425,8.34498387 11.2349406,8.40651129 C11.1876444,8.46555277 11.1146642,8.4978702 11.0291552,8.4978702 L11.0181925,8.4978702 Z" id="Fill-10" stroke="#FFFFFF" stroke-width="0.45" fill="#FFFFFF"></path>
                <path d="M3.01073054,15.8308522 C2.86790235,15.8308522 2.76015477,15.7242668 2.74856564,15.5720019 C2.71411147,15.1260834 2.68216306,14.6727071 2.65115431,14.2339357 L2.63549332,14.01455 C2.61732658,13.7535246 2.59915983,13.4928098 2.58067987,13.2320951 C2.54873146,12.7740576 2.51584339,12.3004828 2.48170244,11.8349875 C2.47512483,11.7430071 2.49517089,11.660349 2.53902165,11.6022398 C2.57880055,11.5494132 2.63705942,11.5186495 2.70722064,11.5133668 C2.71693045,11.5127453 2.72664026,11.5127453 2.73603685,11.5127453 C2.94620728,11.5127453 2.99037126,11.6855193 2.99757531,11.7883758 C3.06209857,12.6718226 3.12693505,13.5549588 3.19177153,14.4384056 L3.26725749,15.4703884 C3.26882358,15.4905868 3.27007646,15.5104745 3.27101612,15.5247687 L3.27164256,15.5337803 C3.27289544,15.7043791 3.17391801,15.8233943 3.02451221,15.8305414 C3.01981391,15.8308522 3.01542883,15.8308522 3.01073054,15.8308522" id="Fill-12" stroke="#FFFFFF" stroke-width="0.45" fill="#FFFFFF"></path>
                <path d="M3.26478305,19.2951882 C3.11255827,19.2951882 3.01044864,19.1982359 2.99854629,19.0425529 C2.97442837,18.7290116 2.95187655,18.4101876 2.93026439,18.101929 L2.92180746,17.9826031 C2.91648273,17.9046062 2.94060064,17.8309597 2.98977614,17.7753364 C3.03581944,17.7237528 3.09908982,17.6929891 3.1686246,17.6892602 C3.17394933,17.6889494 3.17927407,17.6886387 3.18428558,17.6886387 C3.3227287,17.6886387 3.43110272,17.7967778 3.44175219,17.9459352 C3.46023215,18.1991921 3.47902533,18.4521382 3.49813174,18.7125421 L3.52224965,19.0372702 C3.52318931,19.1758623 3.42264579,19.2861766 3.28733487,19.2945668 C3.2798176,19.2948775 3.2719871,19.2951882 3.26478305,19.2951882" id="Fill-14" stroke="#FFFFFF" stroke-width="0.45" fill="#FFFFFF"></path>
                <path d="M12.8045159,23.8633202 C12.6579291,23.8633202 12.5623971,23.7797299 12.5426642,23.6336799 C12.5248107,23.502235 12.6269203,23.3850843 12.7850963,23.354942 C12.8336453,23.3456197 12.8825076,23.3362974 12.9310567,23.3266643 C13.0920516,23.2952791 13.2586845,23.2629616 13.4221852,23.2371698 C13.4369065,23.2349946 13.4513146,23.2340624 13.4654095,23.2340624 C13.5321253,23.2340624 13.5938296,23.2592327 13.6398729,23.3055336 C13.6881087,23.3540098 13.7144192,23.4211306 13.7134795,23.4941556 C13.7116002,23.6200072 13.6373671,23.7141628 13.5192833,23.7399546 C13.2787305,23.7924704 13.0635486,23.8313135 12.8615219,23.8592805 C12.8421023,23.8620772 12.8229959,23.8633202 12.8045159,23.8633202" id="Fill-16" stroke="#FFFFFF" stroke-width="0.45" fill="#FFFFFF"></path>
            </g>
        </g>
    </g>
</svg>