<svg width="942" height="250" viewBox="0 0 942 250" fill="none" xmlns="http://www.w3.org/2000/svg">
<path d="M591.812 0C598.979 0 604.624 5.62327 604.624 12.7978C604.624 19.9723 599.007 25.6243 591.812 25.6243C584.617 25.6243 579 19.9723 579 12.7978C579 5.62327 584.646 0 591.812 0ZM581.941 12.7978C581.941 18.3349 586.281 22.6798 591.812 22.6798C597.343 22.6798 601.683 18.3349 601.683 12.7978C601.683 7.26069 597.372 2.94449 591.812 2.94449C586.253 2.94449 581.941 7.23197 581.941 12.7978ZM588.333 12.9773C588.333 15.2396 589.732 16.7549 591.784 16.7549C593.333 16.7549 594.459 15.9218 594.997 14.5214H597.824C597.2 17.588 594.94 19.4337 591.791 19.4337C588.132 19.4337 585.664 16.877 585.664 12.9773C585.664 9.07766 588.132 6.49225 591.791 6.49225C594.94 6.49225 597.2 8.36668 597.824 11.3758H594.997C594.459 10.0041 593.333 9.17103 591.784 9.17103C589.732 9.17103 588.333 10.6864 588.333 12.9773Z" fill="#6985C3"/>
<path d="M504.794 106.311L464.119 0.103516H473.459L510.82 97.7241H511.724L548.935 0.103516H558.425L517.6 106.311H504.794Z" fill="#6985C3"/>
<path d="M397.251 106.311L356.576 0.103516H365.916L403.277 97.7241H404.181L441.392 0.103516H450.882L410.057 106.311H397.251Z" fill="#6985C3"/>
<path d="M265.932 106.311V0.103516H341.557V8.38921H274.368V47.8593H334.025V56.145H274.368V98.0254H341.557V106.311H265.932Z" fill="#6985C3"/>
<path d="M879.184 243.067V136.709H887.319V203.748L924.228 168.345H935.526L912.025 191.093L941.1 242.917H931.459L906.15 196.667L887.319 215.047V243.067H879.184Z" fill="#6985C3"/>
<path d="M864.919 213.84C861.906 232.822 849.703 245.627 828.763 245.627C804.358 245.627 791.703 228.303 791.703 204.199C791.703 180.396 804.358 163.373 828.763 163.373C848.648 163.373 860.55 174.672 864.316 191.996H855.88C852.264 177.986 842.171 171.207 828.763 171.207C812.041 171.207 800.139 181.752 800.139 204.35C800.139 226.796 811.89 237.944 828.763 237.944C843.074 237.944 853.771 229.96 856.633 213.84H864.919Z" fill="#6985C3"/>
<path d="M740.381 245.627C724.713 245.627 714.168 234.931 714.168 221.674C714.168 182.053 769.757 211.129 769.757 183.409C769.757 173.768 759.061 171.207 750.324 171.207C742.038 171.207 728.028 174.973 725.015 190.64H716.578C719.742 168.947 737.82 163.523 750.173 163.523C763.581 163.523 777.742 168.495 777.742 183.56V242.765H769.757V226.495H769.306C762.526 241.861 751.981 245.627 740.381 245.627ZM741.435 237.944C754.391 237.944 769.757 228.001 769.757 206.157V197.721H769.306C754.843 212.183 722.604 196.666 722.604 221.523C722.604 231.165 730.739 237.944 741.435 237.944Z" fill="#6985C3"/>
<path d="M673.795 242.916V165.633H682.081V179.191H682.683C682.683 171.357 691.722 165.633 700.912 165.633H709.047V173.467H701.816C688.257 173.467 682.231 186.573 682.231 200.282V242.916H673.795Z" fill="#6985C3"/>
<path d="M637.059 242.917V144.693H597.891V136.709H684.664V144.693H645.496V242.917H637.059Z" fill="#6985C3"/>
<path d="M588.695 217.757C584.326 235.233 570.918 245.627 551.183 245.627C526.477 245.627 511.412 229.508 511.412 204.199C511.412 179.342 526.176 163.373 550.882 163.373C572.576 163.373 589.9 176.178 589.599 209.924H532.955C534.461 222.427 541.994 229.357 551.635 229.357C559.017 229.357 564.441 225.29 567.152 217.757H588.695ZM567.454 195.763C565.495 186.724 560.373 179.492 550.882 179.492C541.241 179.492 535.215 185.82 533.256 195.763H567.454Z" fill="#6985C3"/>
<path d="M457.35 242.916V165.633H478.139V177.986H479.796C479.796 168.344 486.576 165.633 496.217 165.633H506.009V185.669H495.916C480.098 185.669 478.29 191.544 478.29 202.692V242.916H457.35Z" fill="#6985C3"/>
<path d="M396.115 245.778C380.9 245.778 368.848 236.287 368.848 221.975C368.848 187.025 420.822 204.952 420.822 186.874C420.822 181.3 414.946 179.191 409.372 179.191C403.798 179.191 396.416 181.3 393.554 190.188H371.107C375.476 167.29 397.32 163.523 409.824 163.523C423.835 163.523 441.461 168.194 441.461 187.326V242.765H421.123V232.069H420.671C416.001 241.108 408.77 245.778 396.115 245.778ZM400.635 230.412C410.728 230.412 420.37 224.386 420.37 208.869V205.253H420.068C413.741 214.895 390.39 209.471 390.39 221.674C390.39 226.645 393.855 230.412 400.635 230.412Z" fill="#6985C3"/>
<path d="M311.877 245.176C280.241 245.176 260.355 223.935 260.355 190.49C260.355 156.444 279.94 134.6 311.124 134.6C337.488 134.6 356.319 150.719 360.989 175.877H337.789C334.776 163.223 324.984 155.088 311.426 155.088C294.101 155.088 283.103 168.797 283.103 190.189C283.103 211.732 294.402 225.441 312.179 225.441C324.833 225.441 334.174 217.306 337.638 204.651H361.14C355.716 229.509 337.186 245.176 311.877 245.176Z" fill="#6985C3"/>
<path d="M70.2596 249.669C55.0485 249.702 39.8375 249.74 24.6265 249.773C23.1763 249.898 14.4858 250.503 7.3819 244.01C-0.954172 236.404 0.114416 225.631 0.239812 224.541C-0.169087 177.823 -0.00552727 143.137 0.359755 131.252C0.441535 128.537 0.654162 123.238 2.1371 116.548C2.61687 114.384 4.2034 107.716 8.01433 99.6633C10.6858 94.0314 13.5263 89.648 15.6907 86.6548C18.6239 82.5822 21.8187 78.9784 25.4007 75.4347C38.3546 62.6225 51.3085 49.8158 64.2624 37.0037C70.434 32.2277 79.0863 33.1164 83.7423 38.4648C87.7386 43.0554 88.1366 50.1757 84.4674 55.6494C70.7448 69.3939 57.0222 83.1438 43.2995 96.8882C40.6553 99.3361 36.4955 103.829 33.4642 110.616C30.1003 118.151 29.8931 124.857 29.8168 128.346C29.5551 140.215 29.1844 167.262 29.5387 203.436C29.4297 205.137 29.4515 207.738 30.2584 210.753C30.8745 213.053 31.6868 216.09 34.3637 218.713C36.9752 221.27 40.0283 222.126 41.7021 222.442C51.5048 222.42 61.302 222.393 71.1046 222.371C78.1159 223.216 83.3825 229.322 83.1971 236.355C83.0063 243.426 77.3526 249.266 70.265 249.68L70.2596 249.669Z" fill="#6CC1B0"/>
<path d="M36.8006 30.8367C36.3917 54.7545 0.817509 54.7491 0.414062 30.8367C0.822961 6.91889 36.3971 6.92434 36.8006 30.8367Z" fill="#6CC1B0"/>
<path d="M208.92 243.168C201.254 249.825 192.46 249.836 190.388 249.787C166.574 249.858 142.754 249.929 118.94 250C115.843 249.749 110.659 248.871 105.457 245.507C94.1063 238.163 92.2472 225.193 91.9746 223.04C117.386 223.241 142.803 223.443 168.215 223.65C169.447 223.792 176.976 224.539 183.437 219.016C190.001 213.4 190.35 205.675 190.388 204.459C190.541 180.694 190.688 156.929 190.841 133.164C190.884 130.269 190.579 125.144 188.071 119.419C185.263 113.013 181.104 109.066 178.808 107.174C150.932 79.3418 123.062 51.5149 95.1858 23.6826C92.1763 18.2469 92.7379 11.6555 96.467 7.33209C101.025 2.04912 109.557 1.0187 115.931 5.56019C145.393 34.6138 174.856 63.6674 204.318 92.721C206.984 95.5942 210.506 100.048 213.308 106.204C216.809 113.896 217.512 120.744 217.801 124.931C218.739 138.299 219.077 176.36 217.801 227.537C217.386 229.789 215.735 237.253 208.914 243.174L208.92 243.168Z" fill="#6985C3"/>
<path d="M218.351 20.6668C217.942 44.5846 182.368 44.5792 181.965 20.6668C182.374 -3.25103 217.948 -3.24558 218.351 20.6668Z" fill="#6985C3"/>
<path d="M102.83 243.388C101.876 242.886 101.036 242.101 99.9565 240.831C97.1051 237.472 95.524 234.403 94.7498 232.844C88.3928 220.026 82.9899 205.066 82.9899 205.066C80.7927 199.608 77.6688 191.681 74.1086 182.047C67.1846 163.282 64.9057 153.555 62.3051 146.806C57.7145 134.91 55.6973 113.876 67.2173 95.9716C68.5694 93.8726 82.7446 72.6426 107.742 72.7898C131.682 72.9316 145.377 92.5587 147.743 95.9498C162.938 117.73 156.09 142.183 155.098 145.519C150.687 159.798 146.118 171.16 142.607 179.174C139.8 185.591 137.27 190.754 132.216 201.08C126.824 212.104 122.211 221.176 118.935 227.533V236.524C118.079 237.32 108.314 246.283 102.819 243.388H102.83ZM104.814 91.4465C89.8866 92.6023 81.7796 104.853 80.8582 106.298C75.5098 114.677 74.8119 124.791 78.4975 142.521C81.7741 158.271 89.1942 183.28 108.042 212.05C128.617 183.307 135.034 157.732 137.384 142.891C141.141 119.132 136.507 109.994 133.077 105.289C132.259 104.166 121.677 90.1435 104.814 91.4519V91.4465Z" fill="#6985C3"/>
<path fill-rule="evenodd" clip-rule="evenodd" d="M79.1074 160.341C79.1074 172.303 97.3988 213.204 108.881 219.888C120.33 213.22 134.516 168.906 135.345 157.037C135.606 153.27 125.7 151.673 119.899 148.974V154.557C119.899 154.633 119.899 154.699 119.823 154.764C123.056 155.707 122.205 160.805 118.858 160.685C115.216 160.701 114.872 155.298 118.242 154.557V148.216C117.342 147.736 116.377 147.251 115.412 146.706V142.911C117.756 141.401 118.585 138.092 119.343 135.126C119.741 135.082 120.019 134.259 119.965 133.616C120.651 133.092 122.794 125.612 120.101 127.831C120.101 127.831 121.344 121.005 120.379 118.11C118.247 110.603 100.605 108.537 100.605 113.225C93.0972 115.357 94.4765 122.456 95.507 127.902C95.507 127.902 95.0217 127.215 94.3293 127.902C93.5061 128.791 94.4057 130.857 94.6728 131.822C94.88 132.651 95.158 133.131 95.3598 133.545C95.2998 134.172 95.5506 135.17 96.0467 135.131C96.9463 138.441 97.4969 141.679 99.9776 143.402V146.711C99.3561 147.12 98.6691 147.469 97.9767 147.813V151.187C101.973 151.531 105.217 154.84 105.217 158.973V166.213C105.217 166.693 104.873 167.042 104.388 167.042H101.842C100.752 167.08 100.752 165.335 101.842 165.379H103.565C103.663 160.33 104.465 152.954 97.3606 152.774C90.2295 152.965 90.9818 160.298 91.0963 165.379H93.0209C94.084 165.346 94.0895 167.069 93.0209 167.042H90.2676C89.8587 167.042 89.4444 166.687 89.4444 166.213C89.3299 160.232 88.4685 152.36 96.3302 151.258V148.641C90.0223 151.635 82.0624 154.366 79.1074 157.048V160.358V160.341ZM118.858 159.033C117.01 159.087 116.939 156.176 118.858 156.209C120.766 156.187 120.695 159.071 118.858 159.033Z" fill="#6985C3"/>
</svg>
