<?xml version="1.0" encoding="UTF-8"?>
<svg width="19px" height="22px" viewBox="0 0 19 22" version="1.1" xmlns="http://www.w3.org/2000/svg" xmlns:xlink="http://www.w3.org/1999/xlink">
    <title>E084DA0F-17B2-4EE6-807B-A9F99FCDDDE0</title>
    <g id="Mobile-app" stroke="none" stroke-width="1" fill="none" fill-rule="evenodd">
        <g id="Home-Screen-" transform="translate(-330, -56)" fill="#141124" fill-rule="nonzero">
            <path d="M339.5,56 C342.995647,56 345.914512,58.7348082 346.230993,62.3065526 L346.715715,67.7770304 C346.758267,68.2572633 347.039969,68.6807207 347.460351,68.896373 C348.405424,69.3811872 349,70.3682277 349,71.4479366 L349,71.8734177 C349,73.2576251 347.906296,74.3797468 346.557143,74.3797468 L342.485,74.379 L342.485714,74.9367089 C342.485714,76.5680961 341.242742,77.9016284 339.675433,77.9947999 L339.5,78 C337.851036,78 336.514286,76.6285178 336.514286,74.9367089 L336.514,74.379 L332.442857,74.3797468 C331.093704,74.3797468 330,73.2576251 330,71.8734177 L330,71.4479366 C330,70.3682277 330.594576,69.3811872 331.53584,68.8983267 C331.960031,68.6807207 332.241733,68.2572633 332.284285,67.7770304 L332.769007,62.3065526 C333.085488,58.7348082 336.004353,56 339.5,56 Z M340.857,74.379 L338.142,74.379 L338.142857,74.9367089 C338.142857,75.6604774 338.681089,76.2552688 339.369298,76.3227399 L339.5,76.3291139 C340.249529,76.3291139 340.857143,75.7057129 340.857143,74.9367089 L340.857,74.379 Z M339.5,57.6708861 C336.846655,57.6708861 334.631113,59.7467217 334.39089,62.4578275 L333.906169,67.9283054 C333.812554,68.9848176 333.192808,69.9164239 332.267968,70.3908589 C331.874629,70.5926383 331.628571,71.0011126 331.628571,71.4479366 L331.628571,71.8734177 C331.628571,72.3348202 331.99314,72.7088608 332.442857,72.7088608 L346.557143,72.7088608 C347.00686,72.7088608 347.371429,72.3348202 347.371429,71.8734177 L347.371429,71.4479366 C347.371429,71.0011126 347.125371,70.5926383 346.73584,70.3928126 C345.807192,69.9164239 345.187446,68.9848176 345.093831,67.9283054 L344.60911,62.4578275 C344.368887,59.7467217 342.153345,57.6708861 339.5,57.6708861 Z" id="Shape"></path>
        </g>
    </g>
</svg>