<?xml version="1.0" encoding="UTF-8"?>
<svg width="16px" height="16px" viewBox="0 0 16 16" version="1.1" xmlns="http://www.w3.org/2000/svg" xmlns:xlink="http://www.w3.org/1999/xlink">
    <title>9FDF0AD1-9E52-40FE-962C-6870FBD3E5A1</title>
    <g id="Mobile-app" stroke="none" stroke-width="1" fill="none" fill-rule="evenodd">
        <g id="Patient-Information-" transform="translate(-311, -316)" fill="#538FE3" fill-rule="nonzero">
            <g id="9041372_pen_fill_icon" transform="translate(311, 316)">
                <path d="M13.4978266,0.502412361 L13.6468266,0.353412361 C13.9519314,0.0484861801 14.3965361,-0.0705057501 14.8131623,0.041259679 C15.2297885,0.153025108 15.5551409,0.478568069 15.6666623,0.895259679 C15.7781837,1.31195129 15.6589314,1.75648618 15.3538266,2.06141236 L15.2048266,2.20941236 C15.7340022,2.80289934 15.7081183,3.70620103 15.1458266,4.26841236 L4.85382658,14.5614124 C4.78948758,14.625415 4.70894249,14.6707 4.62082658,14.6924124 L0.620826585,15.6924124 C0.450560535,15.7348104 0.270529978,15.6848546 0.146457167,15.5607818 C0.0223843564,15.436709 -0.0275714926,15.2566784 0.014826585,15.0864124 L1.01482658,11.0864124 C1.03670639,10.9986541 1.08198047,10.9184741 1.14582658,10.8544124 L10.7878266,1.21241236 C10.5887328,1.07228757 10.3176527,1.09593319 10.1458266,1.26841236 L6.85382658,4.56141236 C6.72735457,4.68788439 6.54301758,4.73727734 6.37025358,4.69098537 C6.19748959,4.6446934 6.06254555,4.50974936 6.01625358,4.33698536 C5.96996161,4.16422137 6.01935456,3.97988438 6.14582658,3.85341236 L9.43982658,0.561412361 C10.0024328,-0.00121402554 10.9064549,-0.0266670758 11.4998266,0.503412361 C12.0686646,-0.00496907302 12.92848,-0.00539941108 13.4978266,0.502412361 Z" id="Path"></path>
            </g>
        </g>
    </g>
</svg>