<?xml version="1.0" encoding="UTF-8"?>
<svg width="21px" height="21px" viewBox="0 0 21 21" version="1.1" xmlns="http://www.w3.org/2000/svg" xmlns:xlink="http://www.w3.org/1999/xlink">
    <title>8CCB63EF-8090-4A6A-9715-52561A5F2E86</title>
    <g id="Mobile-app" stroke="none" stroke-width="1" fill="none" fill-rule="evenodd">
        <g id="Patient-Information-" transform="translate(-134, -313)" fill="#F9CA4C" fill-rule="nonzero">
            <g id="8665646_phone_communication_icon" transform="translate(134, 313)">
                <path d="M20.9691715,15.8724858 L20.015468,20.0066518 C19.8814983,20.5910949 19.36777,21 18.7660138,21 C8.41720263,20.9991797 0,12.583199 0,2.23547997 C0,1.63422131 0.408923455,1.11991138 0.993492436,0.986617334 L5.12825864,0.0330522648 C5.73042499,-0.106475837 6.34571758,0.206047425 6.59593657,0.776217816 L8.50416399,5.22618814 C8.72722806,5.75034133 8.57676851,6.36103311 8.13580882,6.72113209 L5.92731862,8.49414791 C7.32116143,11.3331059 9.62973923,13.6413486 12.4699298,15.0358094 L14.2780697,12.8292803 C14.6344471,12.3871542 15.2498217,12.2341737 15.774051,12.4611837 L20.2246674,14.3687239 C20.759972,14.650282 21.1086378,15.273688 20.9691715,15.8724858 Z" id="Path"></path>
            </g>
        </g>
    </g>
</svg>