<?xml version="1.0" encoding="UTF-8"?>
<svg width="29px" height="27px" viewBox="0 0 29 27" version="1.1" xmlns="http://www.w3.org/2000/svg" xmlns:xlink="http://www.w3.org/1999/xlink">
    <title>27FFC994-A1CE-4B44-B74E-0561CDE9C234</title>
    <g id="Mobile-app" stroke="none" stroke-width="1" fill="none" fill-rule="evenodd">
        <g id="Patient-Information-" transform="translate(-58, -509)" fill="#FFFFFF" fill-rule="nonzero">
            <g id="5049695_bathroom_bathtub_clean_shower_toilet_icon" transform="translate(58, 509)">
                <path d="M10.1560864,11.6967231 C9.88952226,11.6967231 9.67342933,11.4777001 9.67342933,11.2075214 L9.67342933,7.78310924 C9.67342933,7.51293058 9.88952226,7.2939075 10.1560864,7.2939075 C10.4226505,7.2939075 10.6387435,7.51293058 10.6387435,7.78310924 L10.6387435,11.2075214 C10.6387435,11.4777001 10.4226505,11.6967231 10.1560864,11.6967231 Z M10.6387435,13.6535301 L10.6387435,13.1643284 C10.6387435,12.8941497 10.4226505,12.6751266 10.1560864,12.6751266 C9.88952226,12.6751266 9.67342933,12.8941497 9.67342933,13.1643284 L9.67342933,13.6535301 C9.67342933,13.9237087 9.88952226,14.1427318 10.1560864,14.1427318 C10.4226505,14.1427318 10.6387435,13.9237087 10.6387435,13.6535301 Z M8.7081152,8.27231098 L8.7081152,7.78310924 C8.7081152,7.51293058 8.49202227,7.2939075 8.22545813,7.2939075 C7.95889399,7.2939075 7.74280106,7.51293058 7.74280106,7.78310924 L7.74280106,8.27231098 C7.74280106,8.54248964 7.95889399,8.76151271 8.22545813,8.76151271 C8.49202227,8.76151271 8.7081152,8.54248964 8.7081152,8.27231098 Z M28.979712,16.8333414 C28.8409289,17.5577023 28.2064452,18.0746533 27.4786485,18.0563457 C27.1346242,18.0604047 26.8341854,18.2932673 26.7401832,18.6287118 C25.8714005,21.4807579 23.1878272,23.8387103 19.5678992,25.0176865 L19.5678992,25.3943718 C19.6144571,25.9186966 19.3814967,26.4283679 18.9567718,26.7313974 C18.5320469,27.0344269 17.9800834,27.0847772 17.5088006,26.8634819 C17.0375178,26.6421866 16.7185147,26.1828656 16.6719568,25.6585407 C15.2146915,25.8607206 13.7370428,25.8607206 12.2797775,25.6585407 C12.103839,26.3571799 11.4532441,26.8227941 10.744813,26.7570754 C10.036382,26.6913568 9.47998868,26.1137746 9.4321008,25.3943718 L9.4321008,25.0176865 C5.8121728,23.8387103 3.12859951,21.4807579 2.25981679,18.6287118 C2.16874519,18.2974396 1.87500962,18.0652191 1.53583119,18.0563457 L1.4682592,18.0563457 C1.03851404,18.0624458 0.62830302,17.8747328 0.348601154,17.5439892 C0.0688992887,17.2132456 -0.0513853613,16.7736547 0.0202879959,16.3441396 C0.159071085,15.6197788 0.793554839,15.1028277 1.52135147,15.1211353 L2.03296796,15.1211353 L2.03296796,3.89884744 C2.0563402,1.78326325 3.7228998,0.0634457478 5.80942311,0.00170888664 C7.89594642,-0.0600279745 9.65865195,1.5583231 9.80374674,3.66892262 C10.9580899,3.87075257 11.802738,4.88363379 11.8067736,6.07090316 C11.8067736,6.34108182 11.5906806,6.56010489 11.3241165,6.56010489 L7.46285997,6.56010489 C7.19629583,6.56010489 6.9802029,6.34108182 6.9802029,6.07090316 C6.98376539,4.93964867 7.75222795,3.95845882 8.83843261,3.69827473 C8.71310391,2.11958143 7.38561318,0.919549925 5.82390225,0.973184947 C4.26219131,1.02681997 3.01788985,2.31517648 2.9982821,3.89884744 L2.9982821,15.1211353 L27.5317408,15.1211353 C27.961486,15.1150353 28.371697,15.3027482 28.6513988,15.6334918 C28.9311007,15.9642354 29.0513854,16.4038264 28.979712,16.8333414 Z M9.41279452,4.60329794 C8.79889035,4.60297174 8.25150968,4.99505865 8.04687502,5.58170142 L10.778714,5.58170142 C10.571762,4.98822419 10.014463,4.59459645 9.39348823,4.60329794 L9.41279452,4.60329794 Z M16.4306283,16.0995388 L16.4306283,18.5455475 C16.4306283,19.0859048 16.8628141,19.5239509 17.3959424,19.5239509 L21.2571989,19.5239509 C21.7903272,19.5239509 22.2225131,19.0859048 22.2225131,18.5455475 L22.2225131,16.0995388 L16.4306283,16.0995388 Z M11.3627291,25.1008508 L11.3627291,24.4159683 C11.3627291,24.1457897 11.1466361,23.9267666 10.880072,23.9267666 C10.6135079,23.9267666 10.3974149,24.1457897 10.3974149,24.4159683 L10.3974149,25.3943718 C10.3974149,25.6645505 10.6135079,25.8835735 10.880072,25.8835735 C11.1466361,25.8835735 11.3627291,25.6645505 11.3627291,25.3943718 L11.3627291,25.1008508 Z M18.6025851,24.6605692 L18.6025851,24.4159683 C18.6025851,24.1457897 18.3864921,23.9267666 18.119928,23.9267666 C17.8533639,23.9267666 17.6372709,24.1457897 17.6372709,24.4159683 L17.6372709,25.3943718 C17.6372709,25.6645505 17.8533639,25.8835735 18.119928,25.8835735 C18.3864921,25.8835735 18.6025851,25.6645505 18.6025851,25.3943718 L18.6025851,24.6605692 Z M28.0143979,16.6719048 C28.0382281,16.5281033 27.9975259,16.3810232 27.9033867,16.2707594 C27.8105886,16.1607805 27.674511,16.0980883 27.5317408,16.0995388 L23.1878272,16.0995388 L23.1878272,18.5455475 C23.1878272,19.6262621 22.3234555,20.5023544 21.2571989,20.5023544 L17.3959424,20.5023544 C16.3296859,20.5023544 15.4653141,19.6262621 15.4653141,18.5455475 L15.4653141,16.0995388 L1.52135147,16.0995388 C1.27170882,16.0899513 1.04984008,16.2596314 0.9904287,16.5055762 C0.966598457,16.6493777 1.00730071,16.7964578 1.10143983,16.9067216 C1.19314596,17.0153918 1.32717283,17.0779517 1.4682592,17.0779423 L1.53583119,17.0779423 C2.29878036,17.0854917 2.96707204,17.5979762 3.18169178,18.3400827 C3.93946338,20.8203355 6.27552358,22.909227 9.49001965,24.0099309 C9.50107789,23.9813815 9.51397658,23.9536001 9.52863221,23.9267666 L9.55759164,23.8484943 C9.58911671,23.7796051 9.62457153,23.7126342 9.66377619,23.6479216 L9.66377619,23.6185695 C9.7131248,23.5458618 9.76799225,23.4771654 9.82787959,23.4131048 L9.88097187,23.3690766 C9.92702515,23.3256917 9.97536156,23.2848652 10.025769,23.2467762 L10.1029941,23.197856 C10.1512511,23.1672443 10.2012085,23.1394769 10.2526178,23.1146917 L10.3394961,23.0755556 L10.5084261,23.0217434 L10.5904778,23.0217434 C10.6837849,22.9856922 10.7810039,22.9610579 10.880072,22.9483631 C11.6797644,22.9483631 12.3280432,23.6054323 12.3280432,24.4159683 L12.3280432,24.6801373 C13.7692529,24.8807135 15.2307471,24.8807135 16.6719568,24.6801373 L16.6719568,24.4159683 C16.6719568,23.6054323 17.3202356,22.9483631 18.119928,22.9483631 C18.2108068,22.9481986 18.3014344,22.9580404 18.390216,22.9777152 L18.4722677,22.9777152 L18.6411976,23.0315274 L18.7280759,23.0706635 C18.7794853,23.0954487 18.8294427,23.1232162 18.8776996,23.1538278 L18.9549247,23.202748 C19.0053322,23.240837 19.0536686,23.2816636 19.0997218,23.3250484 L19.1528141,23.3690766 C19.2127015,23.4331372 19.2675689,23.5018337 19.3169175,23.5745413 L19.3169175,23.6038934 C19.3561222,23.6686061 19.391577,23.7355769 19.4231021,23.8044661 L19.4520615,23.8827384 C19.4678127,23.9174834 19.4807268,23.9534787 19.4906741,23.9903628 C22.7051701,22.8896589 25.0412303,20.8007675 25.7990019,18.3205147 C26.0226793,17.5792452 26.6993845,17.0742777 27.4641688,17.0779423 C27.7203079,17.0952185 27.9519548,16.9242763 28.0143979,16.6719048 Z" id="Shape"></path>
            </g>
        </g>
    </g>
</svg>