<?xml version="1.0" encoding="UTF-8"?>
<svg width="27px" height="32px" viewBox="0 0 27 32" version="1.1" xmlns="http://www.w3.org/2000/svg" xmlns:xlink="http://www.w3.org/1999/xlink">
    <title>C68655B9-C943-474D-A105-53E7322F5013</title>
    <defs>
        <polygon id="path-1" points="-2.3934585e-16 0 27 0 27 24 -2.3934585e-16 24"></polygon>
    </defs>
    <g id="Mobile-app" stroke="none" stroke-width="1" fill="none" fill-rule="evenodd">
        <g id="Patient-Information-" transform="translate(-119, -238)">
            <g id="Group-6" transform="translate(119, 238)">
                <g id="Group-3" transform="translate(0, 8)">
                    <mask id="mask-2" fill="white">
                        <use xlink:href="#path-1"></use>
                    </mask>
                    <g id="Clip-2"></g>
                    <path d="M24.549174,20.6194505 C23.8977523,20.6419634 23.293759,21.4503809 23.3544817,22.1892131 C23.425265,23.0501606 24.2664003,23.6644897 25.2146087,23.5471498 C26.0747872,23.4410663 26.6834514,22.6012672 26.5174521,21.7498706 C26.3866647,21.0796004 25.573196,20.4376418 25.013038,20.5716959 C25.013038,20.5945499 25.0105229,20.6194505 25.0133973,20.64401 C25.0597478,21.048901 25.1028645,21.454133 25.1549639,21.8580007 C25.1776002,22.0336694 25.0442977,22.0207075 24.9379431,22.0312817 C24.8362595,22.0408326 24.7245154,22.0728964 24.7079873,21.9023442 C24.6663078,21.4773281 24.6041479,21.0540175 24.549174,20.6194505 M18.3479125,12.4322621 C18.131251,13.5306184 17.9142302,14.6313623 17.6950535,15.7426805 L23.8682892,15.7426805 C23.823376,15.4408031 23.7773848,15.156322 23.7396577,14.8708176 C23.6598918,14.2687683 23.4705375,13.7028761 23.1284783,13.1867851 C22.5510736,12.3149222 21.7045488,11.765403 20.7225656,11.3758617 C20.6072283,11.3304948 20.5702198,11.3867771 20.5195577,11.4625022 C20.1591738,12.0014472 19.6640502,12.3551725 18.9817282,12.4288511 C18.7790796,12.4506817 18.5717601,12.4322621 18.3479125,12.4322621 M9.14393097,3.9114736 C9.1335111,4.45826399 9.37568332,5.00403107 9.70660411,5.5156877 C10.6397217,6.95890052 11.829743,8.19574516 13.2012139,9.26578974 C14.6887406,10.426227 16.407301,11.2131549 18.1869434,11.8837662 C18.4866046,11.9966718 18.8020752,12.0253245 19.1171865,11.9390251 C19.8181925,11.7466422 20.2008533,11.2728482 20.3585886,10.6244087 C20.5353672,9.89922066 20.2159442,9.27295294 19.5027218,8.98267307 C18.3076702,8.49591706 17.1884321,7.87613032 16.0616486,7.26794113 C14.8367746,6.60688076 13.935276,5.67464237 13.3661353,4.44530202 C13.1922312,4.06906384 12.9662278,3.71056309 12.7265707,3.36775315 C12.3902603,2.88679591 11.9899935,2.4542755 11.4495973,2.16433674 C10.7442797,1.78502862 9.98398831,1.95660414 9.52910696,2.59481052 C9.26178333,2.96968428 9.14285306,3.38856052 9.14393097,3.9114736 M11.6296096,13.150628 C11.9745433,12.6775162 12.0683222,12.1402767 12.083413,11.5771133 C12.1035342,10.83794 12.1272484,10.0980845 12.1836594,9.36095788 C12.201984,9.12559582 12.1247332,8.98676632 11.9634048,8.82712945 C11.4125888,8.28204458 10.8653658,7.73218425 10.3479652,7.15878772 C9.77271641,6.52092244 9.26106472,5.83666697 8.92152058,5.052809 C8.5787427,4.26212895 8.54820169,3.46667343 8.91756822,2.67326454 C9.32933285,1.78843966 10.5380381,1.0049228 11.8746563,1.87132804 C12.4294247,2.2308521 12.8494533,2.70942161 13.2231315,3.23062917 C13.2608587,3.28384146 13.2996637,3.33705375 13.3614643,3.42198875 C13.4264987,3.18526228 13.4872214,2.98912724 13.5339312,2.79026336 C13.6611255,2.24415517 13.5439918,1.75057707 13.1469587,1.33204194 C12.6543502,0.812198802 12.0050843,0.582635525 11.2968923,0.500088254 C10.0601612,0.355801083 8.93840797,0.6655239 7.93163266,1.3439806 C7.06786113,1.92624585 6.42721861,2.70532836 5.87676187,3.55160843 C4.87501685,5.09203601 4.40720049,6.79994586 4.18155635,8.57471218 C4.07735762,9.39540942 4.02382103,10.2222465 3.95914596,11.0473781 C3.89626742,11.8520435 3.92968287,12.6498867 4.21281597,13.4224883 C4.48624781,14.1688247 4.76039825,14.9148201 5.03275217,15.6611566 C5.21420168,16.1588279 5.12221936,16.5787275 4.70219069,16.9546246 C3.47228638,18.0557096 2.25783224,19.1721444 1.04122225,20.2865326 C0.362493294,20.908707 0.304285728,21.6871073 0.874144982,22.3723861 C1.52341085,23.1531742 2.57042842,23.2718785 3.30413119,22.6517507 C4.14311061,21.9425946 4.9864017,21.238555 5.82466251,20.5287167 C6.53357317,19.9280318 7.20547532,19.2952831 7.76599262,18.5605442 C8.452267,17.6603696 8.73719663,16.6769656 8.51011526,15.5745161 C8.45478214,15.3057258 8.40771306,15.0355711 8.35705092,14.7657575 C8.81480671,15.1259637 9.24274011,15.5011786 9.66205017,15.8849211 C9.83200189,16.0401236 9.91967254,16.2423985 9.93979368,16.4665041 C9.9534473,16.6210244 9.96710093,16.7758858 9.96674162,16.9307473 C9.96135204,18.5868092 9.953088,20.2425301 9.94590188,21.8985921 C9.94446466,22.2847223 10.0145293,22.6534562 10.2847274,22.9587446 C10.7097864,23.4397019 11.2728188,23.5744381 11.9044787,23.5089461 C12.7078868,23.4253755 13.3061312,22.8311716 13.314036,22.0790363 C13.3330792,20.1957988 13.3395467,18.3122202 13.3452956,16.4286415 C13.34817,15.5213038 13.0481495,14.7108397 12.4319398,14.01294 C12.1768326,13.7243657 11.9066345,13.4473889 11.6296096,13.150628 M12.6457269,9.45714932 C12.625965,9.81326234 12.6022508,10.1414048 12.5911124,10.4695473 C12.5763808,10.9041143 12.574225,11.3386813 12.5605714,11.7732484 C12.5469177,12.2006522 12.4671518,12.6161174 12.2698928,13.0042942 C12.2260575,13.0909348 12.2695335,13.1322084 12.3198364,13.1901961 C12.5885972,13.5023067 12.8702931,13.8058896 13.1164177,14.133691 C13.6212426,14.8046434 13.8256876,15.5734928 13.8260469,16.3860035 C13.8271249,18.2955061 13.8188608,20.2050086 13.7958652,22.1141701 C13.7843675,23.0798367 12.9673057,23.8729045 11.9414872,23.969437 C11.4100737,24.0195794 10.906686,23.9486297 10.4449779,23.6880259 C9.75654764,23.2988257 9.46047953,22.7008697 9.46191675,21.9599909 C9.46550981,20.2885792 9.47628899,18.6171675 9.48203788,16.9454147 C9.4827565,16.8113607 9.46802495,16.6773067 9.46119814,16.5432526 C9.44826312,16.289812 9.27112528,16.142796 9.0609313,15.9807714 C9.0609313,16.1806586 9.06308713,16.3542808 9.06057199,16.5272207 C9.04835559,17.3738419 8.68581587,18.0997121 8.19212948,18.7785099 C7.63700178,19.5422427 6.94713433,20.19 6.22241421,20.8056935 C5.34894142,21.5479367 4.47115696,22.2854045 3.59193527,23.021849 C2.71774387,23.753859 1.42532033,23.64914 0.605384123,22.7844403 C-0.233235989,21.8996154 -0.199820535,20.7865917 0.700959509,19.9594134 C1.91253921,18.8477541 3.12555613,17.7374592 4.34971154,16.6380797 C4.636797,16.3802047 4.6906929,16.1107322 4.56349859,15.7720155 C4.28000618,15.0181747 4.00334059,14.2619462 3.73098668,13.5043533 C3.43491856,12.6809272 3.40832992,11.8302128 3.47623875,10.9740407 C3.54091382,10.1591422 3.59445041,9.34287934 3.69685261,8.53241523 C3.94657025,6.56219608 4.48409197,4.67725303 5.66584927,3.00481804 C6.27415427,2.14387047 6.96725546,1.35046158 7.91294875,0.801283461 C9.24669248,0.0262942094 10.6702627,-0.232262944 12.1876118,0.228569133 C12.888977,0.441418293 13.470334,0.824819666 13.8260469,1.45927389 C14.0976823,1.94364218 14.1242709,2.45598102 13.983423,2.98162294 C13.9015012,3.2869114 13.8127526,3.59049434 13.7387356,3.89748832 C13.7207703,3.97048466 13.7301123,4.06087734 13.7595753,4.13080374 C14.262963,5.31648272 15.1055355,6.22211497 16.2768729,6.85315815 C17.3943144,7.45554856 18.5020547,8.07465309 19.6892016,8.55458702 C20.6273495,8.93389514 21.0682179,9.80814578 20.8224526,10.7622149 C20.7840069,10.9116186 20.829998,10.9576677 20.9622226,11.0101978 C22.0498418,11.4423771 22.9678685,12.072738 23.5790479,13.0544366 C23.9340422,13.6244221 24.1147731,14.2465965 24.2042403,14.8987882 C24.2922703,15.5427934 24.3925166,16.1854341 24.4848583,16.8290981 C24.5674986,17.4065879 24.6469053,17.9840777 24.7270305,18.5615675 C24.7938614,19.0421836 24.8610516,19.5227998 24.9239302,20.0034159 C24.9365059,20.0972196 24.9972286,20.1009718 25.0734014,20.1054061 C25.9174111,20.1552074 26.6543477,20.7006333 26.9058618,21.4595907 C27.2921157,22.6261678 26.4455909,23.8626714 25.1740071,23.9892211 C24.0447085,24.1014445 23.040089,23.3264552 22.9143319,22.2461775 C22.7979168,21.2453771 23.4960483,20.4458283 24.3282009,20.2019387 C24.4367113,20.1705571 24.4877327,20.1425865 24.4686895,20.0126257 C24.3181403,18.9913591 24.1790889,17.9683869 24.037163,16.946097 C24.0105744,16.756784 23.9861416,16.567471 23.9649425,16.377817 C23.9512889,16.2560427 23.9146397,16.1922562 23.7561858,16.1925973 C21.7645528,16.1990783 19.7732792,16.1983961 17.7816463,16.1932795 C17.6443914,16.1932795 17.592292,16.2321654 17.5682185,16.3570096 C17.360899,17.4270542 17.1481899,18.4957344 16.9372773,19.5650967 C16.757265,20.47721 16.5783306,21.3896643 16.3983183,22.3017775 C16.301665,22.7926268 16.2039338,23.2831349 16.1036874,23.7889928 C15.9772117,23.7719376 15.8575629,23.7661388 15.7458187,23.734075 C15.7131219,23.7245241 15.6800657,23.6372013 15.6879704,23.5918344 C15.7404291,23.2868871 15.8043856,22.9833042 15.8640304,22.6793801 C16.1320726,21.3159857 16.3990369,19.9525913 16.6681571,18.589197 C16.9114072,17.35781 17.1568132,16.1267641 17.400782,14.8957183 C17.5653441,14.0644468 17.7263132,13.2328342 17.8959056,12.4029271 C17.9196198,12.2862694 17.8574598,12.2617099 17.7705078,12.2275995 C16.6800142,11.8042889 15.6085638,11.3393635 14.6089746,10.7461829 C13.9816264,10.3736969 13.3887716,9.94936301 12.7804666,9.5478831 C12.7456139,9.52537021 12.7118392,9.501834 12.6457269,9.45714932" id="Fill-1" fill="#000000" mask="url(#mask-2)"></path>
                </g>
                <path d="M14.0093222,0.51207438 C12.0953905,0.504488004 10.5195918,2.05779519 10.51234,3.95907363 C10.5051384,5.90299188 12.0554535,7.47723826 13.9868814,7.48718332 C15.8958685,7.49703531 17.4796546,5.92659606 17.486909,4.01618051 C17.4944883,2.08672934 15.9388483,0.519716506 14.0093222,0.51207438 M10.0000154,3.98991135 C10.0061165,1.76959579 11.7956731,-0.00718965547 14.0184506,2.18746969e-05 C16.2260141,0.00689670867 18.0053011,1.79967208 17.9999881,4.01161196 C17.9950316,6.21136904 16.1887396,8.00719012 13.9884028,7.99997835 C11.7835018,7.99272304 9.99394524,6.19385627 10.0000154,3.98991135" id="Fill-4" fill="#000000"></path>
            </g>
        </g>
    </g>
</svg>