<svg width="13" height="13" viewBox="0 0 13 13" fill="none" xmlns="http://www.w3.org/2000/svg">
<path fill-rule="evenodd" clip-rule="evenodd" d="M6.5 13C10.0899 13 13 10.0899 13 6.5C13 2.91015 10.0899 0 6.5 0C2.91015 0 0 2.91015 0 6.5C0 10.0899 2.91015 13 6.5 13ZM6.5 12C3.46243 12 1 9.53757 1 6.5C1 3.46243 3.46243 1 6.5 1C9.53757 1 12 3.46243 12 6.5C12 9.53757 9.53757 12 6.5 12ZM6.5 3.20048C6.77614 3.20048 7 3.42434 7 3.70048V6.95956L8.62383 8.58339C8.8191 8.77866 8.8191 9.09524 8.62383 9.2905C8.42857 9.48576 8.11199 9.48576 7.91673 9.2905L6.14645 7.52022C6.05268 7.42645 6 7.29927 6 7.16667V3.70048C6 3.42434 6.22386 3.20048 6.5 3.20048Z" fill="#AFAFAF"/>
</svg>
