<svg width="24" height="14" viewBox="0 0 24 14" fill="none" xmlns="http://www.w3.org/2000/svg">
<g id="211661_eye_icon">
<path id="Shape" fill-rule="evenodd" clip-rule="evenodd" d="M0 7C4.19464 2.66875 7.6125 0 12 0C17.2929 0 21.225 3.86094 24 7.07656C23.9123 7.16535 23.8234 7.25564 23.7331 7.34723C21.0331 10.0878 17.1787 14 12 14C6.81569 14 3.80878 10.9117 0.347761 7.35698C0.232378 7.23847 0.11649 7.11945 0 7ZM7.2 7C7.2 9.75078 9.35357 11.993 12 11.993C14.6464 11.993 16.8 9.75625 16.8 7C16.8 4.24922 14.6464 2.00703 12 2.00703C9.35357 2.00703 7.2 4.24375 7.2 7Z" fill="#6985C3"/>
<path id="Path" d="M12 5.24999C12 4.81796 12.1554 4.42421 12.4072 4.11796C12.2732 4.09608 12.1393 4.08514 12 4.08514C10.4572 4.08514 9.19824 5.39218 9.19824 6.99999C9.19824 8.6078 10.4572 9.91483 12 9.91483C13.5429 9.91483 14.8018 8.6078 14.8018 6.99999C14.8018 6.87421 14.7911 6.74843 14.7804 6.62264C14.4857 6.8578 14.1215 6.99999 13.7197 6.99999C12.7661 6.99999 12 6.21796 12 5.24999Z" fill="#6985C3"/>
</g>
</svg>
