<svg width="25" height="22" viewBox="0 0 25 22" fill="none" xmlns="http://www.w3.org/2000/svg">
<path fill-rule="evenodd" clip-rule="evenodd" d="M13.1123 2.23891C12.7477 1.97831 12.2529 1.97831 11.8873 2.23891L5.20819 7.00545V18.934C5.20819 19.4982 5.67485 19.956 6.24984 19.956H8.33315V13.8241C8.33315 12.1307 9.7321 10.7582 11.4581 10.7582H13.5414C15.2675 10.7582 16.6664 12.1307 16.6664 13.8241V19.956H18.7497C19.3247 19.956 19.7914 19.4982 19.7914 18.934V7.00545L13.1123 2.23891ZM21.8747 8.49141L23.3455 9.54099C23.8101 9.87313 24.4621 9.77196 24.8007 9.31513C25.1392 8.85933 25.0361 8.21956 24.5705 7.88742L14.3383 0.586363C13.2414 -0.195454 11.7581 -0.195454 10.6613 0.586363L0.429077 7.88742C-0.0365423 8.21956 -0.138624 8.85933 0.198872 9.31513C0.53741 9.77196 1.18949 9.87313 1.65406 9.54099L3.12488 8.49141V18.934C3.12488 20.6275 4.52382 22 6.24985 22H18.7497C20.4757 22 21.8747 20.6275 21.8747 18.934V8.49141ZM14.5831 19.956V13.8241C14.5831 13.26 14.1164 12.8021 13.5414 12.8021H11.4581C10.8831 12.8021 10.4165 13.26 10.4165 13.8241V19.956H14.5831V19.956Z" fill="#6CC1B0"/>
</svg>
