<svg width="10" height="13" viewBox="0 0 10 13" fill="none" xmlns="http://www.w3.org/2000/svg">
<path fill-rule="evenodd" clip-rule="evenodd" d="M5 1.09681C2.85222 1.09681 1.11111 2.81333 1.11111 4.93567C1.11111 6.48766 1.81167 7.99578 2.67944 9.25163C3.52222 10.4801 4.48889 11.4233 5 11.884C5.51111 11.4233 6.47778 10.4801 7.32056 9.25163C8.18833 7.99578 8.88889 6.48766 8.88889 4.93567C8.88889 2.81333 7.14778 1.09681 5 1.09681ZM0 4.93567C0 2.21008 2.23833 0 5 0C7.76167 0 10 2.21008 10 4.93567C10 6.80025 9.16611 8.52225 8.24 9.87134C7.30889 11.2204 6.24778 12.2459 5.71111 12.7285C5.305 13.0905 4.695 13.0905 4.28889 12.7285C3.75222 12.2459 2.69111 11.2204 1.76 9.87134C0.833889 8.52225 0 6.80025 0 4.93567ZM5 3.83885C4.38667 3.83885 3.88889 4.33242 3.88889 4.93567C3.88889 5.53892 4.38667 6.03248 5 6.03248C5.61333 6.03248 6.11111 5.53892 6.11111 4.93567C6.11111 4.33242 5.61333 3.83885 5 3.83885ZM2.77778 4.93567C2.77778 3.72369 3.77278 2.74204 5 2.74204C6.22722 2.74204 7.22222 3.72369 7.22222 4.93567C7.22222 6.14765 6.22722 7.1293 5 7.1293C3.77278 7.1293 2.77778 6.14765 2.77778 4.93567Z" fill="#6CC1B0"/>
</svg>
