<svg width="18" height="18" viewBox="0 0 18 18" fill="none" xmlns="http://www.w3.org/2000/svg">
<path d="M11.2741 0.808281C12.348 -0.269429 14.0893 -0.269429 15.1633 0.808293C16.2372 1.886 16.2372 3.63332 15.1633 4.71103L13.7329 6.14641L13.8294 6.24327C14.708 7.125 14.708 8.55457 13.8294 9.43634L12.2102 11.0612C11.9905 11.2817 11.6343 11.2817 11.4146 11.0612C11.195 10.8407 11.195 10.4834 11.4146 10.2629L13.0339 8.63804C13.4732 8.19718 13.4732 7.48239 13.0339 7.04153L12.9374 6.94467L5.46021 14.4479C5.38813 14.5201 5.2978 14.5715 5.1989 14.5963L0.698934 15.7253C0.499765 15.7752 0.289279 15.7123 0.149791 15.5611C0.0103036 15.4099 -0.0360461 15.1946 0.0288772 14.9991L1.43512 10.7657C1.46274 10.6827 1.50925 10.607 1.571 10.5452L11.2741 0.808281Z" fill="white"/>
<path d="M1.42694 16.7632C1.40755 16.7489 1.38836 16.7348 1.36937 16.7207L2.88672 16.3401C3.49194 16.6453 4.22321 16.8711 5.06245 16.8711C5.63283 16.8711 6.20309 16.6707 6.788 16.3364C7.37541 16.0008 7.94011 15.5526 8.5046 15.0925L8.65101 14.9728C9.15147 14.5637 9.66582 14.1433 10.1558 13.8536C10.6865 13.5398 11.3295 13.2923 11.9903 13.5135C12.9143 13.8226 13.2063 14.676 13.4763 15.5803C13.5379 15.787 13.6438 15.9911 13.7691 16.1325C13.8938 16.273 13.9939 16.3068 14.0624 16.3068C14.2727 16.3068 14.5753 16.1918 14.9595 15.9645C15.2021 15.8209 15.413 15.6747 15.621 15.5303C15.7481 15.4421 15.8745 15.3545 16.0063 15.2687C16.3639 15.0361 16.6724 14.8807 16.8961 14.7823C17.0081 14.7331 17.0991 14.6979 17.1646 14.6744C17.1973 14.6626 17.2237 14.6537 17.2433 14.6474L17.2674 14.6397L17.2755 14.6373L17.2784 14.6364L17.2798 14.6361L17.4374 15.1778C17.2808 14.6357 17.2799 14.636 17.2798 14.6361C17.5781 14.5493 17.8912 14.7213 17.9776 15.0207C18.0639 15.3193 17.8933 15.6314 17.5966 15.7193L17.5888 15.7216C17.5804 15.7245 17.5652 15.7294 17.544 15.7371C17.5015 15.7523 17.4348 15.778 17.3479 15.8161C17.174 15.8927 16.92 16.0197 16.6185 16.2159C16.5387 16.2678 16.4369 16.338 16.3219 16.4174C16.0881 16.5788 15.7994 16.778 15.531 16.9369C15.1235 17.178 14.5959 17.4357 14.0624 17.4357C13.5684 17.4357 13.1859 17.173 12.9289 16.8831C12.6722 16.5938 12.4969 16.2336 12.3985 15.9043C12.1032 14.9149 11.9328 14.6842 11.6346 14.5844C11.4515 14.5232 11.1805 14.558 10.7269 14.8262C10.3146 15.07 9.86742 15.4351 9.34564 15.8612L9.21402 15.9686C8.65349 16.4256 8.0229 16.9299 7.34469 17.3175C6.66398 17.7065 5.89832 18 5.06245 18C3.50123 18 2.26249 17.3729 1.42694 16.7632Z" fill="white"/>
</svg>
