<svg width="191" height="49" viewBox="0 0 191 49" fill="none" xmlns="http://www.w3.org/2000/svg">
<path d="M39.1523 17.2559C38.8203 17.9004 38.4297 18.4473 37.9805 18.8965C37.5508 19.3262 37.082 19.7363 36.5742 20.127C36.0859 20.498 35.5879 20.8691 35.0801 21.2402C34.5723 21.5918 34.0938 22.0117 33.6445 22.5C33.3711 22.5195 33.0879 22.5879 32.7949 22.7051C32.5215 22.8027 32.248 22.9297 31.9746 23.0859C31.7012 23.2227 31.4277 23.3789 31.1543 23.5547C30.9004 23.7109 30.666 23.8574 30.4512 23.9941V24.0234L30.3047 24.2285C30.168 24.0918 30.0312 24.043 29.8945 24.082C29.7773 24.1016 29.6602 24.1602 29.543 24.2578C29.4258 24.3555 29.3086 24.4629 29.1914 24.5801C29.0938 24.6777 28.9961 24.7363 28.8984 24.7559L28.8691 24.7852V24.8145C28.4395 25.5566 27.9219 26.1914 27.3164 26.7188C26.7305 27.2266 26.1055 27.6953 25.4414 28.125C24.7969 28.5547 24.1328 28.9844 23.4492 29.4141C22.7656 29.8242 22.1309 30.3027 21.5449 30.8496C21.2129 30.5176 20.9004 30.3809 20.6074 30.4395C20.3145 30.498 20.002 30.6543 19.6699 30.9082C19.377 31.123 19.123 31.25 18.9082 31.2891C18.7129 31.3477 18.4297 31.2891 18.0586 31.1133L18 31.084C17.8047 31.2012 17.6094 31.2207 17.4141 31.1426C17.2188 31.084 17.0234 31.0059 16.8281 30.9082C16.6328 30.8301 16.4277 30.7812 16.2129 30.7617C16.0176 30.7617 15.8125 30.8887 15.5977 31.1426C15.4805 31.1035 15.3535 31.0449 15.2168 30.9668C15.0996 30.9082 14.9727 30.8594 14.8359 30.8203C14.6992 30.7812 14.5625 30.7617 14.4258 30.7617C14.2891 30.7812 14.1523 30.8496 14.0156 30.9668C13.957 30.8105 13.8691 30.7031 13.752 30.6445C13.6348 30.6055 13.5566 30.5273 13.5176 30.4102L13.4883 30.3809C12.9219 30.3809 12.2871 30.2832 11.584 30.0879C10.9004 29.8926 10.3047 29.6289 9.79688 29.2969C9.69922 29.2188 9.5918 29.1406 9.47461 29.0625C9.37695 28.9648 9.2793 28.8672 9.18164 28.7695L8.97656 29.0625C8.48828 28.7695 8.03906 28.4375 7.62891 28.0664C7.21875 27.6953 6.81836 27.3047 6.42773 26.8945C6.05664 26.4844 5.67578 26.0742 5.28516 25.6641C4.91406 25.2539 4.51367 24.8633 4.08398 24.4922C3.9668 23.6328 3.68359 22.8516 3.23438 22.1484C2.78516 21.4453 2.3457 20.752 1.91602 20.0684C1.4668 19.3848 1.10547 18.6719 0.832031 17.9297C0.558594 17.1875 0.529297 16.3379 0.744141 15.3809C1.21289 15.2441 1.58398 15.4004 1.85742 15.8496L2.0918 15.5273C2.32617 15.8008 2.48242 16.1523 2.56055 16.582C2.61914 16.9922 2.69727 17.3926 2.79492 17.7832C2.87305 18.1738 3.00977 18.5156 3.20508 18.8086C3.40039 19.082 3.75195 19.209 4.25977 19.1895C4.33789 19.6387 4.47461 20.0391 4.66992 20.3906C4.88477 20.7227 5.12891 21.0352 5.40234 21.3281C5.67578 21.6016 5.97852 21.8652 6.31055 22.1191C6.64258 22.373 6.97461 22.6172 7.30664 22.8516C7.61914 23.0859 7.99023 23.3594 8.41992 23.6719C8.84961 23.9844 9.16211 24.3066 9.35742 24.6387L9.38672 24.6973C10.1875 24.6973 10.8613 24.7852 11.4082 24.9609C11.9746 25.1367 12.6094 25.4004 13.3125 25.752L13.4297 25.8105C13.4492 25.7129 13.498 25.6055 13.5762 25.4883C13.6738 25.3516 13.7617 25.2637 13.8398 25.2246C14.0352 25.1465 14.2695 25.166 14.543 25.2832C14.8164 25.4004 15.0898 25.5078 15.3633 25.6055C15.6562 25.7031 15.9199 25.7324 16.1543 25.6934C16.3887 25.6543 16.5645 25.4395 16.6816 25.0488C16.9746 25.0879 17.2871 25.1172 17.6191 25.1367C17.9707 25.1562 18.3125 25.1465 18.6445 25.1074C18.9766 25.0488 19.2793 24.9609 19.5527 24.8438C19.8457 24.707 20.0996 24.5215 20.3145 24.2871C20.627 24.5605 20.8906 24.6387 21.1055 24.5215C21.3203 24.3848 21.5156 24.2285 21.6914 24.0527C21.8867 23.877 22.0723 23.7598 22.248 23.7012C22.4238 23.623 22.6387 23.7891 22.8926 24.1992C23.1074 24.1016 23.3516 24.0039 23.625 23.9062C23.918 23.8086 24.1719 23.7109 24.3867 23.6133C24.8945 23.3984 25.4609 23.1934 26.0859 22.998C26.7109 22.7832 27.2969 22.6758 27.8438 22.6758C27.9609 22.5781 28.0977 22.4414 28.2539 22.2656C28.4102 22.0703 28.5566 21.875 28.6934 21.6797C28.8496 21.4648 28.9766 21.2598 29.0742 21.0645C29.1719 20.8496 29.2207 20.6738 29.2207 20.5371C29.3574 20.3418 29.4941 20.166 29.6309 20.0098C29.7676 19.834 29.8945 19.6582 30.0117 19.4824C30.1289 19.3066 30.2266 19.1309 30.3047 18.9551C30.3828 18.7598 30.4219 18.5254 30.4219 18.252C30.8125 17.8027 31.1055 17.2852 31.3008 16.6992C31.5156 16.0938 31.5742 15.4883 31.4766 14.8828C31.6133 14.707 31.7695 14.4531 31.9453 14.1211C32.1211 13.7891 32.2871 13.4375 32.4434 13.0664C32.5996 12.6953 32.7266 12.3438 32.8242 12.0117C32.9414 11.6602 33 11.3965 33 11.2207C33 11.0059 32.9707 10.8496 32.9121 10.752C32.8535 10.6348 32.7168 10.5176 32.502 10.4004C32.248 10.2637 32.043 10.2539 31.8867 10.3711C31.75 10.4883 31.6328 10.625 31.5352 10.7812C31.4375 10.918 31.3398 11.0254 31.2422 11.1035C31.1445 11.1621 31.0273 11.0742 30.8906 10.8398C30.8906 10.8789 30.8613 10.9082 30.8027 10.9277C30.4512 11.2793 30.041 11.6113 29.5723 11.9238C29.123 12.2168 28.6348 12.4902 28.1074 12.7441C27.5996 12.998 27.082 13.2227 26.5547 13.418C26.0273 13.5938 25.5195 13.7305 25.0312 13.8281H25.002C24.9043 13.9648 24.8066 14.1113 24.709 14.2676C24.6113 14.4043 24.5039 14.541 24.3867 14.6777C24.1133 14.4824 23.957 14.2188 23.918 13.8867C23.8789 13.5547 23.8203 13.2422 23.7422 12.9492C23.918 12.5781 24.1035 12.2852 24.2988 12.0703C24.4941 11.8555 24.6992 11.6699 24.9141 11.5137C25.1289 11.3379 25.3633 11.1816 25.6172 11.0449C25.8711 10.9082 26.1445 10.7324 26.4375 10.5176C26.6523 10.6934 26.8184 10.7617 26.9355 10.7227C27.0723 10.6836 27.1797 10.6055 27.2578 10.4883C27.3555 10.3516 27.4336 10.2148 27.4922 10.0781C27.5703 9.92188 27.668 9.82422 27.7852 9.78516C28.1367 9.96094 28.4297 9.99023 28.6641 9.87305C28.918 9.73633 29.1523 9.57031 29.3672 9.375C29.6016 9.16016 29.8359 8.97461 30.0703 8.81836C30.3242 8.66211 30.627 8.65234 30.9785 8.78906L31.0371 8.81836C31.291 8.56445 31.6133 8.32031 32.0039 8.08594C32.3945 7.83203 32.8047 7.63672 33.2344 7.5C33.6641 7.34375 34.084 7.28516 34.4941 7.32422C34.9043 7.34375 35.2559 7.5 35.5488 7.79297C35.5488 9.29688 35.4023 10.7129 35.1094 12.041C34.8359 13.3691 34.3379 14.6973 33.6152 16.0254V16.0547C33.5762 16.2305 33.5078 16.4062 33.4102 16.582C33.332 16.7578 33.2441 16.9336 33.1465 17.1094C33.0293 17.3438 32.9316 17.5586 32.8535 17.7539C32.7754 17.9492 32.707 18.1445 32.6484 18.3398C32.6094 18.5352 32.5801 18.7402 32.5605 18.9551C32.5605 19.1699 32.5605 19.4141 32.5605 19.6875C32.3262 19.8438 32.1992 20.0781 32.1797 20.3906C32.1602 20.6836 32.1016 20.957 32.0039 21.2109L32.0332 21.2402C32.209 21.416 32.3555 21.5137 32.4727 21.5332C32.5898 21.5332 32.6875 21.4844 32.7656 21.3867C32.8633 21.2891 32.9512 21.1719 33.0293 21.0352C33.1074 20.8789 33.1855 20.7324 33.2637 20.5957H33.293C33.6445 20.2441 34.0254 19.9512 34.4355 19.7168C34.8457 19.4824 35.2656 19.2578 35.6953 19.043C36.125 18.8281 36.5449 18.6035 36.9551 18.3691C37.3848 18.1348 37.7852 17.8418 38.1562 17.4902C38.332 17.4512 38.5078 17.4414 38.6836 17.4609C38.8594 17.4805 38.9863 17.3926 39.0645 17.1973L39.1523 17.2559ZM26.0566 25.0781C25.9395 25.0195 25.6367 25.0684 25.1484 25.2246C24.6797 25.3613 24.1621 25.5371 23.5957 25.752C23.0293 25.9473 22.4922 26.1328 21.9844 26.3086C21.4766 26.4844 21.1445 26.5723 20.9883 26.5723C20.7734 26.5723 20.6074 26.582 20.4902 26.6016C20.373 26.6016 20.207 26.5527 19.9922 26.4551C20.0117 26.4941 20.0215 26.5625 20.0215 26.6602C20.0215 26.7383 20.0312 26.7969 20.0508 26.8359C20.0117 26.9727 19.8945 27.0703 19.6992 27.1289C19.5234 27.1875 19.3867 27.1387 19.2891 26.9824C19.2891 26.7676 19.3574 26.6016 19.4941 26.4844C19.6309 26.3672 19.6992 26.2207 19.6992 26.0449C19.582 26.0645 19.4746 26.0547 19.377 26.0156C19.2793 25.9766 19.1621 26.0156 19.0254 26.1328C18.9277 26.2109 18.8691 26.3379 18.8496 26.5137C18.8301 26.6699 18.8105 26.8262 18.791 26.9824C18.7715 27.1387 18.7324 27.2754 18.6738 27.3926C18.6152 27.5098 18.5078 27.5684 18.3516 27.5684C18.1953 27.5684 18.0488 27.5586 17.9121 27.5391C17.7754 27.5 17.6289 27.4805 17.4727 27.4805C17.1406 27.4609 16.8086 27.4707 16.4766 27.5098C16.1641 27.5488 15.8418 27.5977 15.5098 27.6562C15.4121 27.6758 15.3047 27.6953 15.1875 27.7148C15.0703 27.7148 14.9531 27.7344 14.8359 27.7734C14.7969 27.6758 14.7285 27.5684 14.6309 27.4512C14.5527 27.334 14.4355 27.2754 14.2793 27.2754C14.2012 27.2754 14.1328 27.3145 14.0742 27.3926C14.0156 27.4512 13.957 27.5293 13.8984 27.627C13.8594 27.7051 13.8105 27.7832 13.752 27.8613C13.7129 27.9395 13.6641 27.9785 13.6055 27.9785C13.5664 27.998 13.4785 27.9199 13.3418 27.7441C13.2051 27.5488 13.1172 27.4316 13.0781 27.3926C12.9219 27.666 12.7656 27.8223 12.6094 27.8613C12.4531 27.8809 12.209 27.832 11.877 27.7148L9.18164 26.6895C9.5332 26.9238 9.875 27.1484 10.207 27.3633C10.5586 27.5781 10.9004 27.793 11.2324 28.0078C11.291 28.0469 11.3398 28.0957 11.3789 28.1543C11.4375 28.2129 11.5059 28.2617 11.584 28.3008C11.7793 28.3984 12.0527 28.4863 12.4043 28.5645C12.7559 28.6426 13.0391 28.6328 13.2539 28.5352C13.4688 28.4375 13.625 28.3984 13.7227 28.418C13.8398 28.418 13.9863 28.5059 14.1621 28.6816L14.3672 28.3887C14.4453 28.4277 14.5234 28.4863 14.6016 28.5645C14.7383 28.5254 14.875 28.4961 15.0117 28.4766C15.1484 28.457 15.2461 28.3887 15.3047 28.2715C15.7734 28.623 16.2129 29.0039 16.623 29.4141C16.7793 29.1797 16.877 29.0527 16.916 29.0332C16.9746 28.9941 17.1113 29.082 17.3262 29.2969C17.4434 29.0234 17.5898 28.8867 17.7656 28.8867C17.9414 28.8867 18.1172 28.916 18.293 28.9746C18.4883 29.0332 18.6836 29.0723 18.8789 29.0918C19.0938 29.0918 19.2891 28.9551 19.4648 28.6816C19.5625 28.6426 19.6602 28.5742 19.7578 28.4766C19.875 28.3594 19.9922 28.2617 20.1094 28.1836C20.2266 28.0859 20.334 28.0371 20.4316 28.0371C20.5488 28.0371 20.6562 28.125 20.7539 28.3008C20.8516 28.2031 20.9492 28.125 21.0469 28.0664C21.1445 27.9883 21.2422 27.9199 21.3398 27.8613C21.4375 27.8027 21.6035 27.7539 21.8379 27.7148C22.0723 27.6562 22.3066 27.5977 22.541 27.5391C22.7754 27.4805 22.9805 27.4121 23.1562 27.334C23.3516 27.2363 23.4492 27.1094 23.4492 26.9531C23.8789 26.7188 24.3184 26.4258 24.7676 26.0742C25.2363 25.7227 25.666 25.3906 26.0566 25.0781ZM55.9685 26.5137C55.5583 27.3926 55.1677 28.0859 54.7966 28.5938C54.4255 29.1016 54.0056 29.5312 53.5368 29.8828C53.0876 30.2148 52.5408 30.5273 51.8962 30.8203C51.2517 31.1133 50.4411 31.4844 49.4646 31.9336C49.074 31.8359 48.6931 31.8066 48.322 31.8457C47.9509 31.9043 47.5896 31.9434 47.238 31.9629C46.906 31.9824 46.5837 31.9434 46.2712 31.8457C45.9587 31.7676 45.6755 31.5332 45.4216 31.1426H44.9822C45.0017 30.8887 44.9724 30.6152 44.8943 30.3223C44.8357 30.0488 44.6501 29.8926 44.3376 29.8535C44.5329 29.6387 44.6599 29.4043 44.7185 29.1504C44.7771 28.877 44.8161 28.6035 44.8357 28.3301C44.8747 28.0566 44.9236 27.793 44.9822 27.5391C45.0408 27.2852 45.1872 27.0703 45.4216 26.8945C45.1872 26.582 45.0896 26.2695 45.1286 25.957C45.1872 25.625 45.2947 25.3027 45.4509 24.9902C45.6267 24.6582 45.8025 24.3359 45.9783 24.0234C46.1736 23.6914 46.2712 23.3594 46.2712 23.0273C46.0954 22.9102 45.9294 22.7539 45.7732 22.5586C45.6365 22.3438 45.4411 22.2852 45.1872 22.3828C44.6599 22.8906 44.1326 23.3789 43.6052 23.8477C43.0779 24.2969 42.5603 24.7656 42.0525 25.2539C41.5642 25.7422 41.0954 26.2598 40.6462 26.8066C40.2165 27.334 39.8161 27.9199 39.4451 28.5645C39.113 28.623 38.8591 28.7793 38.6833 29.0332C38.5076 29.2871 38.3513 29.5605 38.2146 29.8535C38.0779 30.127 37.9216 30.3906 37.7458 30.6445C37.5896 30.8984 37.365 31.0645 37.072 31.1426C36.9743 31.4551 36.8767 31.7676 36.779 32.0801C36.6618 32.4121 36.5544 32.7344 36.4568 33.0469C36.3396 32.9883 36.1931 32.9395 36.0173 32.9004C35.822 32.8613 35.6365 32.8125 35.4607 32.7539C35.2849 32.6953 35.1286 32.6172 34.9919 32.5195C34.8552 32.4414 34.7673 32.334 34.7283 32.1973C34.7087 32.1582 34.7087 32.0703 34.7283 31.9336C34.7283 31.8164 34.7283 31.7383 34.7283 31.6992C34.7673 31.1523 34.9138 30.6348 35.1677 30.1465C35.4021 29.6777 35.656 29.2188 35.9294 28.7695C36.2029 28.3008 36.4568 27.832 36.6911 27.3633C36.9255 26.8945 37.0525 26.377 37.072 25.8105C37.365 25.8105 37.5505 25.7227 37.6286 25.5469C37.7263 25.3711 37.7947 25.1855 37.8337 24.9902C37.8923 24.7949 37.9607 24.6191 38.0388 24.4629C38.1169 24.3066 38.2927 24.248 38.5661 24.2871C38.3904 24.0527 38.3122 23.7988 38.3318 23.5254C38.3708 23.2324 38.449 22.9492 38.5661 22.6758C38.6833 22.3828 38.8298 22.1094 39.0056 21.8555C39.1814 21.582 39.3279 21.3379 39.4451 21.123C39.4255 20.8496 39.4451 20.5762 39.5036 20.3027C39.5818 20.0293 39.7087 19.7852 39.8845 19.5703C40.0603 19.3555 40.2165 19.1504 40.3533 18.9551C40.49 18.7598 40.6267 18.5547 40.7634 18.3398C40.8415 18.2422 40.9001 18.1348 40.9392 18.0176C40.9978 17.9004 41.0564 17.793 41.115 17.6953C41.2908 17.4414 41.4079 17.1777 41.4665 16.9043C41.5251 16.6113 41.5837 16.3281 41.6423 16.0547C41.7204 15.7617 41.8181 15.5078 41.9353 15.293C42.072 15.0586 42.3064 14.873 42.6384 14.7363C42.6384 14.5215 42.6677 14.3262 42.7263 14.1504C42.8044 13.9551 42.8826 13.7598 42.9607 13.5645C43.0388 13.3691 43.1072 13.1836 43.1658 13.0078C43.2439 12.8125 43.2829 12.6074 43.2829 12.3926C43.3415 12.2949 43.4294 12.1973 43.5466 12.0996C43.6638 12.002 43.7712 11.9043 43.8689 11.8066C43.9665 11.709 44.0447 11.6113 44.1033 11.5137C44.1618 11.3965 44.1716 11.2598 44.1326 11.1035C44.1521 10.8496 44.1423 10.5859 44.1033 10.3125C44.0837 10.0391 44.1618 9.80469 44.3376 9.60938C44.2986 9.35547 44.3279 9.15039 44.4255 8.99414C44.5427 8.83789 44.6794 8.70117 44.8357 8.58398C44.9919 8.4668 45.1579 8.35938 45.3337 8.26172C45.529 8.14453 45.6951 8.01758 45.8318 7.88086C45.7341 7.74414 45.7146 7.58789 45.7732 7.41211C45.8318 7.23633 45.9099 7.07031 46.0076 6.91406C46.1247 6.73828 46.2517 6.57227 46.3884 6.41602C46.5251 6.25977 46.6228 6.12305 46.6814 6.00586C46.7986 5.77148 46.8962 5.53711 46.9743 5.30273C47.072 5.06836 47.1794 4.85352 47.2966 4.6582C47.4138 4.44336 47.5505 4.24805 47.7068 4.07227C47.8826 3.89648 48.1072 3.75 48.3806 3.63281C48.3025 3.24219 48.322 2.93945 48.4392 2.72461C48.5759 2.50977 48.7517 2.32422 48.9665 2.16797C49.2009 2.01172 49.4451 1.86523 49.699 1.72852C49.9529 1.57227 50.1579 1.35742 50.3142 1.08398C50.529 1.02539 50.7634 0.966797 51.0173 0.908203C51.2712 0.830078 51.5251 0.78125 51.779 0.761719C52.0329 0.722656 52.2771 0.722656 52.5115 0.761719C52.7458 0.800781 52.9607 0.908203 53.156 1.08398C53.2341 1.16211 53.2829 1.21094 53.3025 1.23047C53.322 1.25 53.3318 1.26953 53.3318 1.28906C53.3318 1.28906 53.3318 1.30859 53.3318 1.34766C53.3513 1.36719 53.4001 1.41602 53.4783 1.49414C53.5564 1.57227 53.6345 1.65039 53.7126 1.72852C53.7908 1.78711 53.8689 1.86523 53.947 1.96289C53.9665 2.09961 53.9665 2.25586 53.947 2.43164C53.9275 2.58789 53.9177 2.74414 53.9177 2.90039C53.9177 3.05664 53.9372 3.20313 53.9763 3.33984C54.0349 3.47656 54.1618 3.57422 54.3572 3.63281C54.2009 4.19922 54.1326 4.80469 54.1521 5.44922C54.1716 6.09375 54.1814 6.74805 54.1814 7.41211C54.1814 8.05664 54.1326 8.68164 54.0349 9.28711C53.9372 9.89258 53.6833 10.4297 53.2732 10.8984L53.0681 12.3926C52.8142 12.4121 52.6384 12.5 52.5408 12.6562C52.4431 12.793 52.3747 12.959 52.3357 13.1543C52.2966 13.3496 52.2576 13.5547 52.2185 13.7695C52.199 13.9844 52.1306 14.1602 52.0134 14.2969C51.8572 14.4922 51.7009 14.7168 51.5447 14.9707C51.3884 15.2246 51.2224 15.459 51.0466 15.6738C50.8708 15.8887 50.6658 16.0742 50.4314 16.2305C50.2165 16.3672 49.9626 16.4355 49.6697 16.4355C49.6306 16.5527 49.5525 16.6895 49.4353 16.8457C49.3181 17.002 49.1814 17.1582 49.0251 17.3145C48.8884 17.4512 48.7419 17.5781 48.5857 17.6953C48.4294 17.793 48.2927 17.8613 48.1755 17.9004C48.0193 17.959 47.8728 18.0078 47.7361 18.0469C47.6189 18.0664 47.4822 18.125 47.3259 18.2227C47.1501 18.3203 46.9743 18.4473 46.7986 18.6035C46.6228 18.7598 46.4372 18.8965 46.2419 19.0137C46.0466 19.1309 45.8415 19.2188 45.6267 19.2773C45.4118 19.3164 45.197 19.2871 44.9822 19.1895C44.7283 19.502 44.4353 19.6973 44.1033 19.7754C43.7908 19.834 43.4783 19.8828 43.1658 19.9219C42.8728 19.9414 42.5896 20.0098 42.3161 20.127C42.0622 20.2246 41.8669 20.459 41.7302 20.8301C41.6911 20.8691 41.6521 20.957 41.613 21.0938C41.5935 21.2109 41.5837 21.2891 41.5837 21.3281C41.5837 21.543 41.574 21.8066 41.5544 22.1191C41.5349 22.4316 41.613 22.666 41.7888 22.8223C42.4919 22.4902 43.156 22.0996 43.781 21.6504C44.4255 21.1816 45.1091 20.791 45.8318 20.4785L46.0368 20.7129C46.0954 20.2832 46.281 20.0684 46.5935 20.0684C46.906 20.0488 47.2283 20.0488 47.5603 20.0684H47.7654C47.8044 20.0684 47.8337 20.0684 47.8533 20.0684C47.8923 20.0488 47.9314 20.0391 47.9704 20.0391C48.3415 20.0391 48.5857 20.1855 48.7029 20.4785C48.8201 20.7715 48.9275 21.0547 49.0251 21.3281C48.8103 21.5625 48.6345 21.8457 48.4978 22.1777C48.3806 22.4902 48.2634 22.8223 48.1462 23.1738C48.0486 23.5254 47.9314 23.877 47.7947 24.2285C47.6775 24.5605 47.5115 24.873 47.2966 25.166C47.4724 25.2637 47.5505 25.3711 47.531 25.4883C47.5115 25.6055 47.4724 25.7227 47.4138 25.8398C47.3747 25.957 47.365 26.0742 47.3845 26.1914C47.404 26.2891 47.531 26.3672 47.7654 26.4258C47.5701 26.5625 47.4333 26.7285 47.3552 26.9238C47.2966 27.0996 47.238 27.2949 47.1794 27.5098C47.1404 27.7051 47.0915 27.9004 47.0329 28.0957C46.9743 28.2715 46.8572 28.4277 46.6814 28.5645C46.7595 28.7402 46.8181 28.916 46.8572 29.0918C46.9158 29.248 46.9255 29.4336 46.8865 29.6484C47.1599 30 47.4333 30.1953 47.7068 30.2344C47.9997 30.2734 48.2829 30.2539 48.5564 30.1758C48.8298 30.0977 49.113 30.0195 49.406 29.9414C49.699 29.8633 50.0017 29.8828 50.3142 30C50.8611 29.6289 51.2419 29.4043 51.4568 29.3262C51.6716 29.248 51.8376 29.1895 51.9548 29.1504C52.0915 29.1113 52.2478 29.0234 52.4236 28.8867C52.5993 28.75 52.9314 28.4473 53.4197 27.9785C53.9079 27.8418 54.3376 27.6172 54.7087 27.3047C55.0993 26.9922 55.5193 26.7285 55.9685 26.5137ZM51.6033 2.57812C51.6228 2.8125 51.5642 2.99805 51.4275 3.13477C51.3103 3.25195 51.1736 3.36914 51.0173 3.48633C50.8611 3.58398 50.7048 3.69141 50.5486 3.80859C50.4118 3.90625 50.3337 4.0625 50.3142 4.27734C50.0603 4.39453 49.8943 4.55078 49.8161 4.74609C49.738 4.94141 49.6697 5.14648 49.6111 5.36133C49.572 5.55664 49.5036 5.75195 49.406 5.94727C49.3083 6.14258 49.113 6.29883 48.8201 6.41602L49.0251 6.62109C48.3806 7.20703 47.863 7.90039 47.4724 8.70117C47.1013 9.50195 46.7693 10.3027 46.4763 11.1035C46.2029 11.3965 46.0076 11.7285 45.8904 12.0996C45.7732 12.4512 45.656 12.8125 45.5388 13.1836C45.4411 13.5352 45.3044 13.877 45.1286 14.209C44.9724 14.5215 44.7087 14.7656 44.3376 14.9414C44.5329 15.1953 44.6013 15.4297 44.5427 15.6445C44.5036 15.8594 44.406 16.0645 44.2497 16.2598C44.0935 16.4551 43.9275 16.6504 43.7517 16.8457C43.5954 17.041 43.5076 17.2559 43.488 17.4902C43.8591 17.5684 44.2204 17.5586 44.572 17.4609C44.9431 17.3633 45.3044 17.2266 45.656 17.0508C46.0076 16.8555 46.3396 16.6406 46.6521 16.4062C46.9646 16.1719 47.2673 15.9668 47.5603 15.791L47.7654 15.9961C48.6443 15.5078 49.3669 14.9219 49.9333 14.2383C50.5193 13.5352 51.0759 12.7734 51.6033 11.9531C51.4275 11.8164 51.3493 11.6699 51.3689 11.5137C51.4079 11.416 51.4568 11.2988 51.5154 11.1621C51.574 11.0254 51.6228 10.9082 51.6618 10.8105C51.8572 10.2246 52.0036 9.67773 52.1013 9.16992C52.3552 8.11523 52.531 7.06055 52.6286 6.00586C52.7458 4.93164 52.824 3.85742 52.863 2.7832L51.6033 2.57812ZM75.1577 26.9238C74.8842 27.3926 74.6694 27.7734 74.5131 28.0664C74.3764 28.3398 74.2299 28.5742 74.0737 28.7695C73.937 28.9453 73.771 29.1113 73.5756 29.2676C73.3999 29.4043 73.146 29.5801 72.8139 29.7949C72.5991 29.9902 72.3842 30.1562 72.1694 30.293C71.9936 30.4297 71.8178 30.5469 71.6421 30.6445C71.4858 30.7422 71.3589 30.791 71.2612 30.791C71.2221 30.791 71.1831 30.7812 71.144 30.7617C71.1049 30.7617 71.0659 30.7617 71.0268 30.7617C70.9096 30.7617 70.7924 30.7617 70.6753 30.7617C70.5776 30.7812 70.4897 30.7129 70.4116 30.5566C70.353 30.6152 70.3042 30.6836 70.2651 30.7617C70.226 30.8398 70.187 30.9082 70.1479 30.9668C70.1089 31.0449 70.0503 31.1035 69.9721 31.1426C69.9135 31.1816 69.8256 31.1816 69.7085 31.1426L69.562 30.9668L69.1225 31.3477C68.5756 31.0742 68.0483 30.8398 67.5405 30.6445C67.0522 30.4688 66.6128 30.2539 66.2221 30C65.8315 29.7461 65.4995 29.4238 65.226 29.0332C64.9526 28.623 64.7573 28.0664 64.6401 27.3633C64.5424 27.2461 64.435 27.1484 64.3178 27.0703C64.2006 26.9727 64.0639 26.9434 63.9077 26.9824C63.7124 27.3145 63.478 27.5977 63.2046 27.832C62.9311 28.0664 62.6577 28.3203 62.3842 28.5938C62.2866 28.6914 62.2085 28.7988 62.1499 28.916C62.0913 29.0332 62.0131 29.1406 61.9155 29.2383C61.7592 29.4141 61.5737 29.541 61.3589 29.6191C61.144 29.6777 60.9292 29.7363 60.7143 29.7949C60.4995 29.8535 60.2944 29.9512 60.0991 30.0879C59.9233 30.2246 59.7964 30.459 59.7182 30.791C59.4839 30.6543 59.2495 30.6152 59.0151 30.6738C58.8393 30.7129 58.6538 30.752 58.4585 30.791C58.2631 30.8496 58.0678 30.8789 57.8725 30.8789C57.6967 30.8984 57.521 30.8789 57.3452 30.8203C57.1694 30.7617 57.0131 30.6348 56.8764 30.4395C56.603 30.5566 56.3491 30.5469 56.1147 30.4102C55.8803 30.293 55.6557 30.127 55.4409 29.9121C55.2456 29.6777 55.0503 29.4336 54.8549 29.1797C54.6596 28.9258 54.4741 28.7402 54.2983 28.623C54.1811 28.3105 54.1909 28.0469 54.3276 27.832C54.4448 27.5977 54.5815 27.3828 54.7378 27.1875C54.8745 26.9727 54.9721 26.7676 55.0307 26.5723C55.0893 26.3574 55.0014 26.1035 54.7671 25.8105C54.9624 25.5176 55.1381 25.2148 55.2944 24.9023C55.4506 24.5703 55.6069 24.248 55.7631 23.9355C55.9389 23.6035 56.1147 23.291 56.2905 22.998C56.4858 22.6855 56.7202 22.4219 56.9936 22.207C56.8764 22.0703 56.8178 21.9434 56.8178 21.8262C56.8178 21.6895 56.8471 21.5625 56.9057 21.4453C56.9643 21.3086 57.0327 21.1816 57.1108 21.0645C57.1889 20.9277 57.2475 20.8008 57.2866 20.6836L58.1362 20.2734L57.9311 19.5703C58.146 19.6094 58.3022 19.5996 58.3999 19.541C58.5171 19.4824 58.5952 19.3945 58.6342 19.2773C58.6928 19.1602 58.7319 19.0332 58.7514 18.8965C58.7905 18.7402 58.8393 18.6035 58.8979 18.4863C58.9956 18.3105 59.1421 18.1836 59.3374 18.1055C59.7475 17.793 60.1479 17.4609 60.5385 17.1094C60.9487 16.7578 61.3491 16.416 61.7397 16.084C62.1499 15.752 62.5698 15.4395 62.9995 15.1465C63.4292 14.834 63.8979 14.5703 64.4057 14.3555C64.7573 14.4141 65.0307 14.5215 65.226 14.6777C65.4409 14.834 65.5971 15.0195 65.6948 15.2344C65.812 15.4492 65.8999 15.6934 65.9585 15.9668C66.0171 16.2207 66.0756 16.4746 66.1342 16.7285C66.2319 17.0605 66.3491 17.3438 66.4858 17.5781C66.6225 17.8125 66.8569 18.0078 67.1889 18.1641C66.9155 18.6328 66.8081 19.1016 66.8667 19.5703C66.9253 20.0195 66.9839 20.498 67.0424 21.0059C67.101 21.4746 67.0913 21.9336 67.0131 22.3828C66.9546 22.832 66.6714 23.2324 66.1635 23.584C66.1245 23.7207 66.1147 23.8672 66.1342 24.0234C66.1538 24.1797 66.1635 24.3359 66.1635 24.4922C66.1635 24.6484 66.1342 24.7949 66.0756 24.9316C66.0171 25.0684 65.9096 25.1758 65.7534 25.2539C65.9292 25.4688 66.0171 25.6836 66.0171 25.8984C66.0366 26.1133 66.0464 26.3184 66.0464 26.5137C66.0659 26.709 66.1147 26.8848 66.1928 27.041C66.2905 27.1973 66.5053 27.3145 66.8374 27.3926C66.896 27.6465 66.9448 27.8418 66.9839 27.9785C67.0424 28.0957 67.101 28.1934 67.1596 28.2715C67.2378 28.3496 67.3354 28.4277 67.4526 28.5059C67.5698 28.5645 67.726 28.6621 67.9214 28.7988C68.0776 28.8379 68.2534 28.8379 68.4487 28.7988C68.644 28.7598 68.8003 28.8184 68.9174 28.9746C69.0151 28.877 69.1323 28.8281 69.269 28.8281C69.4057 28.8086 69.5327 28.8086 69.6499 28.8281L70.0307 29.4727C70.2456 29.3164 70.4897 29.1797 70.7631 29.0625C71.0366 28.9453 71.3003 28.8477 71.5542 28.7695C71.8471 28.6914 72.1401 28.623 72.4331 28.5645L75.1577 26.9238ZM63.9077 16.9043C63.7319 17.0605 63.5171 17.2168 63.2631 17.373C63.0092 17.5293 62.7553 17.6953 62.5014 17.8711C62.2671 18.0469 62.062 18.2422 61.8862 18.457C61.7104 18.6523 61.603 18.8867 61.5639 19.1602C61.1147 19.2383 60.8022 19.4238 60.6264 19.7168C60.4506 20.0098 60.3042 20.332 60.187 20.6836C60.0698 21.0352 59.9428 21.3867 59.8061 21.7383C59.6694 22.0703 59.4253 22.334 59.0737 22.5293C58.9565 22.6074 58.8491 22.6465 58.7514 22.6465C58.771 22.6465 58.7124 22.6855 58.5756 22.7637C58.3608 22.9199 58.1753 23.1152 58.019 23.3496C57.8628 23.584 57.726 23.8379 57.6089 24.1113C57.5112 24.3848 57.4135 24.668 57.3159 24.9609C57.2378 25.2344 57.1596 25.4883 57.0815 25.7227C56.8081 25.7617 56.603 25.8203 56.4663 25.8984C56.3296 25.9766 56.2417 26.0645 56.2026 26.1621C56.1831 26.2402 56.1928 26.3379 56.2319 26.4551C56.271 26.5723 56.3296 26.6992 56.4077 26.8359C56.4858 26.9531 56.5639 27.0898 56.6421 27.2461C56.7397 27.4023 56.8178 27.5586 56.8764 27.7148C56.935 27.8711 56.9643 28.0273 56.9643 28.1836C56.9839 28.3398 56.9448 28.4863 56.8471 28.623C57.1206 28.8379 57.3842 28.8867 57.6381 28.7695C57.8921 28.6328 58.1264 28.4863 58.3413 28.3301C58.4194 28.2715 58.4975 28.2129 58.5756 28.1543C58.6733 28.0762 58.771 28.0176 58.8686 27.9785C59.3178 28.0762 59.728 28.0469 60.0991 27.8906C60.4702 27.7344 60.812 27.5195 61.1245 27.2461C61.437 26.9727 61.7397 26.6797 62.0327 26.3672C62.3256 26.0547 62.6186 25.7812 62.9116 25.5469L62.6772 25.3125C63.0288 25.2148 63.2729 25.0879 63.4096 24.9316C63.5659 24.7559 63.6635 24.5605 63.7026 24.3457C63.7417 24.1309 63.7417 23.9062 63.7026 23.6719C63.6635 23.418 63.6342 23.1543 63.6147 22.8809C63.5952 22.7246 63.5854 22.5781 63.5854 22.4414C63.6049 22.2852 63.644 22.1289 63.7026 21.9727C63.5464 21.5234 63.5171 21.0938 63.6147 20.6836C63.7319 20.2734 63.8784 19.8828 64.0542 19.5117C64.2495 19.1211 64.435 18.7305 64.6108 18.3398C64.7866 17.9492 64.8745 17.5391 64.8745 17.1094L63.9077 16.9043ZM90.0988 28.9453C90.1184 29.1797 90.0793 29.3555 89.9816 29.4727C89.884 29.5898 89.7473 29.6777 89.5715 29.7363C89.4152 29.7949 89.2395 29.8438 89.0441 29.8828C88.8488 29.9023 88.6828 29.9512 88.5461 30.0293C87.9797 29.9707 87.4328 29.8926 86.9055 29.7949C86.3781 29.6777 85.8898 29.5117 85.4406 29.2969C84.9914 29.0625 84.5813 28.7598 84.2102 28.3887C83.8586 28.0176 83.5559 27.5488 83.302 26.9824C83.5559 26.5723 83.6438 26.123 83.5656 25.6348C83.4875 25.127 83.4094 24.6387 83.3313 24.1699C83.2727 23.7012 83.2824 23.2715 83.3605 22.8809C83.4582 22.4902 83.8 22.1777 84.3859 21.9434C84.3469 21.7285 84.3469 21.4941 84.3859 21.2402C84.4445 20.9863 84.3762 20.7715 84.1809 20.5957C83.4973 20.8301 82.9016 21.1621 82.3938 21.5918C81.8859 22.0215 81.3977 22.4902 80.9289 22.998C80.4797 23.5059 80.0207 24.0234 79.552 24.5508C79.1027 25.0586 78.6047 25.5078 78.0578 25.8984C77.8039 25.918 77.5305 25.9082 77.2375 25.8691C76.9641 25.8105 76.7297 25.8887 76.5344 26.1035C76.5539 26.2402 76.6027 26.3574 76.6809 26.4551C76.759 26.5527 76.8176 26.6504 76.8566 26.748C76.9152 26.8457 76.9445 26.9531 76.9445 27.0703C76.9445 27.168 76.8762 27.2852 76.7395 27.4219C76.5441 27.6172 76.3293 27.7832 76.0949 27.9199C75.8801 28.0371 75.6652 28.1738 75.4504 28.3301C75.2551 28.4668 75.0891 28.6328 74.9523 28.8281C74.8156 29.0234 74.7473 29.2871 74.7473 29.6191C74.6301 29.5605 74.5227 29.5508 74.425 29.5898C74.3273 29.6094 74.2395 29.6582 74.1613 29.7363C74.0637 29.8145 73.9758 29.9023 73.8977 30C73.8195 30.0977 73.7414 30.1758 73.6633 30.2344C73.6242 30.332 73.634 30.4102 73.6926 30.4688C73.7512 30.5469 73.8195 30.625 73.8977 30.7031C73.8195 30.918 73.7219 31.0449 73.6047 31.084C73.468 31.1426 73.3313 31.1523 73.1945 31.1133C73.0383 31.0742 72.8918 31.0059 72.7551 30.9082C72.5988 30.8301 72.4621 30.7617 72.3449 30.7031C72.2863 30.4492 72.2473 30.1562 72.2277 29.8242C72.2082 29.4922 72.218 29.1699 72.257 28.8574C72.2961 28.5254 72.3742 28.2129 72.4914 27.9199C72.6086 27.627 72.7844 27.3828 73.0188 27.1875C73.0969 27.1289 73.1457 27.0996 73.1652 27.0996C73.1848 27.0801 73.1945 27.0703 73.1945 27.0703C73.1945 27.0703 73.2043 27.0703 73.2238 27.0703C73.2434 27.0508 73.2824 27.0117 73.341 26.9531C73.4973 26.7773 73.6047 26.5918 73.6633 26.3965C73.7219 26.1816 73.7707 25.9668 73.8098 25.752C73.8488 25.5371 73.9074 25.332 73.9855 25.1367C74.0441 24.9219 74.1613 24.7363 74.3371 24.5801C74.259 24.2676 74.259 23.9941 74.3371 23.7598C74.4348 23.5059 74.552 23.2715 74.6887 23.0566C74.8449 22.8223 74.9914 22.5977 75.1281 22.3828C75.2844 22.1484 75.382 21.8945 75.4211 21.6211C75.4406 21.5234 75.4406 21.4355 75.4211 21.3574C75.4211 21.2598 75.4211 21.1621 75.4211 21.0645C75.382 20.752 75.4113 20.5176 75.509 20.3613C75.6262 20.1855 75.7629 20.0488 75.9191 19.9512C76.0949 19.834 76.2707 19.7168 76.4465 19.5996C76.6418 19.4824 76.8078 19.3066 76.9445 19.0723C77.5109 19.3457 77.843 19.7168 77.9406 20.1855C78.0578 20.6348 78.0969 21.1426 78.0578 21.709C77.7258 21.9238 77.4719 22.2266 77.2961 22.6172C77.1203 22.9883 77.0031 23.3496 76.9445 23.7012C76.9836 23.8184 77.0324 23.8867 77.091 23.9062C77.1691 23.9062 77.2473 23.8965 77.3254 23.877C77.423 23.8379 77.5109 23.7988 77.5891 23.7598C77.6672 23.7207 77.7453 23.7012 77.8234 23.7012C78.5266 23.2129 79.2199 22.666 79.9035 22.0605C80.6066 21.4551 81.1535 20.7617 81.5441 19.9805C82.1105 19.707 82.6477 19.3945 83.1555 19.043C83.6633 18.6719 84.2199 18.3984 84.8254 18.2227L85.4992 17.5488C85.5969 17.7051 85.7141 17.7441 85.8508 17.666C85.9875 17.5684 86.1242 17.4609 86.2609 17.3438C86.3977 17.2266 86.5246 17.1582 86.6418 17.1387C86.7785 17.1191 86.9055 17.2559 87.0227 17.5488C87.218 18.0566 87.2668 18.5547 87.1691 19.043C87.0715 19.5117 86.9152 19.9805 86.7004 20.4492C86.5051 20.8984 86.3 21.3574 86.0852 21.8262C85.8703 22.2949 85.7434 22.7734 85.7043 23.2617C85.7043 23.3789 85.7043 23.5059 85.7043 23.6426C85.7043 23.7598 85.6945 23.8867 85.675 24.0234C85.6359 24.4336 85.5773 24.8828 85.4992 25.3711C85.4406 25.8398 85.4699 26.2695 85.5871 26.6602C85.6848 27.0117 85.8898 27.3242 86.2023 27.5977C86.5148 27.8711 86.7883 28.1445 87.0227 28.418C87.1594 28.3984 87.2961 28.4082 87.4328 28.4473C87.5695 28.4863 87.6965 28.5254 87.8137 28.5645C87.9504 28.6035 88.0773 28.623 88.1945 28.623C88.3117 28.6035 88.4289 28.5352 88.5461 28.418C88.6828 28.3594 88.8098 28.3691 88.927 28.4473C89.0637 28.5059 89.1906 28.584 89.3078 28.6816C89.425 28.7793 89.5422 28.8672 89.6594 28.9453C89.7961 29.0039 89.9426 29.0039 90.0988 28.9453ZM113.565 22.0312C113.526 22.5586 113.38 23.0273 113.126 23.4375C112.892 23.8477 112.599 24.2285 112.247 24.5801C111.895 24.9121 111.515 25.2344 111.104 25.5469C110.694 25.8398 110.323 26.1523 109.991 26.4844C110.05 26.8945 109.991 27.1387 109.815 27.2168C109.64 27.2949 109.425 27.3438 109.171 27.3633C108.936 27.3633 108.692 27.3926 108.438 27.4512C108.204 27.4902 108.048 27.6855 107.97 28.0371C107.696 28.0371 107.472 28.125 107.296 28.3008C107.12 28.4766 106.944 28.6621 106.768 28.8574C106.593 29.0332 106.388 29.1895 106.153 29.3262C105.938 29.4434 105.655 29.4727 105.304 29.4141C105.206 29.6094 105.079 29.7363 104.923 29.7949C104.767 29.8535 104.601 29.8926 104.425 29.9121C104.249 29.9316 104.073 29.9609 103.897 30C103.741 30.0391 103.604 30.1367 103.487 30.293L103.048 29.6484C102.208 30.0195 101.388 30.1758 100.587 30.1172C99.8056 30.0586 98.9755 29.9707 98.0966 29.8535C97.9794 29.6387 97.8427 29.4434 97.6865 29.2676C97.5497 29.0918 97.4033 28.916 97.247 28.7402C97.1103 28.5645 96.9736 28.3887 96.8368 28.2129C96.7197 28.0371 96.622 27.832 96.5439 27.5977L96.9833 27.1582L96.5439 26.7188C96.5439 26.5625 96.5536 26.3867 96.5732 26.1914C96.5927 25.9961 96.5927 25.8105 96.5732 25.6348C96.5732 25.4395 96.5341 25.2637 96.456 25.1074C96.3974 24.9316 96.2704 24.7949 96.0751 24.6973C95.6259 25.127 95.2353 25.6055 94.9033 26.1328C94.5908 26.6406 94.2783 27.168 93.9658 27.7148C93.6728 28.2617 93.3603 28.7988 93.0283 29.3262C92.6962 29.8535 92.2958 30.332 91.8271 30.7617C91.9247 31.0547 91.8954 31.25 91.7392 31.3477C91.5829 31.4453 91.3876 31.543 91.1533 31.6406C90.7822 31.2695 90.5673 30.8789 90.5087 30.4688C90.4306 30.0781 90.4404 29.668 90.538 29.2383C90.6357 28.8086 90.7822 28.3887 90.9775 27.9785C91.1533 27.5488 91.3193 27.1387 91.4755 26.748C91.5732 26.5137 91.6513 26.2891 91.7099 26.0742C91.749 25.8594 91.788 25.625 91.8271 25.3711C91.8661 25.2148 91.9052 25.0684 91.9443 24.9316C92.0029 24.7754 92.0517 24.6191 92.0908 24.4629C92.1689 24.1309 92.2372 23.8184 92.2958 23.5254C92.374 23.2129 92.4325 22.8906 92.4716 22.5586C92.6669 21.4062 92.8525 20.2539 93.0283 19.1016C93.2236 17.9297 93.5458 16.8066 93.995 15.7324C94.0732 14.6973 94.3271 13.75 94.7568 12.8906C95.1865 12.0312 95.6845 11.1816 96.2509 10.3418C96.1728 10.127 96.1825 9.89258 96.2802 9.63867C96.3974 9.36523 96.5439 9.10156 96.7197 8.84766C96.915 8.57422 97.1103 8.32031 97.3056 8.08594C97.5204 7.83203 97.6865 7.61719 97.8036 7.44141C97.5693 7.12891 97.5302 6.86523 97.6865 6.65039C97.8622 6.43555 98.0868 6.2207 98.3603 6.00586C98.6337 5.79102 98.8779 5.56641 99.0927 5.33203C99.3271 5.09766 99.3857 4.81445 99.2685 4.48242C99.3857 4.22852 99.581 4.0332 99.8544 3.89648C100.128 3.75977 100.411 3.63281 100.704 3.51562C100.997 3.39844 101.261 3.27148 101.495 3.13477C101.729 2.97852 101.866 2.76367 101.905 2.49023C102.413 2.4707 102.843 2.55859 103.194 2.75391C103.546 2.92969 103.868 3.21289 104.161 3.60352C104.142 3.74023 104.142 3.90625 104.161 4.10156C104.181 4.27734 104.19 4.46289 104.19 4.6582C104.19 4.83398 104.171 5.00977 104.132 5.18555C104.112 5.3418 104.044 5.47852 103.927 5.5957C104.083 5.71289 104.142 5.86914 104.102 6.06445C104.083 6.24023 104.024 6.42578 103.927 6.62109C103.849 6.81641 103.761 7.01172 103.663 7.20703C103.565 7.40234 103.517 7.57812 103.517 7.73438C103.497 8.28125 103.351 8.83789 103.077 9.4043C102.823 9.95117 102.511 10.4199 102.14 10.8105C101.905 11.7871 101.602 12.7344 101.231 13.6523C100.86 14.5508 100.343 15.3906 99.6786 16.1719C99.7568 16.3477 99.7372 16.5039 99.62 16.6406C99.5224 16.7578 99.4052 16.8848 99.2685 17.0215C99.1513 17.1387 99.0634 17.2559 99.0048 17.373C98.9658 17.4902 99.0439 17.6172 99.2392 17.7539C99.8056 16.875 100.518 16.2012 101.378 15.7324C102.257 15.2637 103.185 14.8926 104.161 14.6191C104.298 14.7559 104.435 14.8535 104.571 14.9121C104.727 14.9512 104.884 15 105.04 15.0586C105.157 14.8242 105.294 14.707 105.45 14.707C105.606 14.707 105.763 14.7656 105.919 14.8828C106.075 14.9805 106.231 15.0977 106.388 15.2344C106.563 15.3711 106.72 15.459 106.856 15.498C107.149 15.7129 107.335 15.9668 107.413 16.2598C107.491 16.5527 107.53 16.8652 107.53 17.1973C107.53 17.5098 107.53 17.832 107.53 18.1641C107.53 18.4961 107.599 18.7988 107.735 19.0723C107.384 19.7754 106.935 20.4297 106.388 21.0352C105.86 21.6406 105.343 22.2559 104.835 22.8809L104.601 22.6758C104.054 23.2031 103.419 23.6816 102.696 24.1113C101.993 24.5215 101.29 24.8633 100.587 25.1367C100.313 25 100.06 24.8828 99.8251 24.7852C99.5908 24.668 99.3075 24.6387 98.9755 24.6973C98.5263 25.0293 98.2529 25.4688 98.1552 26.0156C98.0575 26.5625 98.1161 27.0898 98.331 27.5977C98.4677 27.9297 98.6337 28.1348 98.829 28.2129C99.0243 28.291 99.2294 28.3301 99.4443 28.3301C99.6786 28.3105 99.9033 28.3008 100.118 28.3008C100.352 28.2812 100.577 28.3496 100.792 28.5059L101.026 28.3008C101.163 28.4766 101.29 28.5547 101.407 28.5352C101.544 28.5156 101.681 28.4766 101.817 28.418C101.954 28.3398 102.081 28.291 102.198 28.2715C102.335 28.2324 102.462 28.3105 102.579 28.5059C102.774 28.252 103.018 28.1152 103.311 28.0957C103.624 28.0762 103.927 28.0762 104.22 28.0957C104.532 28.0957 104.825 28.0664 105.099 28.0078C105.372 27.9492 105.587 27.7441 105.743 27.3926C106.036 27.4512 106.261 27.4219 106.417 27.3047C106.593 27.1875 106.749 27.0605 106.886 26.9238C107.042 26.7676 107.188 26.6211 107.325 26.4844C107.481 26.3477 107.696 26.2793 107.97 26.2793C108.282 26.0645 108.575 25.8301 108.849 25.5762C109.122 25.3027 109.386 25.0391 109.64 24.7852C109.913 24.5117 110.177 24.248 110.431 23.9941C110.704 23.7402 111.007 23.5254 111.339 23.3496C111.534 23.3301 111.71 23.2324 111.866 23.0566C112.022 22.8809 112.179 22.7051 112.335 22.5293C112.511 22.3535 112.696 22.207 112.892 22.0898C113.087 21.9727 113.311 21.9531 113.565 22.0312ZM100.411 5.83008C100.313 5.94727 100.186 6.11328 100.03 6.32812C99.8935 6.54297 99.7665 6.77734 99.6493 7.03125C99.5322 7.26562 99.4345 7.50977 99.3564 7.76367C99.2978 7.99805 99.2978 8.19336 99.3564 8.34961C99.2197 8.44727 99.0536 8.61328 98.8583 8.84766C98.6825 9.0625 98.5165 9.30664 98.3603 9.58008C98.204 9.83398 98.0673 10.0977 97.9501 10.3711C97.8525 10.625 97.8232 10.8398 97.8622 11.0156C97.5497 11.1523 97.374 11.3477 97.3349 11.6016C97.2958 11.8359 97.2665 12.0801 97.247 12.334C97.247 12.5684 97.1982 12.793 97.1005 13.0078C97.0224 13.2031 96.7783 13.3301 96.3681 13.3887L96.7197 13.9453C96.7392 14.1016 96.7392 14.2188 96.7197 14.2969C96.7001 14.3555 96.6611 14.4141 96.6025 14.4727C96.5439 14.5117 96.4755 14.5605 96.3974 14.6191C96.3388 14.6582 96.2802 14.7266 96.2216 14.8242C96.4169 14.9805 96.4658 15.1172 96.3681 15.2344C96.29 15.3516 96.1728 15.4785 96.0165 15.6152C95.8798 15.752 95.7626 15.918 95.665 16.1133C95.5673 16.3086 95.6064 16.5527 95.7822 16.8457C95.4501 17.1387 95.206 17.5488 95.0497 18.0762C94.913 18.584 94.8056 19.1406 94.7275 19.7461C94.6493 20.332 94.581 20.9277 94.5224 21.5332C94.4638 22.1387 94.3661 22.6855 94.2294 23.1738C94.9716 21.6699 95.7431 20.2051 96.5439 18.7793C97.3447 17.3535 98.0868 15.8789 98.7704 14.3555C98.6728 14.0234 98.7021 13.7402 98.8583 13.5059C99.0146 13.252 99.1904 13.0176 99.3857 12.8027C99.581 12.5684 99.747 12.3535 99.8837 12.1582C100.02 11.9434 100.02 11.709 99.8837 11.4551C99.9814 11.3574 100.079 11.2598 100.177 11.1621C100.294 11.0449 100.431 10.9961 100.587 11.0156C100.548 10.8398 100.558 10.625 100.616 10.3711C100.694 10.0977 100.792 9.83398 100.909 9.58008C101.026 9.30664 101.153 9.0625 101.29 8.84766C101.446 8.61328 101.602 8.44727 101.759 8.34961C101.7 8.0957 101.749 7.82227 101.905 7.5293C102.061 7.2168 102.208 6.91406 102.345 6.62109C102.481 6.32812 102.56 6.04492 102.579 5.77148C102.599 5.49805 102.452 5.26367 102.14 5.06836L100.411 5.83008ZM105.304 17.5195C105.186 17.3633 105.069 17.2168 104.952 17.0801C104.835 16.9238 104.718 16.7676 104.601 16.6113C104.386 16.3574 104.22 16.2793 104.102 16.377C103.985 16.4551 103.858 16.582 103.722 16.7578C103.604 16.9141 103.458 17.0605 103.282 17.1973C103.106 17.3145 102.872 17.2754 102.579 17.0801C102.13 17.4512 101.651 17.832 101.143 18.2227C100.655 18.6133 100.177 19.0234 99.7079 19.4531C99.2587 19.8828 98.8486 20.3516 98.4775 20.8594C98.1259 21.3477 97.8622 21.8945 97.6865 22.5C97.8818 22.8125 98.1064 23.0078 98.3603 23.0859C98.6337 23.1641 98.8974 23.2031 99.1513 23.2031C99.4052 23.1836 99.6396 23.1543 99.8544 23.1152C100.069 23.0762 100.235 23.0859 100.352 23.1445C100.587 22.9492 100.831 22.793 101.085 22.6758C101.358 22.5586 101.632 22.4512 101.905 22.3535C102.198 22.2363 102.472 22.1191 102.726 22.002C102.999 21.8848 103.253 21.7383 103.487 21.5625C104.132 21.0938 104.61 20.498 104.923 19.7754C105.255 19.0527 105.382 18.3008 105.304 17.5195ZM139.112 18.4863C138.955 18.877 138.78 19.1992 138.584 19.4531C138.409 19.707 138.204 19.9609 137.969 20.2148C137.735 20.4492 137.471 20.7227 137.178 21.0352C136.885 21.3281 136.563 21.7188 136.211 22.207L136.153 22.2363C135.977 22.5879 135.752 22.9297 135.479 23.2617C135.284 23.5156 135.166 23.7012 135.127 23.8184C135.088 23.916 135.049 24.0137 135.01 24.1113C134.991 24.1895 134.932 24.2773 134.834 24.375C134.756 24.4727 134.571 24.6289 134.278 24.8438C134.121 24.9805 133.965 25.1172 133.809 25.2539C133.653 25.3906 133.506 25.5469 133.37 25.7227C133.37 25.7812 133.36 25.8691 133.34 25.9863C133.321 26.1035 133.291 26.2402 133.252 26.3965C133.233 26.5332 133.204 26.6699 133.164 26.8066C133.125 26.9434 133.096 27.0508 133.077 27.1289C132.979 27.5 132.891 27.8809 132.813 28.2715C132.754 28.6621 132.745 29.0527 132.784 29.4434C132.803 29.4824 132.823 29.5703 132.842 29.707C132.862 29.8242 132.881 29.9023 132.901 29.9414L132.871 30C132.539 30.6836 132.276 31.4062 132.08 32.168C131.905 32.9492 131.817 33.7305 131.817 34.5117H131.787C131.592 34.9609 131.416 35.4492 131.26 35.9766C131.123 36.5039 131.055 37.0215 131.055 37.5293C130.996 37.5879 130.938 37.6465 130.879 37.7051C130.84 37.7637 130.772 37.8223 130.674 37.8809C130.596 37.9395 130.508 38.0176 130.411 38.1152C130.313 38.2129 130.313 38.3301 130.411 38.4668C130.508 38.7012 130.586 38.916 130.645 39.1113C130.43 39.1895 130.293 39.2871 130.235 39.4043C130.196 39.5215 130.176 39.6387 130.176 39.7559C130.176 39.8926 130.166 40.0195 130.147 40.1367C130.127 40.2734 130.059 40.3906 129.942 40.4883V40.5469C129.942 40.8594 129.883 41.1133 129.766 41.3086C129.668 41.5234 129.551 41.709 129.414 41.8652C129.278 42.041 129.151 42.2168 129.034 42.3926C128.936 42.5684 128.887 42.793 128.887 43.0664V43.1836L128.916 43.2422L128.887 43.3008C128.516 44.0234 128.037 44.707 127.452 45.3516C127.198 45.625 126.914 45.957 126.602 46.3477C126.309 46.7383 126.143 47.1289 126.104 47.5195C126.084 47.5195 126.065 47.5098 126.045 47.4902C126.026 47.4902 125.996 47.4902 125.957 47.4902C125.743 47.4902 125.528 47.5684 125.313 47.7246C125.098 47.9004 124.873 48.0664 124.639 48.2227C124.405 48.3984 124.151 48.5254 123.877 48.6035C123.623 48.6816 123.35 48.6328 123.057 48.457L123.028 48.4277L122.969 48.457C122.676 48.6133 122.373 48.6816 122.061 48.6621C121.748 48.6426 121.446 48.5742 121.153 48.457C120.84 48.3398 120.547 48.1836 120.274 47.9883C120 47.793 119.746 47.5977 119.512 47.4023C119.161 47.1094 118.897 46.7383 118.721 46.2891C118.545 45.8594 118.438 45.4199 118.399 44.9707C118.36 44.8145 118.35 44.6484 118.37 44.4727C118.389 44.3164 118.389 44.1602 118.37 44.0039L118.077 43.916L118.252 43.5645H118.223C118.204 43.5645 118.184 43.5547 118.164 43.5352C117.95 43.3594 117.852 43.1543 117.871 42.9199C117.891 42.6855 117.95 42.4512 118.047 42.2168C118.145 41.9824 118.233 41.748 118.311 41.5137C118.389 41.2793 118.37 41.0645 118.252 40.8691C118.291 40.8301 118.311 40.8008 118.311 40.7812C118.506 40.5078 118.672 40.2246 118.809 39.9316C118.946 39.6387 119.082 39.3457 119.219 39.0527C119.278 38.9355 119.366 38.7695 119.483 38.5547C119.58 38.3398 119.698 38.1152 119.834 37.8809C119.952 37.6465 120.069 37.4316 120.186 37.2363C120.303 37.041 120.401 36.9043 120.479 36.8262C120.577 36.7285 120.645 36.6211 120.684 36.5039C120.704 36.3867 120.733 36.2695 120.772 36.1523C120.83 35.8789 120.918 35.625 121.036 35.3906C121.133 35.1758 121.338 35.0488 121.651 35.0098H121.709L121.739 34.9512C122.168 34.3066 122.647 33.6719 123.174 33.0469C123.721 32.4219 124.307 31.8848 124.932 31.4355H124.961V31.4062C125.079 31.1523 125.245 30.8887 125.459 30.6152C125.694 30.3418 125.928 30.0781 126.162 29.8242C126.397 29.5508 126.612 29.3066 126.807 29.0918C127.002 28.877 127.129 28.6914 127.188 28.5352C127.325 28.5742 127.442 28.5254 127.539 28.3887C127.637 28.2324 127.735 28.0664 127.832 27.8906C127.95 27.7148 128.077 27.5586 128.213 27.4219C128.35 27.2852 128.536 27.2266 128.77 27.2461C129.004 26.7773 129.248 26.4062 129.502 26.1328C129.756 25.8594 130.079 25.5762 130.469 25.2832C130.508 25.2441 130.528 25.2246 130.528 25.2246C130.567 25.0098 130.645 24.8438 130.762 24.7266C130.879 24.6094 130.987 24.5117 131.084 24.4336C131.202 24.3359 131.28 24.2285 131.319 24.1113C131.358 23.9941 131.319 23.8184 131.202 23.584C131.416 23.1934 131.377 22.793 131.084 22.3828C130.811 22.6367 130.557 22.9004 130.323 23.1738C130.088 23.4473 129.746 23.584 129.297 23.584C129.161 23.6816 129.053 23.7793 128.975 23.877C128.916 23.9746 128.848 24.0625 128.77 24.1406C128.692 24.2188 128.594 24.2871 128.477 24.3457C128.36 24.3848 128.184 24.4043 127.95 24.4043V24.1699L127.832 24.1113C127.696 24.1895 127.51 24.3066 127.276 24.4629C126.768 24.7559 126.299 25.0098 125.87 25.2246C125.44 25.4199 124.912 25.5176 124.287 25.5176C124.287 25.2051 124.121 25.0195 123.789 24.9609C123.75 25.0977 123.711 25.2148 123.672 25.3125C123.633 25.3906 123.565 25.4785 123.467 25.5762C123.213 25.3418 122.989 25.0977 122.793 24.8438C122.598 24.5703 122.412 24.2773 122.237 23.9648C122.198 23.9062 122.129 23.7988 122.032 23.6426C121.954 23.4863 121.856 23.3301 121.739 23.1738C121.641 23.0176 121.543 22.8809 121.446 22.7637C121.348 22.627 121.26 22.5488 121.182 22.5293C121.182 21.9824 121.182 21.4746 121.182 21.0059C121.182 20.5371 121.202 20.0781 121.241 19.6289C121.26 19.1602 121.309 18.7012 121.387 18.252C121.446 17.7832 121.553 17.2754 121.709 16.7285C121.729 16.709 121.719 16.6699 121.68 16.6113C121.661 16.4941 121.661 16.3477 121.68 16.1719C121.719 15.9961 121.758 15.8203 121.797 15.6445C121.856 15.4492 121.924 15.2734 122.002 15.1172C122.08 14.9414 122.149 14.7949 122.207 14.6777C122.266 14.2285 122.325 13.7695 122.383 13.3008C122.442 12.832 122.481 12.373 122.5 11.9238C122.579 11.9434 122.647 11.9727 122.705 12.0117C122.784 12.0312 122.852 12.0605 122.911 12.0996C123.067 11.3574 123.262 10.6348 123.496 9.93164C123.731 9.22852 123.995 8.53516 124.287 7.85156C124.444 7.48047 124.61 7.10938 124.786 6.73828C124.961 6.34766 125.098 5.95703 125.196 5.56641V5.53711C125.254 5.45898 125.362 5.38086 125.518 5.30273C125.694 5.22461 125.83 5.20508 125.928 5.24414C126.045 5.2832 126.143 5.36133 126.221 5.47852C126.299 5.57617 126.358 5.69336 126.397 5.83008C126.455 5.94727 126.504 6.06445 126.543 6.18164C126.602 6.29883 126.68 6.37695 126.778 6.41602L127.1 6.5332C127.061 6.57227 127.012 6.60156 126.954 6.62109C126.895 6.64062 126.846 6.66992 126.807 6.70898C126.553 6.9043 126.397 7.20703 126.338 7.61719C126.28 8.00781 126.25 8.35938 126.25 8.67188L126.221 8.70117C126.084 9.26758 125.909 9.79492 125.694 10.2832C125.479 10.752 125.274 11.2207 125.079 11.6895C124.883 12.1582 124.717 12.6465 124.58 13.1543C124.444 13.6426 124.395 14.1992 124.434 14.8242C124.454 15.0781 124.434 15.3223 124.375 15.5566C124.317 15.791 124.248 16.0352 124.17 16.2891C124.092 16.5234 124.014 16.7676 123.936 17.0215C123.877 17.2559 123.848 17.5 123.848 17.7539C123.789 17.9297 123.721 18.0566 123.643 18.1348C123.565 18.2129 123.545 18.418 123.584 18.75C123.623 18.9453 123.653 19.1797 123.672 19.4531C123.711 19.707 123.662 19.9219 123.526 20.0977V20.127H123.496C123.379 20.5762 123.34 21.0547 123.379 21.5625C123.418 22.0703 123.604 22.5 123.936 22.8516C124.131 23.0664 124.297 23.1641 124.434 23.1445C124.571 23.1055 124.717 23.0371 124.873 22.9395C125.03 22.8223 125.196 22.7148 125.371 22.6172C125.567 22.5 125.801 22.4609 126.075 22.5H126.133L126.162 22.4707C126.436 22.2559 126.7 22.1094 126.954 22.0312C127.227 21.9336 127.481 21.8359 127.715 21.7383C127.969 21.6406 128.204 21.5137 128.418 21.3574C128.653 21.1816 128.858 20.918 129.034 20.5664C129.268 20.6836 129.454 20.7129 129.59 20.6543C129.746 20.5957 129.883 20.5078 130 20.3906C130.118 20.2734 130.245 20.1562 130.381 20.0391C130.537 19.9219 130.733 19.8633 130.967 19.8633C130.948 19.6875 131.016 19.375 131.172 18.9258C131.348 18.457 131.543 17.959 131.758 17.4316C131.973 16.9043 132.188 16.3965 132.403 15.9082C132.618 15.4199 132.764 15.0488 132.842 14.7949L132.93 14.7656C133.184 14.707 133.301 14.5508 133.282 14.2969L133.135 13.7109C133.116 13.5938 133.116 13.5059 133.135 13.4473C133.155 13.3887 133.194 13.3105 133.252 13.2129C133.37 12.9395 133.457 12.6367 133.516 12.3047C133.575 11.9727 133.633 11.6699 133.692 11.3965C133.75 11.0254 133.819 10.6543 133.897 10.2832C133.995 9.91211 134.121 9.56055 134.278 9.22852L134.336 9.11133L134.073 8.99414C134.366 8.70117 134.571 8.41797 134.688 8.14453C134.805 7.87109 134.883 7.59766 134.922 7.32422C134.981 7.05078 135.03 6.77734 135.069 6.50391C135.127 6.23047 135.245 5.95703 135.42 5.68359C135.479 5.60547 135.508 5.54688 135.508 5.50781L135.625 5.56641C135.684 5.33203 135.762 5.15625 135.86 5.03906C135.977 4.90234 136.104 4.79492 136.241 4.7168C136.377 4.61914 136.514 4.54102 136.651 4.48242C136.807 4.4043 136.954 4.28711 137.09 4.13086C137.246 4.16992 137.393 4.18945 137.53 4.18945C137.686 4.18945 137.832 4.20898 137.969 4.24805C138.028 4.36523 138.057 4.49219 138.057 4.62891C138.057 4.76562 138.047 4.91211 138.028 5.06836C138.028 5.20508 138.028 5.3418 138.028 5.47852C138.047 5.5957 138.086 5.69336 138.145 5.77148C138.223 5.81055 138.272 5.83984 138.291 5.85938C138.116 6.03516 137.979 6.32812 137.881 6.73828C137.784 7.14844 137.715 7.48047 137.676 7.73438C137.637 7.96875 137.598 8.20312 137.559 8.4375C137.539 8.67188 137.491 8.89648 137.412 9.11133C137.373 9.20898 137.325 9.28711 137.266 9.3457C137.227 9.4043 137.198 9.48242 137.178 9.58008C136.963 10.2637 136.758 10.9668 136.563 11.6895C136.368 12.4121 136.026 13.0566 135.537 13.623V13.6523C135.323 14.1016 135.118 14.541 134.922 14.9707C134.727 15.4004 134.678 15.8691 134.776 16.377C134.795 16.4355 134.805 16.4941 134.805 16.5527C134.825 16.5918 134.834 16.6406 134.834 16.6992L134.6 16.7285V16.7871L134.541 16.9043V16.9629L134.512 17.0215C134.649 17.1191 134.707 17.2266 134.688 17.3438C134.668 17.4414 134.62 17.5391 134.541 17.6367C134.483 17.7344 134.414 17.832 134.336 17.9297C134.258 18.0273 134.219 18.1152 134.219 18.1934V18.252L134.248 18.2812C134.229 18.5547 134.2 18.8574 134.161 19.1895C134.121 19.502 134.053 19.7949 133.955 20.0684L133.926 20.0977C134.004 20.2734 134.043 20.4395 134.043 20.5957C134.043 20.752 134.024 20.9082 133.985 21.0645C133.965 21.2012 133.936 21.3477 133.897 21.5039C133.877 21.6602 133.868 21.8262 133.868 22.002L134.219 21.8262C134.219 21.5332 134.307 21.3184 134.483 21.1816C134.678 21.0449 134.893 20.9375 135.127 20.8594C135.381 20.7617 135.616 20.6738 135.83 20.5957C136.065 20.498 136.221 20.3711 136.299 20.2148H136.329C136.387 20.0977 136.436 19.9805 136.475 19.8633C136.534 19.7266 136.592 19.6094 136.651 19.5117C136.807 19.5117 136.983 19.4434 137.178 19.3066C137.373 19.1504 137.569 18.9746 137.764 18.7793C137.959 18.5645 138.145 18.3496 138.321 18.1348C138.496 17.9199 138.653 17.7441 138.789 17.6074L138.819 17.5781C138.955 17.5586 139.053 17.5781 139.112 17.6367C139.17 17.6953 139.2 17.7734 139.2 17.8711C139.219 17.9688 139.219 18.0762 139.2 18.1934C139.18 18.291 139.161 18.3789 139.141 18.457L139.112 18.4863ZM130.088 28.5938C129.815 28.8672 129.58 29.1309 129.385 29.3848C129.19 29.6191 128.985 29.8438 128.77 30.0586C128.555 30.293 128.321 30.5176 128.067 30.7324C127.813 30.9473 127.5 31.1426 127.129 31.3184L127.071 31.3477C127.071 31.543 127.032 31.6797 126.954 31.7578C126.875 31.8555 126.787 31.9434 126.69 32.0215C126.592 32.0996 126.504 32.1777 126.426 32.2559C126.348 32.334 126.309 32.4512 126.309 32.6074C126.27 32.6465 126.231 32.7051 126.192 32.7832C126.153 32.8613 126.104 32.9297 126.045 32.9883C125.987 33.0469 125.918 33.0859 125.84 33.1055C125.782 33.1445 125.713 33.1445 125.635 33.1055C125.479 33.2617 125.303 33.4668 125.108 33.7207C124.912 33.9941 124.737 34.2285 124.58 34.4238C124.131 34.9316 123.682 35.4492 123.233 35.9766C122.784 36.5234 122.393 37.0996 122.061 37.7051L121.856 37.6465C121.758 37.7441 121.69 37.8223 121.651 37.8809C121.612 37.9395 121.504 38.0078 121.329 38.0859H121.27L120.274 40.7812L120.303 40.8398C120.323 41.0547 120.303 41.2402 120.245 41.3965C120.186 41.5723 120.127 41.7383 120.069 41.8945C120.01 42.0703 119.981 42.2461 119.981 42.4219C119.961 42.5977 120.01 42.8027 120.127 43.0371L120.098 43.0957C120 43.3105 119.942 43.5156 119.922 43.7109C119.903 43.9062 119.912 44.0723 119.952 44.209C119.971 44.3652 120 44.4922 120.039 44.5898C120.059 44.707 120.069 44.7754 120.069 44.7949C120.147 44.8145 120.245 44.8633 120.362 44.9414C120.342 45.0586 120.293 45.166 120.215 45.2637C120.215 45.4785 120.274 45.6348 120.391 45.7324C120.508 45.8496 120.645 45.9375 120.801 45.9961C120.957 46.0742 121.114 46.1328 121.27 46.1719C121.426 46.2305 121.534 46.2988 121.592 46.377L121.621 46.3477C121.973 46.2695 122.334 46.2207 122.705 46.2012C123.096 46.2012 123.428 46.0645 123.702 45.791H123.731V45.7617C123.829 45.4297 123.965 45.2246 124.141 45.1465C124.336 45.0684 124.551 44.9609 124.786 44.8242C124.766 44.668 124.834 44.4922 124.991 44.2969C125.166 44.1016 125.303 43.9551 125.401 43.8574C125.557 43.7207 125.674 43.6133 125.752 43.5352C125.83 43.457 125.899 43.3105 125.957 43.0957L125.987 43.0371L126.016 43.0078C126.192 42.832 126.319 42.6465 126.397 42.4512C126.475 42.2559 126.534 42.0312 126.573 41.7773C126.631 41.5039 126.69 41.2793 126.748 41.1035C126.827 40.9277 126.993 40.7324 127.246 40.5176C127.286 40.4785 127.305 40.459 127.305 40.459C127.579 39.7363 127.862 39.0137 128.155 38.291C128.467 37.5684 128.692 36.8359 128.829 36.0938C128.868 35.9961 128.887 35.8984 128.887 35.8008C128.907 35.7227 128.936 35.6348 128.975 35.5371C129.014 35.4395 129.053 35.3418 129.092 35.2441C129.131 35.1465 129.141 35.0488 129.121 34.9512C129.121 34.873 129.073 34.8047 128.975 34.7461C128.975 34.6094 129.024 34.4238 129.121 34.1895C129.219 33.9551 129.317 33.7012 129.414 33.4277C129.532 33.1543 129.629 32.8711 129.707 32.5781C129.786 32.3047 129.805 32.0508 129.766 31.8164C129.766 31.7773 129.756 31.709 129.737 31.6113C129.737 31.5332 129.717 31.4844 129.678 31.4648L129.707 31.4062C129.825 31.1523 129.903 30.8789 129.942 30.5859C129.981 30.3125 130 30.0391 130 29.7656C130 29.5508 130.01 29.3555 130.03 29.1797C130.049 28.9844 130.069 28.7891 130.088 28.5938ZM159.619 20.8008C159.697 21.0938 159.668 21.3477 159.531 21.5625C159.395 21.7578 159.209 21.9336 158.975 22.0898C158.76 22.2461 158.516 22.3926 158.242 22.5293C157.988 22.6465 157.774 22.7832 157.598 22.9395C156.719 23.1348 155.918 23.2812 155.195 23.3789C154.492 23.457 153.711 23.5645 152.852 23.7012C152.598 23.7402 152.354 23.7402 152.119 23.7012C151.904 23.6426 151.68 23.623 151.445 23.6426C151.309 23.6426 151.182 23.6426 151.065 23.6426C150.947 23.623 150.83 23.623 150.713 23.6426C150.264 23.6816 149.971 23.8379 149.834 24.1113C149.697 24.3652 149.58 24.668 149.483 25.0195C149.404 25.3516 149.297 25.6738 149.16 25.9863C149.043 26.2793 148.779 26.4844 148.369 26.6016C148.33 26.6992 148.34 26.7871 148.399 26.8652C148.477 26.9434 148.535 27.0117 148.574 27.0703C148.242 27.168 148.018 27.3438 147.901 27.5977C147.803 27.8516 147.715 28.1055 147.637 28.3594C147.559 28.6133 147.442 28.8281 147.285 29.0039C147.149 29.1797 146.875 29.2383 146.465 29.1797C145.86 29.8242 145.147 30.3418 144.326 30.7324C143.506 31.1426 142.656 31.4062 141.777 31.5234C141.621 31.4453 141.465 31.3477 141.309 31.2305C141.172 31.1133 141.026 31.0059 140.869 30.9082C140.733 30.8105 140.576 30.7324 140.401 30.6738C140.244 30.6348 140.059 30.6348 139.844 30.6738C139.824 30.2637 139.746 29.8828 139.61 29.5312C139.453 29.1797 139.258 28.8477 139.024 28.5352C138.985 28.1836 139.033 27.8613 139.17 27.5684C139.287 27.2559 139.414 26.9531 139.551 26.6602C139.688 26.3672 139.805 26.0742 139.902 25.7812C139.981 25.4688 139.961 25.1172 139.844 24.7266C140.039 24.6094 140.166 24.4727 140.225 24.3164C140.303 24.1602 140.352 24.0039 140.371 23.8477C140.41 23.6719 140.459 23.5156 140.518 23.3789C140.576 23.2227 140.713 23.0957 140.928 22.998C140.772 22.5293 140.791 22.1875 140.986 21.9727C141.201 21.7383 141.455 21.5332 141.748 21.3574C142.041 21.1816 142.315 20.9863 142.568 20.7715C142.822 20.5566 142.92 20.2344 142.861 19.8047C142.979 19.6875 143.115 19.5898 143.272 19.5117C143.428 19.4336 143.574 19.3652 143.711 19.3066C143.867 19.2285 144.014 19.1504 144.151 19.0723C144.287 18.9941 144.414 18.8867 144.531 18.75C144.395 18.6523 144.326 18.5547 144.326 18.457C144.346 18.3594 144.375 18.2617 144.414 18.1641C144.453 18.0469 144.492 17.9297 144.531 17.8125C144.59 17.6953 144.59 17.5781 144.531 17.4609C145.059 17.5391 145.518 17.4707 145.908 17.2559C146.318 17.0215 146.699 16.7871 147.051 16.5527C147.422 16.3184 147.793 16.1523 148.164 16.0547C148.535 15.957 148.965 16.0742 149.453 16.4062C149.492 16.543 149.551 16.748 149.629 17.0215C149.727 17.2754 149.815 17.5391 149.893 17.8125C149.99 18.0859 150.078 18.3496 150.156 18.6035C150.235 18.8574 150.283 19.043 150.303 19.1602C150.303 19.2578 150.303 19.4141 150.303 19.6289C150.303 19.8438 150.303 20.0781 150.303 20.332C150.303 20.5664 150.303 20.791 150.303 21.0059C150.303 21.2207 150.303 21.3867 150.303 21.5039C150.869 21.8359 151.436 22.041 152.002 22.1191C152.568 22.1777 153.135 22.041 153.701 21.709C153.916 21.9043 154.121 21.9629 154.317 21.8848C154.512 21.7871 154.697 21.6797 154.873 21.5625C155.068 21.4453 155.264 21.3867 155.459 21.3867C155.654 21.3672 155.85 21.5234 156.045 21.8555C156.318 21.6016 156.602 21.4453 156.895 21.3867C157.188 21.3086 157.49 21.2695 157.803 21.2695C158.115 21.25 158.418 21.2207 158.711 21.1816C159.024 21.1426 159.326 21.0156 159.619 20.8008ZM148.369 21.2988C148.369 21.0059 148.418 20.6934 148.516 20.3613C148.613 20.0293 148.692 19.707 148.75 19.3945C148.809 19.0625 148.799 18.75 148.721 18.457C148.662 18.1641 148.477 17.9004 148.164 17.666C147.949 17.7832 147.774 17.9492 147.637 18.1641C147.5 18.3594 147.363 18.5645 147.227 18.7793C147.09 18.9746 146.924 19.1406 146.729 19.2773C146.553 19.4141 146.318 19.4531 146.026 19.3945C145.928 19.6289 145.928 19.8242 146.026 19.9805C146.123 20.1172 146.24 20.2539 146.377 20.3906C146.514 20.5078 146.641 20.6348 146.758 20.7715C146.895 20.9082 146.943 21.084 146.904 21.2988C146.983 21.3574 147.09 21.416 147.227 21.4746C147.363 21.5137 147.5 21.543 147.637 21.5625C147.793 21.5625 147.94 21.543 148.076 21.5039C148.213 21.4648 148.311 21.3965 148.369 21.2988ZM148.164 23.6426C147.774 23.6426 147.432 23.5547 147.139 23.3789C146.865 23.1836 146.582 22.9688 146.289 22.7344C146.016 22.5 145.723 22.2852 145.41 22.0898C145.117 21.875 144.756 21.748 144.326 21.709C144.151 21.9434 143.945 22.168 143.711 22.3828C143.477 22.5781 143.272 22.793 143.096 23.0273C142.92 23.2617 142.793 23.5156 142.715 23.7891C142.656 24.0625 142.705 24.375 142.861 24.7266C142.412 24.9414 142.11 25.2539 141.953 25.6641C141.797 26.0547 141.69 26.4844 141.631 26.9531C141.592 27.4219 141.553 27.8906 141.514 28.3594C141.475 28.8281 141.348 29.248 141.133 29.6191L141.777 29.1797C141.856 29.2188 141.914 29.2773 141.953 29.3555C142.012 29.4336 142.022 29.5215 141.983 29.6191C142.139 29.4629 142.315 29.3457 142.51 29.2676C142.705 29.1699 142.901 29.1016 143.096 29.0625C143.311 29.0039 143.516 28.9551 143.711 28.916C143.926 28.877 144.131 28.8184 144.326 28.7402C144.815 29.0137 145.166 29.0723 145.381 28.916C145.596 28.7598 145.772 28.5254 145.908 28.2129C146.045 27.9004 146.192 27.5781 146.348 27.2461C146.504 26.8945 146.758 26.6797 147.11 26.6016L146.904 26.3965C147.236 25.9863 147.529 25.5664 147.783 25.1367C148.057 24.6875 148.184 24.1895 148.164 23.6426ZM176.348 28.5352C176.113 28.5352 175.928 28.5449 175.791 28.5645C175.674 28.5645 175.566 28.5742 175.469 28.5938C175.371 28.6133 175.264 28.6523 175.146 28.7109C175.029 28.7695 174.873 28.8574 174.678 28.9746C174.599 29.1895 174.492 29.3555 174.355 29.4727C174.238 29.5703 174.092 29.6582 173.916 29.7363C173.76 29.7949 173.594 29.8633 173.418 29.9414C173.242 30 173.076 30.1074 172.92 30.2637C171.435 30.498 170.127 30.166 168.994 29.2676C168.857 29.1699 168.73 29.0625 168.613 28.9453C168.515 28.8281 168.398 28.7207 168.262 28.623C168.164 28.5449 168.105 28.5156 168.086 28.5352C168.086 28.5352 168.047 28.4863 167.969 28.3887C167.832 28.1934 167.744 27.959 167.705 27.6855C167.685 27.3926 167.646 27.1191 167.588 26.8652C167.529 26.5918 167.412 26.3672 167.236 26.1914C167.08 25.9961 166.797 25.9082 166.387 25.9277C166.191 26.3379 165.908 26.7578 165.537 27.1875C165.185 27.5977 164.785 27.9688 164.336 28.3008C163.887 28.6328 163.408 28.9062 162.9 29.1211C162.412 29.3359 161.943 29.4434 161.494 29.4434C161.338 29.8926 161.064 30.2246 160.674 30.4395C160.303 30.6738 159.902 30.8496 159.473 30.9668C159.433 30.9863 159.355 31.0059 159.238 31.0254C159.121 31.0645 159.053 31.084 159.033 31.084C158.76 31.1035 158.545 31.0547 158.389 30.9375C158.232 30.8203 158.086 30.6934 157.949 30.5566C157.812 30.4199 157.666 30.293 157.51 30.1758C157.353 30.0586 157.139 30 156.865 30C156.65 29.4922 156.435 28.9941 156.221 28.5059C156.006 28.0176 155.849 27.5195 155.752 27.0117C155.928 26.9141 156.025 26.7969 156.045 26.6602C156.045 26.5039 156.045 26.3477 156.045 26.1914C155.732 26.0938 155.576 25.9766 155.576 25.8398C155.557 25.6836 155.586 25.5273 155.664 25.3711C155.723 25.2148 155.791 25.0684 155.869 24.9316C155.928 24.7754 155.889 24.6484 155.752 24.5508C155.908 23.3594 156.25 22.207 156.777 21.0938C157.305 19.9805 158.057 19.0527 159.033 18.3105C158.916 17.9395 158.945 17.6562 159.121 17.4609C159.316 17.2656 159.541 17.1582 159.795 17.1387C160.068 17.1191 160.322 17.1875 160.557 17.3438C160.81 17.4805 160.937 17.7051 160.937 18.0176C160.957 18.1543 160.947 18.291 160.908 18.4277C160.869 18.5645 160.83 18.6914 160.791 18.8086C160.674 19.3945 160.498 19.9609 160.264 20.5078C160.029 21.0547 159.775 21.5918 159.502 22.1191C159.228 22.6465 158.945 23.1738 158.652 23.7012C158.379 24.2285 158.144 24.7754 157.949 25.3418C157.715 25.498 157.637 25.6641 157.715 25.8398C157.793 26.0156 157.89 26.1914 158.008 26.3672C158.144 26.5234 158.213 26.6797 158.213 26.8359C158.232 26.9922 158.057 27.1387 157.685 27.2754C157.568 27.5488 157.598 27.793 157.773 28.0078C157.949 28.2031 158.096 28.4082 158.213 28.623C158.369 28.6426 158.515 28.6426 158.652 28.623C158.808 28.6035 158.935 28.5156 159.033 28.3594C159.267 28.5156 159.473 28.5449 159.648 28.4473C159.844 28.3496 160.039 28.2324 160.234 28.0957C160.449 27.9395 160.674 27.8125 160.908 27.7148C161.162 27.6172 161.445 27.6465 161.758 27.8027C161.894 27.666 162.002 27.5 162.08 27.3047C162.178 27.1094 162.275 26.9238 162.373 26.748C162.471 26.5723 162.588 26.4258 162.724 26.3086C162.881 26.1914 163.096 26.1523 163.369 26.1914C163.642 25.7031 164.004 25.3027 164.453 24.9902C164.902 24.6582 165.351 24.3457 165.801 24.0527C166.269 23.7598 166.68 23.4473 167.031 23.1152C167.402 22.7832 167.637 22.3535 167.734 21.8262C168.105 21.2402 168.476 20.5859 168.848 19.8633C169.238 19.1211 169.687 18.5059 170.195 18.0176C170.254 17.8613 170.351 17.7441 170.488 17.666C170.625 17.5684 170.771 17.5098 170.928 17.4902C171.084 17.4512 171.24 17.4609 171.396 17.5195C171.553 17.5586 171.689 17.6367 171.807 17.7539C171.846 18.1055 171.797 18.4277 171.66 18.7207C171.543 19.0137 171.406 19.3066 171.25 19.5996C171.113 19.873 171.006 20.166 170.928 20.4785C170.849 20.791 170.879 21.1523 171.015 21.5625C170.742 21.7188 170.469 21.8555 170.195 21.9727C169.941 22.0898 169.697 22.2168 169.463 22.3535C169.248 22.4902 169.053 22.666 168.877 22.8809C168.721 23.0957 168.613 23.3789 168.555 23.7305C169.082 23.9258 169.394 24.1699 169.492 24.4629C169.59 24.7559 169.639 25.0781 169.639 25.4297C169.639 25.7617 169.658 26.1133 169.697 26.4844C169.756 26.8359 170.01 27.1875 170.459 27.5391C170.537 27.5977 170.586 27.6465 170.605 27.6855C170.644 27.7051 170.713 27.7344 170.81 27.7734C171.006 27.832 171.182 27.832 171.338 27.7734C171.494 27.6953 171.64 27.627 171.777 27.5684C171.933 27.5098 172.09 27.4902 172.246 27.5098C172.422 27.5098 172.617 27.627 172.832 27.8613C173.125 27.4902 173.398 27.4902 173.652 27.8613C173.887 27.4316 174.101 27.1875 174.297 27.1289C174.492 27.0703 174.678 27.0508 174.853 27.0703C175.049 27.0898 175.244 27.0703 175.439 27.0117C175.635 26.9531 175.849 26.709 176.084 26.2793L176.348 26.543C176.465 26.2305 176.601 26.084 176.758 26.1035C176.933 26.1035 177.099 26.1328 177.256 26.1914C177.412 26.2305 177.549 26.2305 177.666 26.1914C177.783 26.1328 177.842 25.8984 177.842 25.4883C178.017 25.4883 178.164 25.4492 178.281 25.3711C178.418 25.293 178.545 25.2051 178.662 25.1074C178.799 25.0098 178.945 24.9316 179.101 24.873C179.258 24.7949 179.443 24.7559 179.658 24.7559L178.896 26.6016L176.348 28.5352ZM190.234 4.18945C190.273 4.4043 190.263 4.62891 190.205 4.86328C190.166 5.09766 190.117 5.3418 190.058 5.5957C190 5.83008 189.941 6.07422 189.882 6.32812C189.843 6.5625 189.843 6.80664 189.882 7.06055L189.414 7.67578L189.619 7.82227C189.345 7.93945 189.16 8.13477 189.062 8.4082C188.984 8.68164 188.925 8.96484 188.886 9.25781C188.847 9.55078 188.779 9.83398 188.681 10.1074C188.603 10.3613 188.418 10.5469 188.125 10.6641C188.086 11.1328 187.968 11.582 187.773 12.0117C187.578 12.4414 187.373 12.8711 187.158 13.3008C187.08 13.418 186.992 13.5449 186.894 13.6816C186.816 13.7988 186.757 13.916 186.718 14.0332C186.64 14.248 186.572 14.4434 186.513 14.6191C186.474 14.7949 186.406 14.9805 186.308 15.1758C186.211 15.4102 186.093 15.6348 185.957 15.8496C185.82 16.0449 185.693 16.25 185.576 16.4648C185.537 16.5625 185.498 16.6699 185.459 16.7871C185.42 16.9043 185.371 17.0117 185.312 17.1094C185.136 17.4609 184.961 17.8027 184.785 18.1348C184.629 18.4473 184.531 18.8086 184.492 19.2188C184.218 19.4531 184.004 19.7266 183.847 20.0391C183.711 20.3516 183.574 20.6641 183.437 20.9766C183.32 21.2891 183.193 21.582 183.056 21.8555C182.92 22.1094 182.734 22.3242 182.5 22.5C182.343 22.4219 182.226 22.3145 182.148 22.1777C182.07 22.0215 182.011 21.8652 181.972 21.709C181.953 21.5527 181.933 21.3867 181.914 21.2109C181.914 21.0352 181.894 20.8789 181.855 20.7422C182.129 20.6055 182.304 20.4199 182.382 20.1855C182.461 19.9512 182.5 19.707 182.5 19.4531C182.5 19.1797 182.5 18.916 182.5 18.6621C182.519 18.3887 182.587 18.1445 182.705 17.9297C182.763 17.832 182.822 17.7637 182.88 17.7246C182.939 17.6855 183.007 17.627 183.086 17.5488C183.32 17.334 183.505 17.0508 183.642 16.6992C183.798 16.3281 183.935 15.9375 184.052 15.5273C184.17 15.0977 184.277 14.6777 184.375 14.2676C184.492 13.8574 184.619 13.5059 184.755 13.2129L185.4 12.5684L185.195 12.3926C185.39 12.1191 185.546 11.8359 185.664 11.543C185.781 11.2305 185.898 10.9277 186.015 10.6348C186.132 10.3418 186.279 10.0586 186.455 9.78516C186.63 9.51172 186.865 9.27734 187.158 9.08203C187.06 8.65234 187.041 8.26172 187.099 7.91016C187.177 7.53906 187.304 7.1875 187.48 6.85547C187.656 6.52344 187.861 6.20117 188.095 5.88867C188.349 5.57617 188.593 5.25391 188.828 4.92188C188.73 4.53125 188.808 4.20898 189.062 3.95508C189.179 3.97461 189.296 3.96484 189.414 3.92578C189.531 3.88672 189.648 3.85742 189.765 3.83789C189.882 3.81836 189.98 3.82812 190.058 3.86719C190.136 3.90625 190.195 4.01367 190.234 4.18945ZM181.591 27.8613L181.738 28.0078C181.621 28.1445 181.494 28.291 181.357 28.4473C181.22 28.6035 181.064 28.75 180.888 28.8867C180.732 29.0039 180.556 29.1016 180.361 29.1797C180.185 29.2383 180 29.2383 179.804 29.1797C179.55 29.2188 179.316 29.1504 179.101 28.9746C178.906 28.7988 178.818 28.584 178.837 28.3301C178.857 28.0762 178.925 27.8809 179.043 27.7441C179.179 27.6074 179.306 27.4512 179.423 27.2754L179.336 27.1582C179.336 27.002 179.355 26.8945 179.394 26.8359C179.433 26.7773 179.472 26.6797 179.511 26.543C179.57 26.2305 179.707 26.0059 179.921 25.8691C180.156 25.7129 180.4 25.6445 180.654 25.6641C180.927 25.6641 181.171 25.752 181.386 25.9277C181.601 26.084 181.728 26.3086 181.767 26.6016C181.826 26.6992 181.836 26.8164 181.796 26.9531C181.777 27.0703 181.738 27.1777 181.679 27.2754C181.738 27.334 181.845 27.4023 182.002 27.4805L181.591 27.8613Z" fill="black"/>
</svg>
